<svg id="Layer_1" data-name="Layer 1" xmlns="http://www.w3.org/2000/svg" viewBox="0 0 333.6 117.6"><title>classroom</title><path d="M90,245.29a17.49,17.49,0,0,1-1.57,7.35A24.21,24.21,0,0,1,84.19,259a25.93,25.93,0,0,1-6.45,5,31.38,31.38,0,0,1-8.25,3.15v15.45h39.9V185.29h16.8V298.84h-99v-16.2H52.24V267.19A31.38,31.38,0,0,1,44,264a27.07,27.07,0,0,1-6.52-5,21.8,21.8,0,0,1-4.28-6.38,18.23,18.23,0,0,1-1.5-7.35V234.34A17.76,17.76,0,0,1,34,225.42a24.51,24.51,0,0,1,6.3-7.28,30.63,30.63,0,0,1,9.22-4.95,34.93,34.93,0,0,1,11.4-1.8,34.93,34.93,0,0,1,11.4,1.8,30.93,30.93,0,0,1,9.23,4.95,23.94,23.94,0,0,1,6.22,7.28A18.32,18.32,0,0,1,90,234.34ZM52.69,190.54v-9.3H69.34v9.3H93.19v15H29v-15Zm-4.35,52.35a8.71,8.71,0,0,0,1,4.13,11.16,11.16,0,0,0,2.7,3.37,12.25,12.25,0,0,0,4,2.33,14.9,14.9,0,0,0,9.75,0,11.67,11.67,0,0,0,4-2.33,13.35,13.35,0,0,0,2.7-3.37,8.32,8.32,0,0,0,1.05-4.13v-6.15a8.72,8.72,0,0,0-1.05-4.2,11.8,11.8,0,0,0-2.7-3.37,12.38,12.38,0,0,0-4-2.25,14.73,14.73,0,0,0-9.75,0,13,13,0,0,0-4,2.25,10.07,10.07,0,0,0-2.7,3.37,9.14,9.14,0,0,0-1,4.2Z" transform="translate(-27.19 -181.24)"/><path d="M173.74,256.39H142.39v-15.6h82.2v-18H209.14v-16.2h15.45v-21.3h16.8V298.84h-93.6v-27.3h16.8v11.4h60V256.39h-34.8v16.5h-16Zm.75-71.1A31.23,31.23,0,0,1,184.84,187a30.15,30.15,0,0,1,8.7,4.65,23.18,23.18,0,0,1,6,6.9,16.64,16.64,0,0,1,2.25,8.32V215a16.53,16.53,0,0,1-2.25,8.4,24,24,0,0,1-6.08,6.9,28.85,28.85,0,0,1-8.77,4.65,33.54,33.54,0,0,1-20.78,0,27.13,27.13,0,0,1-8.55-4.65,22.87,22.87,0,0,1-5.77-6.9,17.45,17.45,0,0,1-2.1-8.4v-7.5a17.47,17.47,0,0,1,2.47-9.3,25.35,25.35,0,0,1,6.3-7,28,28,0,0,1,8.48-4.43,29.26,29.26,0,0,1,9-1.5ZM186,210.19a8.6,8.6,0,0,0-.9-3.9,11.52,11.52,0,0,0-2.4-3.22,10.08,10.08,0,0,0-3.6-2.18,12.84,12.84,0,0,0-4.35-.75,12.68,12.68,0,0,0-4.43.75,11,11,0,0,0-3.6,2.18,10.87,10.87,0,0,0-2.47,3.22,8.6,8.6,0,0,0-.9,3.9v2.55a8.6,8.6,0,0,0,.9,3.9,11.08,11.08,0,0,0,6.07,5.4,12.68,12.68,0,0,0,4.43.75,12.84,12.84,0,0,0,4.35-.75,10.06,10.06,0,0,0,3.6-2.17,11.57,11.57,0,0,0,2.4-3.23,8.6,8.6,0,0,0,.9-3.9Z" transform="translate(-27.19 -181.24)"/><path d="M262.69,206.29a20.26,20.26,0,0,1,1.65-8.25,19.71,19.71,0,0,1,4.5-6.45,20.27,20.27,0,0,1,6.75-4.2,23.2,23.2,0,0,1,8.4-1.5h50.4a23.2,23.2,0,0,1,8.4,1.5,20.27,20.27,0,0,1,6.75,4.2A19.71,19.71,0,0,1,354,198a21.24,21.24,0,0,1,.15,16.05,18.52,18.52,0,0,1-4.2,6.23,21,21,0,0,1-6.3,4.2,26.18,26.18,0,0,1-7.65,2v11.25h24.75v14H257.59v-14h24.75V226.54a25.49,25.49,0,0,1-7.73-2,21.31,21.31,0,0,1-6.22-4.2,18.52,18.52,0,0,1-4.2-6.23A20.08,20.08,0,0,1,262.69,206.29Zm0,72.3a19.71,19.71,0,0,1,1.65-8.17,20,20,0,0,1,4.5-6.38,20.27,20.27,0,0,1,6.75-4.2,23.2,23.2,0,0,1,8.4-1.5h50.4a23.2,23.2,0,0,1,8.4,1.5,20.27,20.27,0,0,1,6.75,4.2,20,20,0,0,1,4.5,6.38,20.07,20.07,0,0,1-4.5,22.72,20.27,20.27,0,0,1-6.75,4.2,23.2,23.2,0,0,1-8.4,1.5H284a23.2,23.2,0,0,1-8.4-1.5,20.27,20.27,0,0,1-6.75-4.2,19.55,19.55,0,0,1-6.15-14.55Zm16.2-72.3a5.42,5.42,0,0,0,1.5,3.75,4.7,4.7,0,0,0,3.6,1.65h50.4A4.7,4.7,0,0,0,338,210a5.42,5.42,0,0,0,1.5-3.75,5.61,5.61,0,0,0-1.5-3.9,4.7,4.7,0,0,0-3.6-1.65H284a4.7,4.7,0,0,0-3.6,1.65A5.61,5.61,0,0,0,278.89,206.29Zm0,72.3a5.71,5.71,0,0,0,1.5,3.83,4.61,4.61,0,0,0,3.6,1.72h50.4a4.61,4.61,0,0,0,3.6-1.72,5.63,5.63,0,0,0,0-7.65,4.62,4.62,0,0,0-3.6-1.73H284a4.62,4.62,0,0,0-3.6,1.73A5.68,5.68,0,0,0,278.89,278.59Zm19.2-40.8h22.2V226.54h-22.2Z" transform="translate(-27.19 -181.24)"/></svg>