<svg id="Layer_1" data-name="Layer 1" xmlns="http://www.w3.org/2000/svg" viewBox="0 0 163.76 86.09"><title>fbm</title><path d="M179,187.49h40.14v11.83h-4.89V261h4.89v11.72H179V261h5.23V199.32H179ZM196.41,261h5.8V199.32h-5.8Zm40.38,12.17H225V234.23h-6.6V221.72H225V187h11.83Zm17.17,0H242.13V187H254Z" transform="translate(-179.02 -187.04)"/><path d="M337.88,256.18l-3.52,16.94H320.82l3.53-16.94H269.42V245.49h27.64v-5.8H264.53v-11.6h78.24v11.6H310.25v5.8h27.63Zm-1-34.46H270.45V187H283V194h41.5V187h12.4Zm-12.4-10.58v-6.82H283v6.82Z" transform="translate(-179.02 -187.04)"/></svg>