<svg id="Layer_1" data-name="Layer 1" xmlns="http://www.w3.org/2000/svg" viewBox="0 0 252.91 86.09"><title>kktlogo</title><path d="M153.53,232.52H126V220.24h29.34l2.84-20.47H125.56V187.49h47v12.28l-10.46,72.78h-14Zm32.53,40.6V187h12.05v29.46h9.33v11.94h-9.33v44.69Z" transform="translate(-125.56 -187.03)"/><path d="M240.87,232.52H213.35V220.24h29.34l2.84-20.47H212.89V187.49h47v12.28L249.4,272.55h-14Zm32.52,40.6V187h12.06v29.46h9.32v11.94h-9.32v44.69Z" transform="translate(-125.56 -187.03)"/><path d="M332.75,259.93V236.62H322.41a19.19,19.19,0,0,1-7.68-1.54,19.86,19.86,0,0,1-6.31-4.26,20.17,20.17,0,0,1-4.27-6.31,19.36,19.36,0,0,1-1.53-7.68V207.5a19.78,19.78,0,0,1,1.53-7.73,19.9,19.9,0,0,1,10.58-10.63,19.37,19.37,0,0,1,7.68-1.54h33.88a19.8,19.8,0,0,1,7.74,1.54,19.11,19.11,0,0,1,6.31,4.26,20.49,20.49,0,0,1,4.21,6.37,19.78,19.78,0,0,1,1.53,7.73v9.33a19.36,19.36,0,0,1-1.53,7.68,20.7,20.7,0,0,1-4.21,6.31,19.11,19.11,0,0,1-6.31,4.26,19.62,19.62,0,0,1-7.74,1.54H346v23.31h32.52v13.19H300.23V259.93Zm21.38-36.05a8.94,8.94,0,0,0,3.64-.74,7.52,7.52,0,0,0,2.85-2.1,10.31,10.31,0,0,0,1.76-3.13,11.49,11.49,0,0,0,.62-3.81v-3.87a10.63,10.63,0,0,0-2.38-7,8,8,0,0,0-6.49-2.9H324.57a8,8,0,0,0-6.49,2.9,10.63,10.63,0,0,0-2.38,7v3.87a10.44,10.44,0,0,0,2.38,6.94,8.06,8.06,0,0,0,6.49,2.84Z" transform="translate(-125.56 -187.03)"/></svg>