<svg id="Layer_1" data-name="Layer 1" xmlns="http://www.w3.org/2000/svg" viewBox="0 0 254.96 86.09"><title>reddit3</title><path d="M158.31,227.06l15.12,45.83h-14.1l-8.19-26-9.43,26H127.15l26.16-72.78H127.83V187.49h40.26v12.62Zm27.75,46.06V187h12.05v29.46h9.33v11.94h-9.33v44.69Z" transform="translate(-127.15 -187.03)"/><path d="M231.54,261V245H218.69V210.46h52.54V200.23H218.69V187.49h66.64V222.4H232.79v10H286V245H274.3V261h16.83v12.17H212.89V261Zm13.65,0h15.47V245H245.19Z" transform="translate(-127.15 -187.03)"/><path d="M302.5,232.64V187.49h12.74V199.2h17.4V187.49h12.74v45.15ZM305.23,257a16.3,16.3,0,0,1,1.25-6.37,15.53,15.53,0,0,1,3.47-5.11,17.37,17.37,0,0,1,5.18-3.47,15.29,15.29,0,0,1,6.25-1.31h37.07a15.58,15.58,0,0,1,6.37,1.31,16.72,16.72,0,0,1,5.12,3.47,15.84,15.84,0,0,1,3.41,5.11A16.12,16.12,0,0,1,374.6,257a15.8,15.8,0,0,1-1.25,6.26,16.56,16.56,0,0,1-3.41,5.17,15.42,15.42,0,0,1-5.12,3.47,16.23,16.23,0,0,1-6.37,1.25H321.38A16.15,16.15,0,0,1,310,268.4a16.21,16.21,0,0,1-3.47-5.17A16,16,0,0,1,305.23,257Zm27.41-35.71v-11h-17.4v11ZM317.51,257a5,5,0,0,0,1.14,3.24,3.62,3.62,0,0,0,3,1.43h36.62a3.61,3.61,0,0,0,2.95-1.43,5,5,0,0,0,1.14-3.24,5.29,5.29,0,0,0-1.14-3.3,3.56,3.56,0,0,0-2.95-1.47H321.61a3.58,3.58,0,0,0-3,1.47A5.29,5.29,0,0,0,317.51,257Zm42.54-23V187h12.73v15.24h9.33v12.4h-9.33V234Z" transform="translate(-127.15 -187.03)"/></svg>