<svg id="Layer_1" data-name="Layer 1" xmlns="http://www.w3.org/2000/svg" viewBox="0 0 254.28 86.09"><title>vocab</title><path d="M127.83,187.49h44.81v12.4H140.57v21.26h32.07v12.28H127.83ZM144.89,262h40.48V187h12.74v24.11h9.33v12.4h-9.33v49.58h-66.3V245.26h13.08Z" transform="translate(-127.83 -187.03)"/><path d="M237.57,187a22.17,22.17,0,0,1,20.64,13.31,20.75,20.75,0,0,1,1.76,8.53v8.53H275.1V187H288v86.09H275.1V229.34H260v21.95a21.12,21.12,0,0,1-1.76,8.58,22,22,0,0,1-4.77,7,21.52,21.52,0,0,1-7.11,4.6,24.08,24.08,0,0,1-17.52,0,21.37,21.37,0,0,1-7.1-4.6,21.87,21.87,0,0,1-4.78-7,21.12,21.12,0,0,1-1.76-8.58V208.87a20.75,20.75,0,0,1,1.76-8.53A22.38,22.38,0,0,1,237.57,187Zm0,12.74a9.81,9.81,0,0,0-3.64.68,10,10,0,0,0-3.07,1.94,8.06,8.06,0,0,0-2.05,3,9.55,9.55,0,0,0-.68,3.53v42.42a9.35,9.35,0,0,0,.68,3.58,7.59,7.59,0,0,0,2.05,2.84,11.75,11.75,0,0,0,3.07,1.94,9.1,9.1,0,0,0,3.64.73,9.54,9.54,0,0,0,3.7-.73,9.87,9.87,0,0,0,3-1.94,8.87,8.87,0,0,0,2-2.84,8.69,8.69,0,0,0,.74-3.58V208.87a8.87,8.87,0,0,0-.74-3.53,9.47,9.47,0,0,0-2-3,8.58,8.58,0,0,0-3-1.94A10.29,10.29,0,0,0,237.57,199.77Z" transform="translate(-127.83 -187.03)"/><path d="M347.31,187.49v12.62l-12.17,9.44,12.62,9.78v15.24l-22.28-17.4L302.5,235V219.79l25.82-19.68H302.5V187.49Zm11.26,53.79a15.92,15.92,0,0,1,6.25,1.25,17.2,17.2,0,0,1,5.18,3.36,14.92,14.92,0,0,1,3.47,5.06,16.4,16.4,0,0,1,0,12.56,15.63,15.63,0,0,1-3.47,5.06,16,16,0,0,1-5.18,3.36,16.63,16.63,0,0,1-6.25,1.19H321.38a16.63,16.63,0,0,1-6.25-1.19,15.86,15.86,0,0,1-5.18-3.36,15.63,15.63,0,0,1-3.47-5.06,16.4,16.4,0,0,1,0-12.56,14.92,14.92,0,0,1,3.47-5.06,17.07,17.07,0,0,1,5.18-3.36,15.92,15.92,0,0,1,6.25-1.25Zm-37.19,11.94a3.66,3.66,0,0,0-2.73,1.19,3.93,3.93,0,0,0-1.14,2.79,3.83,3.83,0,0,0,1.14,2.84,3.72,3.72,0,0,0,2.73,1.14h37.19a3.79,3.79,0,0,0,2.67-1.14,3.72,3.72,0,0,0,1.19-2.84,3.82,3.82,0,0,0-1.19-2.79,3.73,3.73,0,0,0-2.67-1.19Zm37.76-18.76V187h13.64v16.49h9.33v12.4h-9.33v18.54Z" transform="translate(-127.83 -187.03)"/></svg>