<svg id="Layer_1" data-name="Layer 1" xmlns="http://www.w3.org/2000/svg" viewBox="0 0 252.91 86.09"><title>youtube</title><path d="M203.8,240.48v11.38H186.51v21.26H173.77V251.86H155.58v21.26H142.84V251.86H125.56V240.48Zm-74.6-35.25a16.47,16.47,0,0,1,1.42-6.82,18.51,18.51,0,0,1,3.86-5.63,18.31,18.31,0,0,1,5.75-3.87,17.59,17.59,0,0,1,7.05-1.42h34.8a17.59,17.59,0,0,1,7,1.42,18.27,18.27,0,0,1,5.74,3.87,18.72,18.72,0,0,1,3.87,5.63,16.63,16.63,0,0,1,1.42,6.82v5.69a17.09,17.09,0,0,1-1.42,6.88,17.89,17.89,0,0,1-3.87,5.63,18.8,18.8,0,0,1-5.74,3.81,17.76,17.76,0,0,1-7,1.42h-34.8a17.76,17.76,0,0,1-7.05-1.42,18.85,18.85,0,0,1-5.75-3.81,17.7,17.7,0,0,1-3.86-5.63,16.92,16.92,0,0,1-1.42-6.88Zm12.85,2.84a9.21,9.21,0,0,0,2,5.92,7,7,0,0,0,5.85,2.5h29.57a7,7,0,0,0,5.86-2.5,9.26,9.26,0,0,0,2-5.92,9.11,9.11,0,0,0-2-5.8,7.06,7.06,0,0,0-5.86-2.5H149.89a7,7,0,0,0-5.85,2.5A9.05,9.05,0,0,0,142.05,208.07Z" transform="translate(-125.56 -187.03)"/><path d="M291.13,238v11.37H273.85v23.77H261.11V249.35H242.92v23.77H230.18V249.35H212.89V238ZM219,232.07V187.49h66v11.14H232.68v5.69H285v11H232.68v5.57H285v11.15Z" transform="translate(-125.56 -187.03)"/><path d="M378.47,261.07v12.05H300.23V261.07Zm-74.6-19.9V187H318v18.54h42.76V187h14.1v54.14Zm56.86-12.29v-11H318v11Z" transform="translate(-125.56 -187.03)"/></svg>