<svg id="Layer_1" data-name="Layer 1" xmlns="http://www.w3.org/2000/svg" viewBox="0 0 2000 289.07"><defs><style>.cls-1{fill:#fee700;}.cls-2,.cls-3{fill:#231f20;}.cls-2{stroke:#3c1e1e;stroke-miterlimit:10;stroke-width:4px;}</style></defs><title>kktlink</title><rect class="cls-1" width="2000" height="289.07"/><path class="cls-2" d="M219.07,150.75a69.74,69.74,0,0,0,16.38-8.37,40.69,40.69,0,0,0,11.07-11.61L222,133l-1.89-8.91,30.33-1.89a46.26,46.26,0,0,0,1.89-10.08H223.93v-8.37h38.79a64.86,64.86,0,0,1-2.25,19.62,46.73,46.73,0,0,1-7.65,15.48,51.91,51.91,0,0,1-12.19,11.7,70.65,70.65,0,0,1-16,8.1Zm64.8-52.47v25.47h13.32V132H283.87v45h-9.72V98.28Z"/><path class="cls-2" d="M301.87,150.75a69.74,69.74,0,0,0,16.38-8.37,40.69,40.69,0,0,0,11.07-11.61L304.75,133l-1.89-8.91,30.33-1.89a46.26,46.26,0,0,0,1.89-10.08H306.73v-8.37h38.79a64.86,64.86,0,0,1-2.25,19.62,46.73,46.73,0,0,1-7.65,15.48,51.91,51.91,0,0,1-12.19,11.7,70.65,70.65,0,0,1-16,8.1Zm64.8-52.47v25.47H380V132H366.67v45H357V98.28Z"/><path class="cls-2" d="M383.59,168.39v-8.1h32.85V144.18A24.58,24.58,0,0,1,404,138.24a21.23,21.23,0,0,1-4.95-24.08,21.08,21.08,0,0,1,5-7,25,25,0,0,1,7.65-4.59,26.93,26.93,0,0,1,9.81-1.71,26.42,26.42,0,0,1,9.63,1.71,25,25,0,0,1,7.65,4.59,22.32,22.32,0,0,1,5,7,20.31,20.31,0,0,1,1.84,8.6,20.86,20.86,0,0,1-1.75,8.55,21.3,21.3,0,0,1-4.91,6.93,23.48,23.48,0,0,1-12.78,5.94v16.11h32.94v8.1Zm51.48-45.63a13.14,13.14,0,0,0-3.6-9.27,12.88,12.88,0,0,0-9.9-4,13.08,13.08,0,0,0-13.68,13.23,12.57,12.57,0,0,0,3.69,9.27,13,13,0,0,0,4.32,2.83,14.8,14.8,0,0,0,5.67,1,12.88,12.88,0,0,0,9.9-4A13,13,0,0,0,435.07,122.76Z"/><path class="cls-2" d="M466.39,149.49v-8.1h32.94v-7H479V100.53h50.22v7.83H488.35v5.31h40.41v7.47H488.35v5.4H530v7.83H509.14v7H542v8.1Zm11.52,6h51.3V180h-9.72V163.8H477.91Z"/><path class="cls-3" d="M604.27,174.15h-9.36V131h-6.57a29.57,29.57,0,0,1-1.89,8,22,22,0,0,1-3.78,6.3,18.07,18.07,0,0,1-6.21,5,17.24,17.24,0,0,1-7.65,1.76,17.43,17.43,0,0,1-7.74-1.76,18.07,18.07,0,0,1-6.21-5,23.23,23.23,0,0,1-4.23-7.52,31.48,31.48,0,0,1,0-19.39,23.12,23.12,0,0,1,4.23-7.56,18.58,18.58,0,0,1,6.21-5,17.07,17.07,0,0,1,7.74-1.8,16.88,16.88,0,0,1,7.65,1.8,18.58,18.58,0,0,1,6.21,5A22.72,22.72,0,0,1,586,116.1a27.21,27.21,0,0,1,2,6.48h6.93v-23h9.36ZM558.64,128a21.73,21.73,0,0,0,.81,6.16,16.78,16.78,0,0,0,2.16,4.73,10,10,0,0,0,3.2,3.06,7.77,7.77,0,0,0,4,1.08q4.14,0,7.11-4.14T579,128q0-6.75-3.06-10.89T568.81,113a7.77,7.77,0,0,0-4,1.08,10,10,0,0,0-3.2,3.06,16.66,16.66,0,0,0-2.16,4.77A21.89,21.89,0,0,0,558.64,128ZM620.56,177H611.2V98.28h9.36Z"/><path class="cls-3" d="M677,157.59a49.73,49.73,0,0,1-6-4.41,47.44,47.44,0,0,1-5.49-5.49,46.06,46.06,0,0,1-4.63-6,30,30,0,0,1-3.11-6.21,40.81,40.81,0,0,1-3.24,6.48,46.92,46.92,0,0,1-4.54,6.21,54.43,54.43,0,0,1-5.58,5.58A50.13,50.13,0,0,1,638,158.4L632.17,151a42.74,42.74,0,0,0,14.22-14,46.67,46.67,0,0,0,4.5-9.86,36.93,36.93,0,0,0,1.71-11.47V102.6h10v12.87a37.54,37.54,0,0,0,1.58,11.07,41.51,41.51,0,0,0,4.27,9.54,42.47,42.47,0,0,0,6.44,7.92,41.48,41.48,0,0,0,7.78,5.94Zm25-59.31V177h-9.72V131H674.56v-8.46h17.73V98.28Z"/><path class="cls-2" d="M744.94,105h16.29q21,0,21,16.92,0,11.25-11,14.67a18.61,18.61,0,0,1,9.36,5.76,14.46,14.46,0,0,1,3.6,9.81q0,19.44-25.29,19.44H744.94Zm9.63,57.33h4.5q15.48,0,15.48-10.26,0-6.57-5.31-8.91-3.51-1.53-11.16-1.53h-3.51Zm.18-30h5q13,0,13-9.72,0-8.46-11.43-8.46h-6.48Z"/><path class="cls-2" d="M835.93,150.84H805.6q.27,6.48,3.51,10.08a11.47,11.47,0,0,0,9.18,3.87,28.58,28.58,0,0,0,14.31-3.51v9.09a41.23,41.23,0,0,1-14.58,2.7q-11.61,0-17.28-7.38-4.95-6.57-5-18.36,0-11.34,5.49-18.45A17.68,17.68,0,0,1,816,121.77q10.35,0,15.48,7.38,4.41,6.3,4.41,16.65Zm-9.81-8.55a13.54,13.54,0,0,0-2.61-8.46,8.47,8.47,0,0,0-7.11-3.6,9.71,9.71,0,0,0-7.65,3.69,12.54,12.54,0,0,0-3.15,8.37Z"/><path class="cls-2" d="M873.64,172.08v-4.77q-4.41,5.74-12.69,5.76-9,0-13.32-5a13.63,13.63,0,0,1-3.06-9q0-18.36,27-18.36h1.35v-1.62q0-8.82-8.19-8.82a30.5,30.5,0,0,0-14.58,3.87v-8.82a32.63,32.63,0,0,1,15.12-3.51q8.64,0,12.6,4,4.23,4.41,4.23,13.68v21a84,84,0,0,0,.54,11.61Zm-.72-23H871a35.82,35.82,0,0,0-10.8,1.26q-6,2-6,7.83,0,6.48,7.47,6.48,11.25,0,11.25-13.68Z"/><path class="cls-2" d="M920.08,131.76l-2.16-.32a14.63,14.63,0,0,0-2-.13q-5.22,0-7.74,5.13a24,24,0,0,0-2.34,11.16V172h-9.63V134.91q0-3.42-.13-6.44c-.09-2-.2-3.88-.32-5.62h9.72v6q4.14-7.11,10.53-7.11a16,16,0,0,1,4.05.54Z"/><path class="cls-2" d="M938.44,171.63h-9.81V100h9.81Z"/><path class="cls-2" d="M961.3,113h-9.63V101.7h9.63Zm0,59h-9.63v-50.4h9.63Z"/><path class="cls-2" d="M1014.4,172H1005V141.84q0-11.61-8.46-11.61a9.74,9.74,0,0,0-8.73,4.59A19.19,19.19,0,0,0,985.42,145v27h-9.36V135.36q0-3.51-.13-6.62t-.32-5.89h9v5q4.41-6,13-6,16.74,0,16.74,18.63Z"/><path class="cls-2" d="M1069.3,123v38.52q0,23.3-22.68,23.31a41.1,41.1,0,0,1-15.21-2.7l.81-9.18a32.07,32.07,0,0,0,14.49,3.33q12.87,0,13.32-11.34l.09-.45q-4,5.58-11.7,5.58-10.53,0-16.11-7.74-4.68-6.39-4.68-16,0-11.43,4.95-17.73,5.31-6.66,15.3-6.66,8.19,0,12.33,4.14V123Zm-20.52,7.65q-11.43,0-11.43,15.93,0,14.76,11.07,14.76,5.94,0,9-4.14,2.79-3.87,2.79-10.62,0-8.46-2.75-12.2T1048.78,130.68Z"/><path class="cls-2" d="M1104.31,121.77q11.16,0,17.37,8,5.58,7.11,5.58,17.64t-5.58,17.64q-6.21,8-17.37,8t-17.46-8q-5.49-6.93-5.49-17.64t5.49-17.64Q1093.06,121.77,1104.31,121.77Zm0,8.46a11.47,11.47,0,0,0-9.72,4.86q-3.42,4.77-3.42,12.33t3.42,12.33a11.47,11.47,0,0,0,9.72,4.86,11.24,11.24,0,0,0,9.63-4.86q3.51-4.68,3.51-12.33t-3.51-12.33A11.24,11.24,0,0,0,1104.31,130.23Z"/><path class="cls-3" d="M1204.84,149.31a55.12,55.12,0,0,1-11-6.53,34.71,34.71,0,0,1-8.14-8.68,41,41,0,0,1-8,9,52,52,0,0,1-11.52,7.16l-5.67-6.93a55.51,55.51,0,0,0,7.06-3.74,35.6,35.6,0,0,0,6.44-5.08,25.56,25.56,0,0,0,4.68-6.08,15,15,0,0,0,1.8-7.33v-1.44h-16.11v-8.19h42.75v8.19h-16.38v1.26a14.5,14.5,0,0,0,1.75,7,23.45,23.45,0,0,0,4.64,5.94,33.56,33.56,0,0,0,6.34,4.95,55.93,55.93,0,0,0,7.16,3.69Zm-32.67-42.48v-8.1h26.91v8.1Zm58.59,72.09h-50V153.54h9.9v17.19h40Zm-11.52-80.64H1229v58.5h-9.72Z"/><path class="cls-3" d="M1275.85,178.11V145.53h-32.94v-8.1h51a158.46,158.46,0,0,0,3-26.37h-43.38v-8.28h53.37q-.09,9.54-.81,18.4a147.6,147.6,0,0,1-2.16,16.25h14.4v8.1h-32.67v32.58Z"/><path class="cls-3" d="M1358.65,178.92v-24h-32.94v-8.1h75.51v8.1h-32.76v24Zm5.13-48.6a32.73,32.73,0,0,1-11.21,8,75.61,75.61,0,0,1-15.34,4.91l-5-7.65a84.29,84.29,0,0,0,9.27-2.39,43.55,43.55,0,0,0,8.46-3.64,26.08,26.08,0,0,0,5.35-4,10.54,10.54,0,0,0,2.93-5h-21.24v-8.46h53.1v8.46h-20.88a10.69,10.69,0,0,0,2.88,5,25,25,0,0,0,5.31,4,43.55,43.55,0,0,0,8.46,3.64,82.39,82.39,0,0,0,9.36,2.39l-5,7.65a75.51,75.51,0,0,1-15.35-4.91A32.68,32.68,0,0,1,1363.78,130.32Zm-15.93-22.59V99.27h31.5v8.46Z"/><path class="cls-3" d="M1409.14,149.94a59.29,59.29,0,0,0,22.68-15.3,42,42,0,0,0,10.71-21.87h-28.17v-8.55h38.79a55.68,55.68,0,0,1-2.93,18.63,52.15,52.15,0,0,1-8,14.85,57,57,0,0,1-11.57,11.2,83.08,83.08,0,0,1-15.16,8.69Zm65.16-51.66v25.47h13.32V132H1474.3v45h-9.72V98.28Z"/><path class="cls-3" d="M1518.58,121.86v-8.1h46.8v8.1Zm41.94,20.25a15.86,15.86,0,0,1-1.53,7,17.42,17.42,0,0,1-4,5.4A17.81,17.81,0,0,1,1549,158a20.42,20.42,0,0,1-7,1.22A20.73,20.73,0,0,1,1535,158a18.31,18.31,0,0,1-5.94-3.46,16.94,16.94,0,0,1-4.09-5.4,15.86,15.86,0,0,1-1.53-7,15.22,15.22,0,0,1,1.57-7,17.16,17.16,0,0,1,4.14-5.31,18.1,18.1,0,0,1,5.94-3.37,21.18,21.18,0,0,1,7-1.17,20.06,20.06,0,0,1,6.93,1.21,18.85,18.85,0,0,1,5.89,3.42,16.61,16.61,0,0,1,4.1,5.31A15.38,15.38,0,0,1,1560.52,142.11Zm-32.22-34V99.81h27.63v8.28Zm23.13,34a8.38,8.38,0,0,0-2.75-6.53,9.52,9.52,0,0,0-6.61-2.47,10.09,10.09,0,0,0-3.65.67,9.82,9.82,0,0,0-3.06,1.85,8.53,8.53,0,0,0-2.07,2.83,8.65,8.65,0,0,0-.76,3.65,8.82,8.82,0,0,0,.76,3.73,9.62,9.62,0,0,0,2.07,2.93,9,9,0,0,0,3.06,1.93,10.1,10.1,0,0,0,3.65.68,9.72,9.72,0,0,0,3.6-.68,9.1,9.1,0,0,0,5-4.86A9.29,9.29,0,0,0,1551.43,142.11Zm30.87-43.83v30.87h13.32v8.28H1582.3V177h-9.72V98.28Z"/><path class="cls-3" d="M1634.41,157.77a47,47,0,0,1-8.73-8.69,37.39,37.39,0,0,1-5.58-9.76,42.71,42.71,0,0,1-6,10.62,49.82,49.82,0,0,1-9.58,9.72l-6.84-6.57a54.44,54.44,0,0,0,7.29-6.8,37.74,37.74,0,0,0,5.49-8.1,43.32,43.32,0,0,0,3.46-9.72,51.83,51.83,0,0,0,1.22-11.65v-14.4H1625v14q0,12.15,4.54,20.65A40.75,40.75,0,0,0,1641.43,151Zm19.89,16.38h-9.36V130.41h-11.43V122h11.43V99.63h9.36Zm16.29,2.88h-9.36V98.28h9.36Z"/><path class="cls-3" d="M1682,168.3v-8.1h21.15V141.93h4.68a21.65,21.65,0,0,1-2.88-1.62,16,16,0,0,1-2.52-2.07,21.23,21.23,0,0,1-5-24.08,21.08,21.08,0,0,1,5-7,24.86,24.86,0,0,1,7.65-4.59,26.9,26.9,0,0,1,9.81-1.71,26.45,26.45,0,0,1,9.63,1.71,25,25,0,0,1,7.65,4.59,22.29,22.29,0,0,1,5,7,20.32,20.32,0,0,1,1.85,8.6,20.87,20.87,0,0,1-1.76,8.55,21.27,21.27,0,0,1-4.9,6.93,20.62,20.62,0,0,1-5.49,3.69h5.58V160.2h20.07v8.1Zm51.48-45.54a13.18,13.18,0,0,0-3.6-9.27,12.88,12.88,0,0,0-9.9-4,13.08,13.08,0,0,0-13.68,13.23A12.53,12.53,0,0,0,1710,132a12.92,12.92,0,0,0,4.32,2.83,14.77,14.77,0,0,0,5.67,1,12.88,12.88,0,0,0,9.9-4A13.07,13.07,0,0,0,1733.5,122.76ZM1720,144.54a28.89,28.89,0,0,1-7-.81V160.2h14.76V143.55A30.42,30.42,0,0,1,1720,144.54Z"/><path class="cls-3" d="M1780.93,177.66h-11.16V167h11.16Z"/></svg>