<svg id="Layer_1" data-name="Layer 1" xmlns="http://www.w3.org/2000/svg" viewBox="0 0 1920 547.82"><defs><style>.cls-1{fill:#59bbc7;}.cls-2{fill:#fff;}.cls-3{opacity:0.8;}</style></defs><title>dayupdate</title><rect class="cls-1" width="1920" height="547.82" rx="12.36" ry="12.36"/><path class="cls-2" d="M141.37,323.9V308.63h79V323.9h-30v7.46a36.38,36.38,0,0,0,2.74,14.2,41.55,41.55,0,0,0,7.72,12,63.94,63.94,0,0,0,11.12,10,79.36,79.36,0,0,0,13.77,7.8l-10.62,13.11a82,82,0,0,1-19.83-12.78A75.76,75.76,0,0,1,181,359.41,79.89,79.89,0,0,1,167,377a93.67,93.67,0,0,1-20.5,14.44l-10.95-12.62a115.61,115.61,0,0,0,13.61-8.54,64.49,64.49,0,0,0,11.45-10.71,53.18,53.18,0,0,0,7.8-12.61,37.65,37.65,0,0,0,3-15.27v-7.8ZM262.69,448H170.58v-51h18.25v35.85h73.86ZM241.45,299.33h17.92V407.21H241.45Z" transform="translate(0 0.11)"/><path class="cls-2" d="M287.26,334.85V320.24h71.53v14.61ZM353,366.05a23.76,23.76,0,0,1-2.16,10.13,24.92,24.92,0,0,1-6.05,8.13,29,29,0,0,1-9.3,5.48,35.39,35.39,0,0,1-23.4,0,28.78,28.78,0,0,1-9.3-5.48,24.64,24.64,0,0,1-6-8.13,24.81,24.81,0,0,1,0-20.25,24.64,24.64,0,0,1,6-8.13,28.61,28.61,0,0,1,9.3-5.48,35.39,35.39,0,0,1,23.4,0,28.82,28.82,0,0,1,9.3,5.48,24.92,24.92,0,0,1,6.05,8.13A23.71,23.71,0,0,1,353,366.05ZM302.69,314.1V299.33h41.66V314.1Zm34.86,51.95a10.93,10.93,0,0,0-4-8.71,15.79,15.79,0,0,0-19.58,0,11.51,11.51,0,0,0,0,17.43,15.79,15.79,0,0,0,19.58,0A10.94,10.94,0,0,0,337.55,366.05Zm-7.64,59.26A23.1,23.1,0,0,1,333,413.52a28.61,28.61,0,0,1,8.55-9.13,44,44,0,0,1,12.86-6,60.45,60.45,0,0,1,32,0,42.77,42.77,0,0,1,12.87,6.05,29.36,29.36,0,0,1,8.54,9.22,22.77,22.77,0,0,1,3.07,11.62,23.24,23.24,0,0,1-3.07,11.7,28.2,28.2,0,0,1-8.54,9.21,43.9,43.9,0,0,1-12.87,6,60.45,60.45,0,0,1-32,0,44,44,0,0,1-12.86-6,28.61,28.61,0,0,1-8.55-9.13A23.09,23.09,0,0,1,329.91,425.31Zm18.09,0a10.56,10.56,0,0,0,1.5,5.39,15.53,15.53,0,0,0,4.31,4.65,22.63,22.63,0,0,0,7.05,3.32,33.9,33.9,0,0,0,9.55,1.24,33.53,33.53,0,0,0,9.62-1.24,22.69,22.69,0,0,0,7-3.32,15.7,15.7,0,0,0,4.32-4.65,10.54,10.54,0,0,0,1.49-5.39,10.76,10.76,0,0,0-1.49-5.32,15.25,15.25,0,0,0-4.32-4.73,22.69,22.69,0,0,0-7-3.32,33.53,33.53,0,0,0-9.62-1.24,33.9,33.9,0,0,0-9.55,1.24,22.63,22.63,0,0,0-7.05,3.32A15.09,15.09,0,0,0,349.5,420,10.78,10.78,0,0,0,348,425.31Zm18.42-123.49h17.27v39.83h14.6V299.33h17.26v95.6H398.29V356.76h-14.6v33.86H366.42Z" transform="translate(0 0.11)"/><path class="cls-2" d="M519.62,380.66A90.41,90.41,0,0,1,499,367.13a61.16,61.16,0,0,1-14.19-17.51,62.41,62.41,0,0,1-14,19.5,96.87,96.87,0,0,1-21.83,15.69l-11.12-13.94q16.59-7.8,26.72-20.75A47.09,47.09,0,0,0,475,319.91V303.48h19.09v15.94a42.9,42.9,0,0,0,10.12,28.38,67.38,67.38,0,0,0,26.22,18.59ZM518.45,387a48.18,48.18,0,0,1,14.86,2.32,42.27,42.27,0,0,1,12.86,6.64,32.65,32.65,0,0,1,9.05,10.7,32,32,0,0,1,0,28.72,32.75,32.75,0,0,1-9.05,10.7,42.27,42.27,0,0,1-12.86,6.64,48.72,48.72,0,0,1-29.71,0,42.27,42.27,0,0,1-12.86-6.64,32.63,32.63,0,0,1-9.05-10.7,32,32,0,0,1,0-28.72,32.53,32.53,0,0,1,9.05-10.7,42.27,42.27,0,0,1,12.86-6.64A48.12,48.12,0,0,1,518.45,387Zm0,15.43a25.16,25.16,0,0,0-8.46,1.41,22.42,22.42,0,0,0-7,3.9,18.79,18.79,0,0,0-4.73,5.89,16,16,0,0,0-1.74,7.39,16.71,16.71,0,0,0,1.74,7.72,18,18,0,0,0,4.73,5.81,22.27,22.27,0,0,0,7,3.73,27.6,27.6,0,0,0,16.93,0,22.39,22.39,0,0,0,7-3.73,18,18,0,0,0,4.73-5.81,16.71,16.71,0,0,0,1.74-7.72,16,16,0,0,0-1.74-7.39,18.79,18.79,0,0,0-4.73-5.89,22.54,22.54,0,0,0-7-3.9A25.22,25.22,0,0,0,518.45,402.4Zm65.23-53.77h-23.4v36.68H542.35v-86h17.93v34h23.4Z" transform="translate(0 0.11)"/><path class="cls-2" d="M590.15,384.81q8.48,0,18.84-.25t21.66-.58v-7.64a34.23,34.23,0,0,1-15.1-5.47q-9.13-6.15-9.13-15.27t9.13-15.11q9.12-6.14,24.39-6.14A51.47,51.47,0,0,1,653.47,336a38,38,0,0,1,10.46,4.48,20.65,20.65,0,0,1,6.72,6.73A16.07,16.07,0,0,1,673,355.6q0,9.12-9.13,15.27a37.71,37.71,0,0,1-14.93,5.64v6.64q11-.66,21.08-1.5t18.42-1.82l1.49,14.44q-10.95,1.32-23.57,2.24t-25.64,1.66q-13,.75-25.72,1.08t-23.66.33Zm7.31-53.28V317.09h83.81v14.44Zm19.25-18.09V299.17h45.14v14.27Zm38.67,42.32q0-3.48-4.48-5.81a23.71,23.71,0,0,0-11-2.32A25.12,25.12,0,0,0,628.66,350q-4.65,2.32-4.65,5.81c0,2.33,1.55,4.26,4.65,5.81a25,25,0,0,0,11.28,2.32,23.59,23.59,0,0,0,11-2.32C653.89,360,655.38,358.09,655.38,355.76ZM710.32,431a21,21,0,0,1-2.91,10.79,27.5,27.5,0,0,1-8.3,8.71,42.44,42.44,0,0,1-12.78,5.81A60.43,60.43,0,0,1,670,458.33a61.45,61.45,0,0,1-16.44-2.07,42.57,42.57,0,0,1-12.78-5.73,26.62,26.62,0,0,1-8.21-8.71,21.76,21.76,0,0,1,0-21.74,26.64,26.64,0,0,1,8.21-8.72,42.56,42.56,0,0,1,12.78-5.72A61.44,61.44,0,0,1,670,403.56a60.42,60.42,0,0,1,16.34,2.08,42.2,42.2,0,0,1,12.78,5.81,27.5,27.5,0,0,1,8.3,8.71A21,21,0,0,1,710.32,431Zm-18.43,0q0-5.47-6-9.3T670,417.84q-9.63,0-15.77,3.81t-6.14,9.3q0,5.64,6.14,9.37T670,444.06q9.45,0,15.68-3.74T691.89,431Zm44.48-67.22H713v38H695.05V299.33H713v49.13h23.4Z" transform="translate(0 0.11)"/><path class="cls-2" d="M139.5,161h27.65q27.51,0,41.41,15.22Q221,189.95,221,214.81q0,28.09-17.85,42-15.64,12.43-43.45,12.44H139.5Zm15.95,93.2h5.26q44.47,0,44.48-39.8,0-38.48-38-38.48h-11.7Z" transform="translate(0 0.11)"/><path class="cls-2" d="M338.62,269.82h-17l-11.12-27.94h-47.4l-11.27,27.94H235l44.47-109.14h15.95Zm-33.94-43L287,181.75l-17.85,45.06Z" transform="translate(0 0.11)"/><path class="cls-2" d="M441.62,160.68l-40.38,63.06v46.08H385.29V223.74l-40.38-63.06h19l29.26,48,30.14-48Z" transform="translate(0 0.11)"/><path class="cls-2" d="M534.82,269.82H519V181l-13.75,11.55-9.22-10.09,25.6-21.8h13.17Z" transform="translate(0 0.11)"/><path class="cls-2" d="M644.55,214.23q-8.64,13.17-20.48,13.16-6.3,0-17.71-5.26-13.17-6-16.38-6-4.69,0-12.59,11.26l-7.31-9.8a50.44,50.44,0,0,1,4-5.78,38.82,38.82,0,0,1,3.73-4,19.39,19.39,0,0,1,12.29-4.24q7,0,18.44,5.26,12.57,5.87,15.65,5.86,5.85,0,12.88-11.12Z" transform="translate(0 0.11)"/><path class="cls-2" d="M729.55,269.82H663.86l.15-13,24-27.06q23.26-26.49,23.26-40.82A14.26,14.26,0,0,0,707,178.09a15.21,15.21,0,0,0-10.9-4.1q-11.41,0-26,8.34l-2.78-15.07q15.22-7.75,28.1-7.75,14.19,0,22.53,7,9.36,7.6,9.36,22.53,0,16.68-27.07,48.58l-15.07,17.7h44.48Z" transform="translate(0 0.11)"/><g class="cls-3"><path class="cls-3" d="M166.64,89.26a22.78,22.78,0,0,0-8-1.42q-11.67,0-13.09,14A11.08,11.08,0,0,1,154.1,98a14.83,14.83,0,0,1,9.45,3q4.88,3.9,4.88,11.74,0,7.41-3.93,11.61t-11,4.21q-14.78,0-14.77-21.87,0-11.43,4.51-17.8,5.31-7.35,15.94-7.35a30,30,0,0,1,7.91,1.18Zm-12.54,15a8.51,8.51,0,0,0-6.28,2.31,8.26,8.26,0,0,0-2.31,6.09,10.68,10.68,0,0,0,2.1,6.73,7.15,7.15,0,0,0,6,3,7.62,7.62,0,0,0,6.18-2.66,9.43,9.43,0,0,0,2.22-6.55Q162,104.28,154.1,104.28Z" transform="translate(0 0.11)"/><path class="cls-3" d="M197,80.74l-17.86,51.89h-6.48l17.85-51.89Z" transform="translate(0 0.11)"/><path class="cls-3" d="M218.16,128.18h-6.68V90.68l-5.8,4.88-3.89-4.26,10.81-9.2h5.56Z" transform="translate(0 0.11)"/><path class="cls-3" d="M247.38,81.73q8.4,0,12.23,7.9,2.89,6,2.9,15.45,0,23.36-15.13,23.35t-15.14-23.35q0-9.57,2.84-15.45Q238.92,81.72,247.38,81.73Zm0,6.36q-5.32,0-7.29,6-1.18,3.58-1.18,10.94T240.09,116q1.91,6.12,7.29,6.12t7.29-6.12q1.17-3.58,1.17-10.93t-1.17-10.94Q252.69,88.1,247.38,88.09Z" transform="translate(0 0.11)"/><path class="cls-3" d="M319.22,104.71q-3.64,5.55-8.65,5.56-2.65,0-7.47-2.23c-3.71-1.68-6-2.53-6.92-2.53q-2,0-5.31,4.76l-3.09-4.14a20.13,20.13,0,0,1,1.7-2.44,15.89,15.89,0,0,1,1.57-1.7,8.2,8.2,0,0,1,5.19-1.79,19.87,19.87,0,0,1,7.78,2.22q5.33,2.47,6.61,2.47,2.47,0,5.44-4.69Z" transform="translate(0 0.11)"/><path class="cls-3" d="M373,89.26a22.73,22.73,0,0,0-8-1.42q-11.69,0-13.1,14A11.09,11.09,0,0,1,360.49,98a14.81,14.81,0,0,1,9.45,3q4.88,3.9,4.88,11.74,0,7.41-3.92,11.61t-11,4.21q-14.76,0-14.76-21.87,0-11.43,4.51-17.8,5.31-7.35,15.93-7.35a30,30,0,0,1,7.91,1.18Zm-12.54,15a8.47,8.47,0,0,0-6.27,2.31,8.23,8.23,0,0,0-2.32,6.09,10.68,10.68,0,0,0,2.1,6.73,7.15,7.15,0,0,0,6,3,7.62,7.62,0,0,0,6.18-2.66,9.44,9.44,0,0,0,2.23-6.55Q368.4,104.28,360.49,104.28Z" transform="translate(0 0.11)"/><path class="cls-3" d="M403.36,80.74l-17.85,51.89H379l17.85-51.89Z" transform="translate(0 0.11)"/><path class="cls-3" d="M424.55,128.18h-6.67V90.68l-5.81,4.88-3.89-4.26L419,82.1h5.56Z" transform="translate(0 0.11)"/><path class="cls-3" d="M467,89.26a22.73,22.73,0,0,0-8-1.42q-11.68,0-13.1,14A11.09,11.09,0,0,1,454.45,98a14.81,14.81,0,0,1,9.45,3q4.88,3.9,4.88,11.74,0,7.41-3.92,11.61t-11,4.21q-14.76,0-14.76-21.87,0-11.43,4.51-17.8,5.31-7.35,15.93-7.35a30,30,0,0,1,7.91,1.18Zm-12.54,15a8.47,8.47,0,0,0-6.27,2.31,8.23,8.23,0,0,0-2.32,6.09,10.68,10.68,0,0,0,2.1,6.73,7.15,7.15,0,0,0,6,3,7.62,7.62,0,0,0,6.18-2.66,9.43,9.43,0,0,0,2.22-6.55Q462.35,104.28,454.45,104.28Z" transform="translate(0 0.11)"/></g></svg>