<svg id="Layer_1" data-name="Layer 1" xmlns="http://www.w3.org/2000/svg" viewBox="0 0 1921 191.88"><defs><style>.cls-1{fill:#35495e;stroke:#231f20;stroke-miterlimit:10;}.cls-2{fill:#fff;}</style></defs><title>podcast</title><rect class="cls-1" x="0.5" y="0.5" width="1920" height="190.88" rx="12.36" ry="12.36"/><path class="cls-2" d="M659.08,51.18l-9.48,17.7h22.52V85.34H638.27v8.08h48.61v17.24H566.51V93.42h50V85.34H579.25V68.88h21.9L590,51.18h20.19L620.56,68.1H631.9L639,51.18ZM579.25,29.74h92.87V46.52H579.25ZM619.94,118h19.41q2.49,5,6.22,11t7.92,11.88q4.18,5.91,8.23,11.26t7,9.09H646.19q-2.34-3.1-5.21-7.07t-5.51-7.53q-3-4.2-5.9-8.54l-17.71,23.14H588.1q7.14-8.38,13-16.23t10-13.75Q616.05,124.17,619.94,118Z" transform="translate(0.5 0.5)"/><path class="cls-2" d="M696.2,41.08h60.88V56.92A64.63,64.63,0,0,1,754.21,76a96.81,96.81,0,0,1-7.54,17.87A112.34,112.34,0,0,1,736,110a160.84,160.84,0,0,1-12.12,13.67,126.49,126.49,0,0,1-12,10.64,82.81,82.81,0,0,1-10.33,7V116.87a68.76,68.76,0,0,0,13.2-12.58q5.76-7.14,10.26-13.51H696.51v-16h35.72a57.5,57.5,0,0,0,1.48-7.22,77.1,77.1,0,0,0,.85-8.46H696.2Zm102.19-9.32h18.33V159.58H798.39V92H786v67.56h-19.1V31.76H786V73.85h12.42Z" transform="translate(0.5 0.5)"/><path class="cls-2" d="M944.24,145.45H826V127h118.2ZM896.87,38.75q.76,6.06,4.73,15.06t9.48,18.88q5.5,9.86,11.88,19.57t12.11,17.16H910.53A157,157,0,0,1,897.1,90.08q-5.67-9.7-11.11-19.65-4.5,9.79-10.64,20.27a149.94,149.94,0,0,1-12.81,18.72H833.65A114.07,114.07,0,0,0,850,89.69,198.19,198.19,0,0,0,861.84,69a146.37,146.37,0,0,0,7.61-18.1,67.75,67.75,0,0,0,3.19-12.19Z" transform="translate(0.5 0.5)"/><path class="cls-2" d="M953.55,147.31V128.37h117.27v18.94ZM968.31,35.49V53h85.27V35.49Zm19.41,46.59h65.86V64.53H968.31v48.31h87V95.28H987.72Z" transform="translate(0.5 0.5)"/><path class="cls-2" d="M1240.42,101.65H1119.58v-16h120.84Zm-14.91-55.13h-72.22V61.43h72.22V76h-92.88V30.52h92.88Zm.93,83.24H1158V145.3h68.49V161h-90.39v-46.9h90.39Z" transform="translate(0.5 0.5)"/><path class="cls-2" d="M1317,42V57.39a63,63,0,0,1-3.73,16.15,96.52,96.52,0,0,1-7.3,15.3,130.29,130.29,0,0,1-9.63,14.13q-5.28,6.77-10.71,12.51A234,234,0,0,1,1257,140.79V114.85A129.12,129.12,0,0,0,1271.72,101a129.54,129.54,0,0,0,11.41-14.44,98.63,98.63,0,0,0,7.77-13.52,50.07,50.07,0,0,0,3.88-11.18h-45V42Zm36.5-10.09H1333V161h20.5Z" transform="translate(0.5 0.5)"/></svg>