<svg xmlns="http://www.w3.org/2000/svg" xmlns:xlink="http://www.w3.org/1999/xlink" viewBox="0 0 1500 346.38"><defs><style>.cls-1{fill:url(#linear-gradient);}.cls-2{font-size:76.04px;}.cls-11,.cls-2{fill:#231f20;}.cls-11,.cls-2,.cls-3{font-family:BMHANNA, BM HANNA_TTF;}.cls-11,.cls-3{font-size:119px;}.cls-3{fill:#ed2124;stroke:#fff7c0;stroke-miterlimit:10;stroke-width:3px;}.cls-4{fill:#fac411;}.cls-5{fill:#e21f26;}.cls-6{fill:#c32026;}.cls-7{fill:#e4e8ec;}.cls-8{fill:#d5d8da;}.cls-9{fill:#a2daf3;}.cls-10{fill:#010101;}</style><linearGradient id="linear-gradient" x1="750" y1="27.76" x2="750" y2="466.09" gradientUnits="userSpaceOnUse"><stop offset="0" stop-color="#59bbc7"/><stop offset="0.32" stop-color="#45a7c7" stop-opacity="0.63"/><stop offset="0.65" stop-color="#3494c6" stop-opacity="0.29"/><stop offset="0.88" stop-color="#2888c6" stop-opacity="0.08"/><stop offset="1" stop-color="#2484c6" stop-opacity="0"/></linearGradient></defs><title>bestenglish</title><g id="Layer_2" data-name="Layer 2"><rect class="cls-1" width="1500" height="346.38"/></g><g id="Layer_1" data-name="Layer 1"><text class="cls-2" transform="translate(240.6 101.73)">수없이 많은 베타 테스팅을 통해 만든</text><text class="cls-3" transform="translate(36.8 262.44)">효과만점 돌직구</text><path class="cls-4" d="M832.26,251.18c1.1,4.63,1.91,12.43-2.55,19.64l-3.07-5.75s-1.73,8.62-5.73,14.56c-4-6-5.73-14.56-5.73-14.56l-3.07,5.75c-4.46-7.21-3.65-15-2.55-19.64l9.65-14.78Z" transform="translate(0 0.83)"/><path class="cls-5" d="M863.29,243.61a23.83,23.83,0,0,1-22.59,23.8,9.37,9.37,0,0,0-.19-11.83,15.34,15.34,0,0,0-6.31-4.4H807.62a15.34,15.34,0,0,0-6.31,4.4,9.37,9.37,0,0,0-.19,11.83,23.84,23.84,0,0,1-5-46.8h49.6a23.88,23.88,0,0,1,17.58,23Z" transform="translate(0 0.83)"/><path class="cls-6" d="M854.32,225a76.56,76.56,0,0,1-13.81,30.6,15.26,15.26,0,0,0-6.31-4.41H807.62a15.26,15.26,0,0,0-6.31,4.41A76.56,76.56,0,0,1,787.5,225a23.89,23.89,0,0,1,8.61-4.38h49.6A23.81,23.81,0,0,1,854.32,225Z" transform="translate(0 0.83)"/><path class="cls-7" d="M834.2,251.18a82.8,82.8,0,0,0-13.29-104,82.8,82.8,0,0,0-13.29,104Z" transform="translate(0 0.83)"/><path class="cls-8" d="M808.48,207.29a154.1,154.1,0,0,0,6,43.89h-6.91a82.8,82.8,0,0,1,13.29-104C813.26,162.27,808.48,183.62,808.48,207.29Z" transform="translate(0 0.83)"/><path class="cls-5" d="M839,172.16a75.06,75.06,0,0,1-18.06,2.15,78.45,78.45,0,0,1-9-.52,70.46,70.46,0,0,1-9-1.63,82.9,82.9,0,0,1,18-24.88l.1-.1h0A82.72,82.72,0,0,1,839,172.16Z" transform="translate(0 0.83)"/><path class="cls-5" d="M868.57,199.39h0" transform="translate(0 0.83)"/><path class="cls-6" d="M820.91,147.18h0a109.92,109.92,0,0,0-9,26.61,70.46,70.46,0,0,1-9-1.63,82.9,82.9,0,0,1,18-24.88Z" transform="translate(0 0.83)"/><circle class="cls-5" cx="820.91" cy="200" r="15.46"/><circle class="cls-9" cx="820.91" cy="200" r="10.41"/><path class="cls-10" d="M822,146a1.61,1.61,0,0,0-2.22,0A84.71,84.71,0,0,0,798,179.89a1.61,1.61,0,0,0,1,2.05h0a1.6,1.6,0,0,0,2-1q1.22-3.51,2.74-6.9a78.76,78.76,0,0,0,34.3,0l.29.63a81.37,81.37,0,0,1-5,74.91h-24.8a81.44,81.44,0,0,1-9.62-61.29,1.62,1.62,0,0,0-1.16-1.94h0a1.62,1.62,0,0,0-2,1.18,85,85,0,0,0-1.45,32A25.44,25.44,0,0,0,801,269a1.62,1.62,0,0,0,1.22-.47,1.59,1.59,0,0,0,.4-.66,1.67,1.67,0,0,0-.31-1.52,7.73,7.73,0,0,1-1.39-6.65c.73-2.82,3-5.14,6.6-6.76a26.48,26.48,0,0,0,3.16,18.68,1.63,1.63,0,0,0,1.07.76,1.6,1.6,0,0,0,1.74-.82l1.12-2.1a41.79,41.79,0,0,0,4.91,11,1.59,1.59,0,0,0,.85.66,1.61,1.61,0,0,0,1.83-.63,42.15,42.15,0,0,0,4.93-11.06l1.1,2.07a1.71,1.71,0,0,0,1.06.85,1.62,1.62,0,0,0,1.52-.43,1.28,1.28,0,0,0,.23-.29c4-6.5,4.09-13.45,3.19-18.71,3.59,1.62,5.86,3.94,6.59,6.76a7.75,7.75,0,0,1-1.39,6.66,1.66,1.66,0,0,0-.34,1.39,1.61,1.61,0,0,0,1.65,1.25,25.42,25.42,0,0,0,24.12-25.41c0-.86,0-1.73-.13-2.59a1.62,1.62,0,0,0-1.88-1.43h0a1.61,1.61,0,0,0-1.33,1.76,21.39,21.39,0,0,1,.12,2.26,22.21,22.21,0,0,1-18,21.83,10.89,10.89,0,0,0,.34-6.52c-.65-2.53-2.49-5.93-7.46-8.45A84.12,84.12,0,0,0,847,222.7a22.19,22.19,0,0,1,12.92,12.19,1.62,1.62,0,0,0,2,.9h0a1.61,1.61,0,0,0,1-2.14,25.38,25.38,0,0,0-15.36-14.17,85.33,85.33,0,0,0,.88-12.19A84.21,84.21,0,0,0,822,146ZM797.84,258.92a10.89,10.89,0,0,0,.34,6.52,22.23,22.23,0,0,1-3.34-42.74,83.9,83.9,0,0,0,10.46,27.77C800.33,253,798.49,256.39,797.84,258.92Zm31.86,8.47-1.64-3.07a1.6,1.6,0,0,0-3,.44,50,50,0,0,1-4.16,11.74,50,50,0,0,1-4.16-11.74,1.6,1.6,0,0,0-3-.44l-1.64,3.07a24.53,24.53,0,0,1-1.26-14.6H831A24.53,24.53,0,0,1,829.7,267.39Zm6.95-96.34a75.9,75.9,0,0,1-31.48,0,82,82,0,0,1,15.74-21.64A80.83,80.83,0,0,1,836.65,171.05Z" transform="translate(0 0.83)"/><path class="cls-10" d="M820.91,216.24a17.07,17.07,0,1,0-17.07-17.07A17,17,0,0,0,820.91,216.24Zm-13.85-17.07A13.85,13.85,0,1,1,820.91,213,13.74,13.74,0,0,1,807.06,199.17Z" transform="translate(0 0.83)"/><path class="cls-10" d="M820.91,211.19a12,12,0,1,0-12-12A12,12,0,0,0,820.91,211.19Zm-8.8-12a8.8,8.8,0,1,1,8.8,8.8A8.81,8.81,0,0,1,812.11,199.17Z" transform="translate(0 0.83)"/><text class="cls-11" transform="translate(893.15 262.44)">영어프로그램</text></g></svg>