<svg xmlns="http://www.w3.org/2000/svg" viewBox="0 0 1766.89 15820.26"><defs><style>.cls-1{fill:#59bbc7;}.cls-2{fill:#fff;}.cls-3{fill:#231f20;}.cls-4{fill:#22313f;}.cls-5{fill:#2c3e50;}</style></defs><title>pricefinal</title><g id="Layer_3" data-name="Layer 3"><rect class="cls-1" y="1863.95" width="1752.65" height="1752.65" rx="12" ry="12"/><path class="cls-2" d="M874,2798.31a25.14,25.14,0,0,1,1.9-9.9,23.46,23.46,0,0,1,5.3-7.8,25.1,25.1,0,0,1,34.9,0,24,24,0,0,1,5.35,7.8,24.64,24.64,0,0,1,2,9.9,25,25,0,0,1-2,10,23.95,23.95,0,0,1-13.2,12.95,25.24,25.24,0,0,1-9.55,1.8,25.61,25.61,0,0,1-9.6-1.8,24.08,24.08,0,0,1-7.9-5.1,23.36,23.36,0,0,1-5.3-7.85A25.53,25.53,0,0,1,874,2798.31Zm10.9,0a17.47,17.47,0,0,0,1,6.25,14.72,14.72,0,0,0,2.9,4.75,12.39,12.39,0,0,0,4.35,3.05,14.08,14.08,0,0,0,5.5,1,13.9,13.9,0,0,0,5.35-1,12.31,12.31,0,0,0,4.4-3.05,15.37,15.37,0,0,0,3-4.75,18.16,18.16,0,0,0,0-12.45,15.05,15.05,0,0,0-3-4.8,12.19,12.19,0,0,0-4.4-3,13.9,13.9,0,0,0-5.35-1.05,14.08,14.08,0,0,0-5.5,1.05,12.26,12.26,0,0,0-4.35,3,14.43,14.43,0,0,0-2.9,4.8A17.5,17.5,0,0,0,884.94,2798.31Zm51.6-31h10.8v87.5h-10.8Z" transform="translate(-64.18 -138.44)"/><path class="cls-2" d="M1023.94,2851.61h-10.4v-48H1003v25.5h-35.3v-55.7H1003v20.9h10.5v-25.5h10.4Zm-31.6-69.1h-13.8V2820h13.8Zm49.7,72.3h-10.4v-87.5H1042Z" transform="translate(-64.18 -138.44)"/><path class="cls-2" d="M1058,2790.31a19.61,19.61,0,0,1,1.85-8.5,21.52,21.52,0,0,1,5-6.8,26.22,26.22,0,0,1,7.55-4.45,26.89,26.89,0,0,1,18.55,0,26,26,0,0,1,7.6,4.45,22.3,22.3,0,0,1,5.1,6.8,20.3,20.3,0,0,1,0,17.15,22.71,22.71,0,0,1-5.1,6.75,25.4,25.4,0,0,1-7.6,4.4,27.68,27.68,0,0,1-18.55,0,25.64,25.64,0,0,1-7.55-4.4,21.9,21.9,0,0,1-5-6.75A19.78,19.78,0,0,1,1058,2790.31Zm10.9,0a12.37,12.37,0,0,0,1,5,11.89,11.89,0,0,0,2.75,4,13.15,13.15,0,0,0,4.1,2.6,13.42,13.42,0,0,0,5,.95,13,13,0,0,0,9.1-3.5,11.9,11.9,0,0,0,3.8-9,11.58,11.58,0,0,0-3.8-8.9,12.77,12.77,0,0,0-9.1-3.6,13.23,13.23,0,0,0-5,1,13,13,0,0,0-4.1,2.6,11.79,11.79,0,0,0-2.75,3.95A12.34,12.34,0,0,0,1068.94,2790.31Zm9.5,68.7v-24.8h42.1v-6.9h-42.1v-8.9h52.9v24.4h-42.2v7.2h44.4v9Zm42.1-91.7h10.8v46.9h-10.8Z" transform="translate(-64.18 -138.44)"/><path class="cls-2" d="M1201.44,2793.41q12.4,0,19.3,8.9,6.19,7.89,6.2,19.6t-6.2,19.6q-6.9,8.89-19.3,8.9t-19.4-8.9q-6.11-7.71-6.1-19.6t6.1-19.6Q1188.94,2793.4,1201.44,2793.41Zm0,9.4a12.75,12.75,0,0,0-10.8,5.4q-3.8,5.29-3.8,13.7t3.8,13.7a12.75,12.75,0,0,0,10.8,5.4,12.49,12.49,0,0,0,10.7-5.4q3.9-5.21,3.9-13.7t-3.9-13.7A12.49,12.49,0,0,0,1201.44,2802.81Z" transform="translate(-64.18 -138.44)"/><path class="cls-2" d="M1265.84,2804.51c-.87-.14-1.67-.25-2.4-.35a16.26,16.26,0,0,0-2.2-.15q-5.81,0-8.6,5.7a26.56,26.56,0,0,0-2.6,12.4v27.1h-10.7V2808q0-3.81-.15-7.15t-.35-6.25h10.8v6.7q4.6-7.91,11.7-7.9a17.87,17.87,0,0,1,4.5.6Z" transform="translate(-64.18 -138.44)"/><path class="cls-2" d="M1300.84,2825.61a77.69,77.69,0,0,0,18.2-9.3,45.39,45.39,0,0,0,12.3-12.9l-27.3,2.5-2.1-9.9,33.7-2.1a52.29,52.29,0,0,0,2.1-11.2h-31.5v-9.3h43.1a72.31,72.31,0,0,1-2.5,21.8,52,52,0,0,1-8.5,17.2,57.9,57.9,0,0,1-13.55,13,78.6,78.6,0,0,1-17.75,9Zm72-58.3v28.3h14.8v9.2h-14.8v50H1362v-87.5Z" transform="translate(-64.18 -138.44)"/><path class="cls-2" d="M1392.84,2825.61a77.69,77.69,0,0,0,18.2-9.3,45.39,45.39,0,0,0,12.3-12.9l-27.3,2.5-2.1-9.9,33.7-2.1a52.29,52.29,0,0,0,2.1-11.2h-31.5v-9.3h43.1a72.31,72.31,0,0,1-2.5,21.8,52,52,0,0,1-8.5,17.2,57.9,57.9,0,0,1-13.55,13,78.6,78.6,0,0,1-17.75,9Zm72-58.3v28.3h14.8v9.2h-14.8v50H1454v-87.5Z" transform="translate(-64.18 -138.44)"/><path class="cls-2" d="M1483.64,2845.21v-9h36.5v-17.9a27.28,27.28,0,0,1-13.8-6.6,23.58,23.58,0,0,1-5.5-26.75,23.36,23.36,0,0,1,5.6-7.75,27.46,27.46,0,0,1,8.5-5.1,29.83,29.83,0,0,1,10.9-1.9,29.32,29.32,0,0,1,10.7,1.9,27.57,27.57,0,0,1,8.5,5.1,24.88,24.88,0,0,1,5.55,7.75,22.63,22.63,0,0,1,2.05,9.55,23.2,23.2,0,0,1-2,9.5,23.73,23.73,0,0,1-5.45,7.7,26.15,26.15,0,0,1-14.2,6.6v17.9h36.6v9Zm57.2-50.7a14.61,14.61,0,0,0-4-10.3q-4.11-4.41-11-4.4a14.53,14.53,0,0,0-15.2,14.7,14,14,0,0,0,4.1,10.3,14.51,14.51,0,0,0,4.8,3.15,16.53,16.53,0,0,0,6.3,1.15q6.9,0,11-4.4A14.51,14.51,0,0,0,1540.84,2794.51Z" transform="translate(-64.18 -138.44)"/><path class="cls-2" d="M1575.64,2824.21v-9h36.6v-7.8h-22.6v-37.6h55.8v8.7H1600v5.9h44.9v8.3H1600v6h46.3v8.7h-23.2v7.8h36.5v9Zm12.8,6.7h57v27.2h-10.8v-18h-46.2Z" transform="translate(-64.18 -138.44)"/><path class="cls-2" d="M1246.24,2959.91v-16.5h-38.6v-9h84v9h-34.5v16.5Zm33.6,17.8H1221v-25.4h10.8v16.3h48Zm-58.2-51.7v-34.8h55.9V2926Zm45.2-25.7h-34.4v16.6h34.4Z" transform="translate(-64.18 -138.44)"/><path class="cls-2" d="M1300.74,2945.71c2.2,0,4.58,0,7.15-.1s5.21-.15,7.95-.25l8.35-.3q4.24-.15,8.35-.35,8.19-.51,15.7-1.05t12.3-1.25l1,8.9-5.7.65q-3.21.35-6.85.65t-7.65.55c-2.67.16-5.34.35-8,.55s-5.5.36-8.3.5-5.57.25-8.3.35-5.4.18-8,.25-5,.1-7.3.1Zm5.5-33a20.27,20.27,0,0,1,1.85-8.75,21.14,21.14,0,0,1,5.05-6.85,22.77,22.77,0,0,1,7.45-4.65,25.92,25.92,0,0,1,18.2,0,23,23,0,0,1,7.45,4.65,22,22,0,0,1,5.1,6.85,20,20,0,0,1,1.9,8.75,20.35,20.35,0,0,1-1.9,8.8,22.13,22.13,0,0,1-5.1,6.9,24,24,0,0,1-7.45,4.55,25.92,25.92,0,0,1-18.2,0,23.75,23.75,0,0,1-7.45-4.55,21.23,21.23,0,0,1-5.05-6.9A20.62,20.62,0,0,1,1306.24,2912.71Zm10.9,0a13.79,13.79,0,0,0,.95,5.25,12,12,0,0,0,2.65,4.05,12.2,12.2,0,0,0,4,2.65,13,13,0,0,0,5,1,12.47,12.47,0,0,0,12.6-12.9,12.63,12.63,0,0,0-12.6-12.8,12.83,12.83,0,0,0-5,1,11.59,11.59,0,0,0-4,2.7,12.33,12.33,0,0,0-2.65,4.1A13.19,13.19,0,0,0,1317.14,2912.71Zm48.3-25.4h10.8v87.5h-10.8Z" transform="translate(-64.18 -138.44)"/><path class="cls-2" d="M1428.34,2976.91v-28.7h-36.6v-9h84v9h-36.5v28.7Zm5.7-60.9a37.82,37.82,0,0,1-11.45,10.4,59.27,59.27,0,0,1-17.55,7.1l-5-8.3a72.75,72.75,0,0,0,9.9-3.3,53.71,53.71,0,0,0,9-4.8,26.45,26.45,0,0,0,6.55-6.45,14.4,14.4,0,0,0,2.55-8.45v-.1h-23.7v-9.4h59v9.4H1440v.1a14.58,14.58,0,0,0,2.5,8.45,25.4,25.4,0,0,0,6.5,6.45,45.31,45.31,0,0,0,9,4.8,79.74,79.74,0,0,0,10,3.3l-5,8.3a59.7,59.7,0,0,1-17.6-7.1A36.33,36.33,0,0,1,1434,2916Z" transform="translate(-64.18 -138.44)"/><path class="cls-2" d="M1522.74,2953.41a52.14,52.14,0,0,1-9.7-9.65,41.58,41.58,0,0,1-6.2-10.85,47.59,47.59,0,0,1-6.65,11.8,56.14,56.14,0,0,1-10.65,10.8l-7.6-7.3a60.9,60.9,0,0,0,8.1-7.55,42.05,42.05,0,0,0,6.1-9,47.92,47.92,0,0,0,3.85-10.8,57.67,57.67,0,0,0,1.35-13v-16h10.9v15.6q0,13.5,5,22.95a45.13,45.13,0,0,0,13.25,15.45Zm22.1,18.2h-10.4V2923h-12.7v-9.4h12.7v-24.8h10.4Zm18.1,3.2h-10.4v-87.5h10.4Z" transform="translate(-64.18 -138.44)"/><path class="cls-2" d="M1575.64,2965.11v-9h23.5v-20.3h5.2a26,26,0,0,1-3.2-1.8,18.61,18.61,0,0,1-2.8-2.3,23.58,23.58,0,0,1-5.5-26.75,23.36,23.36,0,0,1,5.6-7.75,27.46,27.46,0,0,1,8.5-5.1,29.83,29.83,0,0,1,10.9-1.9,29.32,29.32,0,0,1,10.7,1.9,27.57,27.57,0,0,1,8.5,5.1,24.88,24.88,0,0,1,5.55,7.75,22.63,22.63,0,0,1,2.05,9.55,23.2,23.2,0,0,1-2,9.5,23.73,23.73,0,0,1-5.45,7.7,22.94,22.94,0,0,1-6.1,4.1h6.2v20.3h22.3v9Zm57.2-50.6a14.61,14.61,0,0,0-4-10.3q-4.11-4.41-11-4.4a14.53,14.53,0,0,0-15.2,14.7,14,14,0,0,0,4.1,10.3,14.51,14.51,0,0,0,4.8,3.15,16.53,16.53,0,0,0,6.3,1.15q6.9,0,11-4.4A14.51,14.51,0,0,0,1632.84,2914.51Zm-15,24.2a32.1,32.1,0,0,1-7.8-.9v18.3h16.4v-18.5A34,34,0,0,1,1617.84,2938.71Z" transform="translate(-64.18 -138.44)"/><rect class="cls-1" x="9.5" y="5591.84" width="1752.65" height="1752.65" rx="12" ry="12"/><path class="cls-2" d="M1278.34,6519.5h-10.4v-48h-10.3v26.3h-35.5v-57.2h10.8v20.8h14v-20.8h10.7v21.6h10.3v-25.5h10.4Zm-31.4-30.8v-18.1h-14v18.1Zm49.5,34H1286v-87.5h10.4Z" transform="translate(-64.18 -138.44)"/><path class="cls-2" d="M1386.94,6435.2v87.5h-10.8v-52.3h-14.7a23.52,23.52,0,0,1-2.4,7.55,23.22,23.22,0,0,1-4.5,6.05,24.28,24.28,0,0,1-7.85,5.1,25.24,25.24,0,0,1-9.55,1.8,25.61,25.61,0,0,1-9.6-1.8,24,24,0,0,1-7.9-5.1,23.22,23.22,0,0,1-5.3-7.85,25.49,25.49,0,0,1-1.9-9.95,25.14,25.14,0,0,1,1.9-9.9,23.31,23.31,0,0,1,5.3-7.8,24.76,24.76,0,0,1,7.9-5.15,25.06,25.06,0,0,1,9.6-1.85,24.7,24.7,0,0,1,9.55,1.85,25.1,25.1,0,0,1,7.85,5.15,26.23,26.23,0,0,1,4.35,5.75,23,23,0,0,1,2.45,6.95h14.8v-26Zm-63.6,31a17.39,17.39,0,0,0,1.05,6.25,14.34,14.34,0,0,0,2.9,4.75,12.26,12.26,0,0,0,4.35,3.05,14.54,14.54,0,0,0,10.85,0,12.27,12.27,0,0,0,4.4-3.05,15.33,15.33,0,0,0,2.95-4.75,18.16,18.16,0,0,0,0-12.45,15.46,15.46,0,0,0-2.95-4.8,12.4,12.4,0,0,0-4.4-3.05,14.54,14.54,0,0,0-10.85,0,12.39,12.39,0,0,0-4.35,3.05,14.47,14.47,0,0,0-2.9,4.8A17.54,17.54,0,0,0,1323.34,6466.2Z" transform="translate(-64.18 -138.44)"/><path class="cls-2" d="M1406.74,6456.2h29v-8.7h-29v-9.2h39.5v27.1h-28.7v9.2q10.59.1,21.35-.7a201,201,0,0,0,20.75-2.6l1.3,8.9a203.22,203.22,0,0,1-24.25,2.9q-13.65.9-30,.7Zm68.3,52.3q0,7.8-6.6,13.2-6.4,5.51-17.8,5.5t-17.9-5.5q-6.51-5.4-6.5-13.2t6.5-13.2q6.39-5.49,17.9-5.5t17.8,5.5Q1475,6500.7,1475,6508.5Zm-10.9,0a7.61,7.61,0,0,0-1.05-3.9,9.62,9.62,0,0,0-2.85-3.05,15.33,15.33,0,0,0-4.25-2,19.46,19.46,0,0,0-10.7,0,15.2,15.2,0,0,0-4.25,2,9.62,9.62,0,0,0-2.85,3.05,7.77,7.77,0,0,0,0,7.8,10.1,10.1,0,0,0,2.85,3.1,13.47,13.47,0,0,0,4.25,2,19.24,19.24,0,0,0,5.35.7,19.5,19.5,0,0,0,5.3-.7,13.55,13.55,0,0,0,4.3-2,10.1,10.1,0,0,0,2.85-3.1A7.61,7.61,0,0,0,1464.14,6508.5Zm2.8-73.3h10.8V6488h-10.8Z" transform="translate(-64.18 -138.44)"/><path class="cls-2" d="M1493.14,6512.6v-9h31.2v-30.8h10.9v30.8h41.9v9Zm55.2-23.2a185.19,185.19,0,0,0,3.4-20q1.2-10.39,1.4-20H1505v-9.2h59.3q-.1,6.71-.5,13.65t-1.1,13.65q-.81,6.7-1.75,12.8t-2.15,11.2Z" transform="translate(-64.18 -138.44)"/><path class="cls-2" d="M1585.14,6491.4v-9h84v9Zm72.2,34.2h-58.8v-25.4h10.8v16.3h48Zm-.9-53.6h-57.3v-33.4h11v24.3h46.3Z" transform="translate(-64.18 -138.44)"/><path class="cls-2" d="M1243.64,6620.5h-10.2v16.6h-10.7v-16.6h-33v-9.4l31.8-48.6h11.9v48h10.2Zm-20.9-10v-33.2l-21.2,33.2Z" transform="translate(-64.18 -138.44)"/><path class="cls-2" d="M1287.64,6644.8v-28.7H1251v-9h84v9h-36.5v28.7Zm5.7-60.9a37.69,37.69,0,0,1-11.45,10.4,59.16,59.16,0,0,1-17.55,7.1l-5-8.3a70.09,70.09,0,0,0,9.9-3.3,52.3,52.3,0,0,0,9-4.8,25.94,25.94,0,0,0,6.55-6.45,14.38,14.38,0,0,0,2.55-8.45v-.1h-23.7v-9.4h59v9.4h-23.3v.1a14.56,14.56,0,0,0,2.5,8.45,25.08,25.08,0,0,0,6.5,6.45,44.29,44.29,0,0,0,9,4.8,76.64,76.64,0,0,0,10,3.3l-5,8.3a59.81,59.81,0,0,1-17.6-7.1A36.21,36.21,0,0,1,1293.34,6583.9Z" transform="translate(-64.18 -138.44)"/><path class="cls-2" d="M1440,6636h-14.3l-6.7-7.1q-8.51,8.51-21.2,8.5-10.1,0-16.8-5-7.5-5.7-7.5-16.4,0-14.3,15-21.4-7.69-9.19-7.7-16.8a15,15,0,0,1,6.8-13,23.77,23.77,0,0,1,13.9-4.1,20.63,20.63,0,0,1,12.5,3.8q5.81,4.5,5.8,12.5a17.61,17.61,0,0,1-4.6,12.4q-3.2,3.6-10.7,7.6l14.5,16.4q4.1-7.39,4.1-18.2h10.1a53.75,53.75,0,0,1-2.1,13.7,38.88,38.88,0,0,1-5.1,11.6Zm-45.2-34.2q-10.39,5-10.4,13.6a10.94,10.94,0,0,0,4.1,9,14.65,14.65,0,0,0,9.8,3.3,19.53,19.53,0,0,0,14.3-6Zm3.3-11.7a31.44,31.44,0,0,0,7.2-4.3,9.87,9.87,0,0,0,3.5-7.5q0-8-7.7-8a10.21,10.21,0,0,0-6.65,2.15,7.14,7.14,0,0,0-2.65,5.85Q1391.84,6583.4,1398.14,6590.1Z" transform="translate(-64.18 -138.44)"/><path class="cls-2" d="M1503.94,6637.1h-10.8v-60.7l-9.4,7.9-6.3-6.9,17.5-14.9h9Z" transform="translate(-64.18 -138.44)"/><path class="cls-2" d="M1571.64,6637.1h-44.9l.1-8.9,16.4-18.5q15.9-18.09,15.9-27.9a9.77,9.77,0,0,0-3-7.4,10.42,10.42,0,0,0-7.45-2.8q-7.8,0-17.8,5.7L1529,6567q10.39-5.3,19.2-5.3,9.69,0,15.4,4.8,6.39,5.2,6.4,15.4,0,11.4-18.5,33.2l-10.3,12.1h30.4Z" transform="translate(-64.18 -138.44)"/><path class="cls-2" d="M1621.84,6644.8v-28.7h-36.6v-9h84v9h-36.5v28.7Zm5.7-60.9a37.69,37.69,0,0,1-11.45,10.4,59.27,59.27,0,0,1-17.55,7.1l-5-8.3a70.09,70.09,0,0,0,9.9-3.3,52.3,52.3,0,0,0,9-4.8,26.11,26.11,0,0,0,6.55-6.45,14.38,14.38,0,0,0,2.55-8.45v-.1h-23.7v-9.4h59v9.4h-23.3v.1a14.56,14.56,0,0,0,2.5,8.45,25.08,25.08,0,0,0,6.5,6.45,44.29,44.29,0,0,0,9,4.8,76.64,76.64,0,0,0,10,3.3l-5,8.3a59.7,59.7,0,0,1-17.6-7.1A36.21,36.21,0,0,1,1627.54,6583.9Z" transform="translate(-64.18 -138.44)"/><path class="cls-2" d="M949.84,6763.9v-36.2h-36.6v-9h56.7a176.7,176.7,0,0,0,3.3-29.3H925v-9.2h59.3q-.11,10.61-.9,20.45a166.83,166.83,0,0,1-2.4,18.05h16v9h-36.3v36.2Z" transform="translate(-64.18 -138.44)"/><path class="cls-2" d="M1005.14,6729.1v-9h36.6v-8.8h-22.9v-33.2h56.4v9h-45.7v15.2h47v9h-23.9v8.8h36.5v9Zm12.8,7.1h57V6766h-10.8v-20.6h-46.2Z" transform="translate(-64.18 -138.44)"/><path class="cls-2" d="M1139.14,6690.7h-14v5.8q0,12.7,4.6,21.9a43.32,43.32,0,0,0,13,15.5l-7.6,7a45.52,45.52,0,0,1-9.6-9.4,38.8,38.8,0,0,1-6.1-11.5,52.29,52.29,0,0,1-6,12.2,50.09,50.09,0,0,1-9.4,10.3l-7.7-6.6a44.94,44.94,0,0,0,12.9-16.35q4.5-9.65,4.5-22.85v-6h-14.4v-9.4h39.8Zm19.2,68.8h-10.4v-48.6h-12.7v-9.4h12.7v-24.8h10.4Zm18.1,3.2H1166v-87.5h10.4Z" transform="translate(-64.18 -138.44)"/><path class="cls-2" d="M1189.94,6732.6a65.79,65.79,0,0,0,25.2-17,46.63,46.63,0,0,0,11.9-24.3h-31.3v-9.5h43.1a62,62,0,0,1-3.25,20.7,57.86,57.86,0,0,1-8.95,16.5,63.33,63.33,0,0,1-12.85,12.45,91.93,91.93,0,0,1-16.85,9.65Zm72.4-57.4v28.3h14.8v9.2h-14.8v50h-10.8v-87.5Z" transform="translate(-64.18 -138.44)"/><path class="cls-2" d="M1312.44,6699.8a21.3,21.3,0,0,1,1.85-8.9,21.94,21.94,0,0,1,5-7.1,23.49,23.49,0,0,1,7.5-4.7,26.42,26.42,0,0,1,18.65,0,23.5,23.5,0,0,1,7.55,4.7,22.87,22.87,0,0,1,5.1,7.1,22,22,0,0,1,0,17.9,22.39,22.39,0,0,1-12.65,11.75,27.17,27.17,0,0,1-18.65,0,22.69,22.69,0,0,1-7.5-4.65,21.84,21.84,0,0,1-5-7.1A21.5,21.5,0,0,1,1312.44,6699.8Zm46.3,67.6a63.11,63.11,0,0,1-8.65-6.25,29.62,29.62,0,0,1-7-9.25,36.14,36.14,0,0,1-5.9,8.4,41.37,41.37,0,0,1-9.4,7.1l-7.1-6.8a47.65,47.65,0,0,0,6.1-4.25,32.2,32.2,0,0,0,5.4-5.65,30.64,30.64,0,0,0,3.8-6.8,21.65,21.65,0,0,0,1.5-8.2V6730h10.8v5.4q0,7.71,3.4,12.7a30.32,30.32,0,0,0,7.1,7.8,26.85,26.85,0,0,0,7-7.65,21.08,21.08,0,0,0,3-11.45V6730h10.8v6.2a22.72,22.72,0,0,0,4.7,14.3,44.31,44.31,0,0,0,11.4,9.8l-7.2,6.7a43.6,43.6,0,0,1-8.4-6.75,30.48,30.48,0,0,1-5.7-8.25,31.84,31.84,0,0,1-6.9,9.15A54.82,54.82,0,0,1,1358.74,6767.4Zm-35.4-67.6a13.18,13.18,0,0,0,1,5.25,11.57,11.57,0,0,0,2.75,4,12.86,12.86,0,0,0,4.1,2.6,13.19,13.19,0,0,0,5,1,13,13,0,0,0,9.1-3.5,13.16,13.16,0,0,0,0-18.5,12.78,12.78,0,0,0-9.1-3.6,12.66,12.66,0,0,0-9.2,3.6A12.27,12.27,0,0,0,1323.34,6699.8Zm51.6-24.6h10.8V6727h-10.8Z" transform="translate(-64.18 -138.44)"/><path class="cls-2" d="M1401.14,6727.8v-9h84v9Zm42-32.3a27,27,0,0,1-4.65,5.3,56.39,56.39,0,0,1-7,5.5,69.75,69.75,0,0,1-8.45,4.6,70.72,70.72,0,0,1-9.65,3.6l-5.3-8.3a71.57,71.57,0,0,0,10.45-3.8,47.77,47.77,0,0,0,9.25-5.5,25.16,25.16,0,0,0,6.8-6.85,14.8,14.8,0,0,0,2.6-8.25v-5.6h12v5.6a15,15,0,0,0,2.55,8.25,24.41,24.41,0,0,0,6.75,6.85,47.48,47.48,0,0,0,9.25,5.5,69.54,69.54,0,0,0,10.55,3.8l-5.3,8.3a64.78,64.78,0,0,1-18.2-8.3,50,50,0,0,1-7-5.4A24,24,0,0,1,1443.14,6695.5Zm-27.9,73v-34.2h10.5v8.9h34.8v-8.9h10.4v34.2Zm45.3-8.7V6752h-34.8v7.8Z" transform="translate(-64.18 -138.44)"/><path class="cls-2" d="M1550.64,6733.6a109.57,109.57,0,0,1-11,1.65c-4.14.43-8.34.79-12.6,1.05s-8.94.55-13.6.65-9.1.09-13.3-.05v-56.1h10.8v46.8q3.9.1,9-.05t10-.55c3.4-.26,6.78-.6,10.15-1s6.45-.9,9.25-1.5Zm8.3-58.4h10.8v87.5h-10.8Z" transform="translate(-64.18 -138.44)"/><path class="cls-2" d="M1592.14,6681.3h42.1v9.2h-31.3v36.6q9.19,0,19.55-.75a181.15,181.15,0,0,0,19.65-2.45l1.2,9a213.88,213.88,0,0,1-24.25,2.9q-13.35.9-26.95.6Zm66.2-6.1v28.3h14.8v9.2h-14.8v50h-10.8v-87.5Z" transform="translate(-64.18 -138.44)"/><rect class="cls-1" x="14.25" y="12997.31" width="1752.65" height="1752.65" rx="12" ry="12"/><path class="cls-2" d="M1315.09,13899a77.69,77.69,0,0,0,18.2-9.3,45.26,45.26,0,0,0,12.3-12.9l-27.3,2.5-2.1-9.9,33.7-2.1a52.19,52.19,0,0,0,2.1-11.19h-31.5v-9.31h43.1a72.34,72.34,0,0,1-2.5,21.81,52,52,0,0,1-8.5,17.19,57.7,57.7,0,0,1-13.55,13,78.6,78.6,0,0,1-17.75,9Zm72-58.3v28.3h14.8v9.2h-14.8v50h-10.8v-87.5Z" transform="translate(-64.18 -138.44)"/><path class="cls-2" d="M1407.09,13899a77.69,77.69,0,0,0,18.2-9.3,45.26,45.26,0,0,0,12.3-12.9l-27.3,2.5-2.1-9.9,33.7-2.1a52.19,52.19,0,0,0,2.1-11.19h-31.5v-9.31h43.1a72.34,72.34,0,0,1-2.5,21.81,52,52,0,0,1-8.5,17.19,57.7,57.7,0,0,1-13.55,13,78.6,78.6,0,0,1-17.75,9Zm72-58.3v28.3h14.8v9.2h-14.8v50h-10.8v-87.5Z" transform="translate(-64.18 -138.44)"/><path class="cls-2" d="M1497.89,13918.57v-9h36.5v-17.91a27.35,27.35,0,0,1-13.8-6.59,23.41,23.41,0,0,1,.1-34.5,27.67,27.67,0,0,1,8.5-5.11,30,30,0,0,1,10.9-1.89,29.53,29.53,0,0,1,10.7,1.89,27.79,27.79,0,0,1,8.5,5.11,24.76,24.76,0,0,1,5.55,7.75,22.58,22.58,0,0,1,2.05,9.54,23.17,23.17,0,0,1-2,9.5,23.77,23.77,0,0,1-5.45,7.71,26.07,26.07,0,0,1-14.2,6.59v17.91h36.6v9Zm57.2-50.71a14.59,14.59,0,0,0-4-10.29q-4.11-4.41-11-4.41a14.55,14.55,0,0,0-15.2,14.7,13.93,13.93,0,0,0,4.1,10.3,14.38,14.38,0,0,0,4.8,3.16,16.53,16.53,0,0,0,6.3,1.14q6.9,0,11-4.39A14.52,14.52,0,0,0,1555.09,13867.86Z" transform="translate(-64.18 -138.44)"/><path class="cls-2" d="M1589.89,13897.57v-9h36.6v-7.81h-22.6v-37.6h55.8v8.7h-45.4v5.9h44.9v8.31h-44.9v6h46.3v8.69h-23.2v7.81h36.5v9Zm12.8,6.69h57v27.2h-10.8v-18h-46.2Z" transform="translate(-64.18 -138.44)"/><path class="cls-2" d="M1361,14020q-6.1.81-12.2,1.25t-11.5.75q-5.4.3-11,.5t-11.25.3l-.9-9.1h4.25c1.5,0,3.11,0,4.85-.09l-.3-37.61h-6.6v-9.2h40.2v9.2h-6.9l-.3,36.3c1.86-.13,3.66-.28,5.4-.44s3.46-.36,5.2-.56Zm-24.7-7c.6,0,1.21,0,1.85,0s1.28,0,1.95,0l.3-36.9h-8.2l.2,37.2c.73-.06,1.41-.09,2-.09A16,16,0,0,0,1336.29,14013Zm39.3,32h-10.4v-48h-10.7v-9.3h10.7v-25.5h10.4Zm17.6,3.2h-10.4v-87.5h10.4Z" transform="translate(-64.18 -138.44)"/><path class="cls-2" d="M1409.19,13991.66a25.17,25.17,0,0,1,1.9-9.9,23.31,23.31,0,0,1,5.3-7.8,24.56,24.56,0,0,1,7.9-5.14,24.88,24.88,0,0,1,9.6-1.86,24.52,24.52,0,0,1,9.55,1.86,24.89,24.89,0,0,1,7.85,5.14,24.2,24.2,0,0,1,5.35,7.8,24.67,24.67,0,0,1,1.95,9.9,25,25,0,0,1-1.95,10,24,24,0,0,1-5.35,7.85,24.47,24.47,0,0,1-7.85,5.11,25.43,25.43,0,0,1-9.55,1.79,25.8,25.8,0,0,1-9.6-1.79,24.16,24.16,0,0,1-7.9-5.11,23.12,23.12,0,0,1-5.3-7.85A25.49,25.49,0,0,1,1409.19,13991.66Zm10.9,0a17.39,17.39,0,0,0,1.05,6.25,14.34,14.34,0,0,0,2.9,4.75,12.26,12.26,0,0,0,4.35,3,14.54,14.54,0,0,0,10.85,0,12.27,12.27,0,0,0,4.4-3,15.33,15.33,0,0,0,2.95-4.75,16.75,16.75,0,0,0,1.1-6.25,16.93,16.93,0,0,0-1.1-6.2,15.46,15.46,0,0,0-2.95-4.8,12.53,12.53,0,0,0-4.4-3,14.67,14.67,0,0,0-10.85,0,12.52,12.52,0,0,0-4.35,3,14.47,14.47,0,0,0-2.9,4.8A17.58,17.58,0,0,0,1420.09,13991.66Zm51.6-31h10.8v87.5h-10.8Z" transform="translate(-64.18 -138.44)"/><path class="cls-2" d="M1497.89,14036.57v-9h84v9Zm42.4-47.11a43.93,43.93,0,0,1-12.2,13.5,77.62,77.62,0,0,1-17.6,9.8l-6.2-8.1a60.64,60.64,0,0,0,10.4-4.9,54.87,54.87,0,0,0,9.8-7.3,40.12,40.12,0,0,0,7.15-8.75,18.87,18.87,0,0,0,2.85-9.85v-10.4h11.6v10.4a19.65,19.65,0,0,0,2.7,9.85,34.44,34.44,0,0,0,7.2,8.75,54.51,54.51,0,0,0,9.8,7.3,58.75,58.75,0,0,0,10.5,4.9l-6.2,8.1a79.24,79.24,0,0,1-17.6-9.85A43,43,0,0,1,1540.29,13989.46Z" transform="translate(-64.18 -138.44)"/><path class="cls-2" d="M1602.69,14023.66h23.8v-9h-36.6v-9h84v9h-36.5v9h22.3v27.8h-10.8v-18.6h-46.2Zm1.2-25.9V13962h10.8v9.9h34.4v-9.9h10.7v35.8Zm45.2-9.1v-7.59h-34.4v7.59Z" transform="translate(-64.18 -138.44)"/><path class="cls-2" d="M1409.19,14111.66a25.17,25.17,0,0,1,1.9-9.9,23.31,23.31,0,0,1,5.3-7.8,24.56,24.56,0,0,1,7.9-5.14,24.88,24.88,0,0,1,9.6-1.86,24.52,24.52,0,0,1,9.55,1.86,24.89,24.89,0,0,1,7.85,5.14,24.2,24.2,0,0,1,5.35,7.8,24.67,24.67,0,0,1,1.95,9.9,25,25,0,0,1-1.95,10,24,24,0,0,1-5.35,7.85,24.47,24.47,0,0,1-7.85,5.11,25.43,25.43,0,0,1-9.55,1.79,25.8,25.8,0,0,1-9.6-1.79,24.16,24.16,0,0,1-7.9-5.11,23.12,23.12,0,0,1-5.3-7.85A25.49,25.49,0,0,1,1409.19,14111.66Zm10.9,0a17.39,17.39,0,0,0,1.05,6.25,14.34,14.34,0,0,0,2.9,4.75,12.26,12.26,0,0,0,4.35,3,14.54,14.54,0,0,0,10.85,0,12.27,12.27,0,0,0,4.4-3,15.33,15.33,0,0,0,2.95-4.75,16.75,16.75,0,0,0,1.1-6.25,16.93,16.93,0,0,0-1.1-6.2,15.46,15.46,0,0,0-2.95-4.8,12.53,12.53,0,0,0-4.4-3,14.67,14.67,0,0,0-10.85,0,12.52,12.52,0,0,0-4.35,3,14.47,14.47,0,0,0-2.9,4.8A17.58,17.58,0,0,0,1420.09,14111.66Zm51.6-31h10.8v87.5h-10.8Z" transform="translate(-64.18 -138.44)"/><path class="cls-2" d="M1559.09,14165h-10.4v-48h-10.5v25.5h-35.3v-55.7h35.3v20.9h10.5v-25.5h10.4Zm-31.6-69.1h-13.8v37.5h13.8Zm49.7,72.3h-10.4v-87.5h10.4Z" transform="translate(-64.18 -138.44)"/><path class="cls-2" d="M1593.19,14103.66a19.5,19.5,0,0,1,1.85-8.5,21.6,21.6,0,0,1,5-6.8,26.31,26.31,0,0,1,7.55-4.45,26.89,26.89,0,0,1,18.55,0,26.31,26.31,0,0,1,7.6,4.45,22.54,22.54,0,0,1,5.1,6.8,20.32,20.32,0,0,1,0,17.16,22.71,22.71,0,0,1-5.1,6.75,25.29,25.29,0,0,1-7.6,4.39,27.52,27.52,0,0,1-18.55,0,25.28,25.28,0,0,1-7.55-4.39,21.74,21.74,0,0,1-5-6.75A19.68,19.68,0,0,1,1593.19,14103.66Zm10.9,0a12.34,12.34,0,0,0,1,5,11.65,11.65,0,0,0,2.75,4,12.86,12.86,0,0,0,4.1,2.6,13.19,13.19,0,0,0,5,1,13,13,0,0,0,9.1-3.5,11.9,11.9,0,0,0,3.8-9,11.61,11.61,0,0,0-3.8-8.9,12.78,12.78,0,0,0-9.1-3.6,13.39,13.39,0,0,0-5,1,13,13,0,0,0-4.1,2.6,11.85,11.85,0,0,0-2.75,4A12.37,12.37,0,0,0,1604.09,14103.66Zm9.5,68.7v-24.79h42.1v-6.91h-42.1v-8.9h52.9v24.4h-42.2v7.2h44.4v9Zm42.1-91.7h10.8v46.91h-10.8Z" transform="translate(-64.18 -138.44)"/><path class="cls-3" d="M1255.89,15692.6q-5.4.79-13.1,1.35t-16.2.95q-8.5.5-16.55.75t-14,.25l-.7-9.3q4.59,0,10.85-.1t13-.4v-12.9h10.9v12.3q7.4-.41,13.85-.9t11-1.3Zm-31.3-30.5a34.8,34.8,0,0,1-9.2,9.15,46.6,46.6,0,0,1-11.4,5.65l-6.1-8a44.59,44.59,0,0,0,6.5-2.6,37.61,37.61,0,0,0,6.6-4.1,24.92,24.92,0,0,0,4.85-5.6,10.92,10.92,0,0,0,2-5.7v-.1h-17.4v-9.4h47.7v9.4h-17.4a10,10,0,0,0,1.65,4.9,17.28,17.28,0,0,0,4.35,4.9,37.24,37.24,0,0,0,6.5,4.1,39.28,39.28,0,0,0,7.3,2.8l-5.7,8.2a42.91,42.91,0,0,1-11.8-5.4A27.35,27.35,0,0,1,1224.59,15662.1Zm-14.2-26.1v-9.4h27.3v9.4Zm49.3-10.3h10.8v87.5h-10.8Z" transform="translate(-64.18 -138.44)"/><path class="cls-3" d="M1336.29,15677.6a53.58,53.58,0,0,1-12.45-8.45,38.93,38.93,0,0,1-8.55-10.85,40.71,40.71,0,0,1-8.45,12,59,59,0,0,1-13.15,9.9l-6.7-8.6a45.15,45.15,0,0,0,16.1-13,30,30,0,0,0,6.3-18.8v-10.6h11.5v10.3a26.91,26.91,0,0,0,6.1,17.7,40.94,40.94,0,0,0,15.8,11.6Zm28.2,37.7H1309v-30.7h11v21.6h44.5Zm-12.8-89.6h10.8v65h-10.8v-36.6h-18.3v-9.2h18.3Z" transform="translate(-64.18 -138.44)"/><path class="cls-3" d="M1377.88,15672.7v-9h84v9Zm14.11,45.1v-23.9h45v-6h-45.11v-8.9h55.91v23.5h-45.1v6.3H1450v9Zm53.5-75.8a13.93,13.93,0,0,1-1.8,6.9,17.31,17.31,0,0,1-5.2,5.6,28.23,28.23,0,0,1-8.2,3.75,37.66,37.66,0,0,1-10.41,1.35,37,37,0,0,1-10.34-1.35,28.34,28.34,0,0,1-8.16-3.75,16.89,16.89,0,0,1-5.29-5.6,13.72,13.72,0,0,1-1.8-6.9q0-7.6,7.2-12.5a28,28,0,0,1,8.2-3.75,39.21,39.21,0,0,1,20.4,0,28.23,28.23,0,0,1,8.2,3.75,18.48,18.48,0,0,1,5.3,5.6A13.33,13.33,0,0,1,1445.49,15642Zm-11.61-.1a6.29,6.29,0,0,0-1-3.4,9.18,9.18,0,0,0-2.79-2.8,15.09,15.09,0,0,0-4.4-1.9,22.24,22.24,0,0,0-5.81-.7,17.14,17.14,0,0,0-10.09,2.8c-2.6,1.8-3.91,3.8-3.91,6a6.11,6.11,0,0,0,1.06,3.4,10,10,0,0,0,2.9,2.85,14.79,14.79,0,0,0,4.45,2,21.24,21.24,0,0,0,5.59.7q6.4,0,10.21-2.65T1433.88,15641.9Z" transform="translate(-64.18 -138.44)"/><path class="cls-3" d="M1504.88,15631.8H1547v9.2h-31.3v36.6q9.19,0,19.55-.75a183.48,183.48,0,0,0,19.64-2.45l1.21,9a216.19,216.19,0,0,1-24.25,2.9q-13.35.9-27,.6Zm66.21-6.1v28.3h14.79v9.2h-14.79v50h-10.8v-87.5Z" transform="translate(-64.18 -138.44)"/><path class="cls-3" d="M1591.08,15651.9v-9h43.6v9Zm39.9,22.5a20.15,20.15,0,0,1-1.4,7.6,18.46,18.46,0,0,1-3.85,6,17.12,17.12,0,0,1-5.75,4,17.75,17.75,0,0,1-7,1.4,18.06,18.06,0,0,1-7.1-1.4,17.74,17.74,0,0,1-5.8-4,18.51,18.51,0,0,1-3.9-6,20.23,20.23,0,0,1-1.39-7.65,19.13,19.13,0,0,1,1.44-7.45,18.58,18.58,0,0,1,4-6,18.18,18.18,0,0,1,5.8-3.9,17.82,17.82,0,0,1,7-1.4,17.79,17.79,0,0,1,12.65,5.3,18.82,18.82,0,0,1,3.91,6A19.13,19.13,0,0,1,1631,15674.4Zm-30.4-37.8v-9.2h25v9.2Zm20.8,37.8a10.3,10.3,0,0,0-2.5-7.3,7.77,7.77,0,0,0-5.9-2.7,8.27,8.27,0,0,0-6,2.7,10,10,0,0,0-2.64,7.3,10.5,10.5,0,0,0,2.64,7.5,8.13,8.13,0,0,0,6,2.8,7.65,7.65,0,0,0,5.9-2.8A10.84,10.84,0,0,0,1621.38,15674.4Zm17.7-47.2h10.4v32.1h8.81v-33.6h10.39v87.5h-10.39v-44.8h-8.81v41.6h-10.4Z" transform="translate(-64.18 -138.44)"/><path class="cls-3" d="M675.89,15812.6q-5.4.79-13.1,1.35t-16.2.95q-8.51.5-16.55.75t-14,.25l-.7-9.3q4.59,0,10.85-.1t13.05-.4v-12.9h10.9v12.3q7.39-.41,13.85-.9t10.95-1.3Zm-31.3-30.5a34.8,34.8,0,0,1-9.2,9.15,46.6,46.6,0,0,1-11.4,5.65l-6.1-8a44.59,44.59,0,0,0,6.5-2.6,37.61,37.61,0,0,0,6.6-4.1,24.92,24.92,0,0,0,4.85-5.6,10.92,10.92,0,0,0,1.95-5.7v-.1h-17.4v-9.4h47.7v9.4h-17.4a10,10,0,0,0,1.65,4.9,17.28,17.28,0,0,0,4.35,4.9,37.24,37.24,0,0,0,6.5,4.1,39.28,39.28,0,0,0,7.3,2.8l-5.7,8.2a42.91,42.91,0,0,1-11.8-5.4A27.35,27.35,0,0,1,644.59,15782.1Zm-14.2-26.1v-9.4h27.3v9.4Zm49.3-10.3h10.8v87.5h-10.8Z" transform="translate(-64.18 -138.44)"/><path class="cls-3" d="M705.89,15823.1v-9h31.2v-30.8H748v30.8h41.9v9Zm55.2-23.2a185.61,185.61,0,0,0,3.4-20q1.2-10.4,1.4-20h-48.1v-9.2h59.3q-.11,6.7-.5,13.65t-1.1,13.65q-.81,6.7-1.75,12.8t-2.15,11.2Z" transform="translate(-64.18 -138.44)"/><path class="cls-3" d="M799,15804.1q3.3,0,7.15-.1t8-.25l8.35-.3q4.24-.15,8.35-.35,8.19-.5,15.7-1.05t12.3-1.25l1,8.9q-2.5.3-5.7.65t-6.85.65q-3.66.3-7.65.55t-8,.55c-2.74.2-5.5.37-8.3.5s-5.57.25-8.3.35-5.4.18-8,.25-5,.1-7.3.1Zm5.5-33a20.27,20.27,0,0,1,1.85-8.75,21.25,21.25,0,0,1,5-6.85,22.77,22.77,0,0,1,7.45-4.65,25.92,25.92,0,0,1,18.2,0,23,23,0,0,1,7.45,4.65,22.15,22.15,0,0,1,5.1,6.85,20,20,0,0,1,1.9,8.75,20.35,20.35,0,0,1-1.9,8.8,21.9,21.9,0,0,1-5.1,6.9,24,24,0,0,1-7.45,4.55,25.92,25.92,0,0,1-18.2,0,23.75,23.75,0,0,1-7.45-4.55,21,21,0,0,1-5-6.9A20.62,20.62,0,0,1,804.49,15771.1Zm10.9,0a13.79,13.79,0,0,0,1,5.25,11.82,11.82,0,0,0,2.65,4,12,12,0,0,0,4,2.65,13,13,0,0,0,5,1,12.47,12.47,0,0,0,12.6-12.9,12.63,12.63,0,0,0-12.6-12.8,13,13,0,0,0-5,1,11.59,11.59,0,0,0-4,2.7,12.43,12.43,0,0,0-2.65,4.1A13.23,13.23,0,0,0,815.39,15771.1Zm48.3-25.4h10.8v87.5h-10.8Z" transform="translate(-64.18 -138.44)"/><path class="cls-3" d="M983.69,15745.7h10.8v51.8h-10.8v-12.3H966v-4.3a16.35,16.35,0,0,1-1.9,3,26.24,26.24,0,0,1-2.4,2.55,22.9,22.9,0,0,1-7.5,4.65,25.5,25.5,0,0,1-9.2,1.65,26,26,0,0,1-9.4-1.65,22.69,22.69,0,0,1-7.5-4.65,21.94,21.94,0,0,1-5.05-7.1,21.5,21.5,0,0,1-1.85-9,21.27,21.27,0,0,1,1.85-8.9,21.94,21.94,0,0,1,5.05-7.1,23.31,23.31,0,0,1,7.5-4.7,25.39,25.39,0,0,1,9.4-1.7,24.9,24.9,0,0,1,9.2,1.7,23.53,23.53,0,0,1,7.5,4.7,24.44,24.44,0,0,1,4.3,5.5v-2.8h17.7Zm-51.6,24.6a13.25,13.25,0,0,0,1,5.25,11.57,11.57,0,0,0,2.75,4,12.86,12.86,0,0,0,4.1,2.6,13.39,13.39,0,0,0,5,1,13.06,13.06,0,0,0,5-1,12.62,12.62,0,0,0,4-2.6,12.17,12.17,0,0,0,2.7-4,13.42,13.42,0,0,0,1-5.25,13.14,13.14,0,0,0-1-5.15,12.71,12.71,0,0,0-2.7-4,12.26,12.26,0,0,0-4-2.65,13.06,13.06,0,0,0-5-1,12.66,12.66,0,0,0-9.2,3.6A12.27,12.27,0,0,0,932.09,15770.3Zm36.8,28.2a29.17,29.17,0,0,1,9,1.4,25.54,25.54,0,0,1,7.75,4,19.68,19.68,0,0,1,5.45,6.45,19.27,19.27,0,0,1,0,17.3,19.88,19.88,0,0,1-5.45,6.45,25.76,25.76,0,0,1-7.75,4,29.31,29.31,0,0,1-17.9,0,25.65,25.65,0,0,1-7.75-4,19.64,19.64,0,0,1-5.45-6.45,19.27,19.27,0,0,1,0-17.3,19.44,19.44,0,0,1,5.45-6.45,25.42,25.42,0,0,1,7.75-4A29.12,29.12,0,0,1,968.89,15798.5Zm0,9.3a15.08,15.08,0,0,0-5.1.85,13.63,13.63,0,0,0-4.2,2.35,11.82,11.82,0,0,0-2.9,3.55,9.2,9.2,0,0,0-1.1,4.45,9.62,9.62,0,0,0,1.1,4.65,11.39,11.39,0,0,0,2.9,3.5,13.63,13.63,0,0,0,4.2,2.25,16.66,16.66,0,0,0,10.2,0,13.63,13.63,0,0,0,4.2-2.25,11.53,11.53,0,0,0,2.9-3.5,9.74,9.74,0,0,0,1.1-4.65,9.31,9.31,0,0,0-1.1-4.45,12,12,0,0,0-2.9-3.55,13.63,13.63,0,0,0-4.2-2.35A15.08,15.08,0,0,0,968.89,15807.8Zm-.3-37.5a21,21,0,0,1-.2,2.9c-.14.93-.3,1.87-.5,2.8h15.8v-9.8h-15.5c.13.67.23,1.33.3,2S968.59,15769.57,968.59,15770.3Z" transform="translate(-64.18 -138.44)"/><path class="cls-3" d="M1087.69,15745.7v87.5h-10.8v-52.3h-14.7a23.6,23.6,0,0,1-2.4,7.55,23.22,23.22,0,0,1-4.5,6,24.28,24.28,0,0,1-7.85,5.1,25.24,25.24,0,0,1-9.55,1.8,25.61,25.61,0,0,1-9.6-1.8,24,24,0,0,1-7.9-5.1,23.22,23.22,0,0,1-5.3-7.85,25.49,25.49,0,0,1-1.9-9.95,25.14,25.14,0,0,1,1.9-9.9,23.31,23.31,0,0,1,5.3-7.8,24.59,24.59,0,0,1,7.9-5.15,25.06,25.06,0,0,1,9.6-1.85,24.71,24.71,0,0,1,17.4,7,26,26,0,0,1,4.35,5.75,23,23,0,0,1,2.45,7h14.8v-26Zm-63.6,31a17.43,17.43,0,0,0,1.05,6.25,14.44,14.44,0,0,0,2.9,4.75,12.39,12.39,0,0,0,4.35,3,14.54,14.54,0,0,0,10.85,0,12.4,12.4,0,0,0,4.4-3,15.44,15.44,0,0,0,2.95-4.75,18.16,18.16,0,0,0,0-12.45,15.23,15.23,0,0,0-2.95-4.8,12.4,12.4,0,0,0-4.4-3.05,14.54,14.54,0,0,0-10.85,0,12.39,12.39,0,0,0-4.35,3.05,14.27,14.27,0,0,0-2.9,4.8A17.54,17.54,0,0,0,1024.09,15776.7Z" transform="translate(-64.18 -138.44)"/><path class="cls-3" d="M1101.89,15823.1v-9h21.9v-32.8h10.9v32.8h9.2v-32.8h10.9v32.8h31.1v9Zm55.2-23.2a185.61,185.61,0,0,0,3.4-20q1.2-10.4,1.4-20h-48.1v-9.2h59.3q-.1,6.7-.5,13.65t-1.1,13.65q-.81,6.7-1.75,12.8t-2.15,11.2Z" transform="translate(-64.18 -138.44)"/><path class="cls-3" d="M1206.69,15806.7h8.8v-9.6h-21.6v-9h84v9h-21.5v9.6h7.3v29.8h-10.8v-20.6h-46.2Zm55.2-40.9a17.68,17.68,0,0,1-1.85,8,20.1,20.1,0,0,1-5.25,6.5,24.72,24.72,0,0,1-8.15,4.35,36.34,36.34,0,0,1-21,0,24.52,24.52,0,0,1-8.15-4.35,17.71,17.71,0,0,1-7.2-14.5,17.51,17.51,0,0,1,1.9-8,18.7,18.7,0,0,1,5.4-6.45,26.61,26.61,0,0,1,8.15-4.3,32.45,32.45,0,0,1,10.45-1.6,31.87,31.87,0,0,1,10.25,1.6,26.84,26.84,0,0,1,8.15,4.3,20,20,0,0,1,5.35,6.45A17.19,17.19,0,0,1,1261.89,15765.8Zm-11.1,0a9.21,9.21,0,0,0-1-4.25,10.77,10.77,0,0,0-3-3.55,15,15,0,0,0-4.6-2.4,18.89,18.89,0,0,0-6-.9q-6.7,0-10.7,3.4c-2.74,2.2-4.1,4.77-4.1,7.7a9.11,9.11,0,0,0,1,4.3,10.69,10.69,0,0,0,3,3.5,14.79,14.79,0,0,0,4.7,2.35,20.29,20.29,0,0,0,6,.85,19.81,19.81,0,0,0,6-.85,14.35,14.35,0,0,0,4.6-2.35,11,11,0,0,0,3-3.5A9.11,9.11,0,0,0,1250.79,15765.8Zm-24.4,40.9h19.1v-9.6h-19.1Z" transform="translate(-64.18 -138.44)"/><path class="cls-3" d="M1363.89,15811.6a54.65,54.65,0,0,1-6.7-4.9,52.45,52.45,0,0,1-6.1-6.1,50.65,50.65,0,0,1-5.15-6.7,33.17,33.17,0,0,1-3.45-6.9,46.51,46.51,0,0,1-3.6,7.2,52.48,52.48,0,0,1-5.05,6.9,60.48,60.48,0,0,1-6.2,6.2,56.62,56.62,0,0,1-7.05,5.2l-6.5-8.2a47.62,47.62,0,0,0,15.8-15.6,52.31,52.31,0,0,0,5-11,41.27,41.27,0,0,0,1.9-12.75v-14.5h11.1v14.3a41.6,41.6,0,0,0,1.75,12.3,45.92,45.92,0,0,0,4.75,10.6,46.79,46.79,0,0,0,7.15,8.8,46,46,0,0,0,8.65,6.6Zm27.8-65.9v87.5h-10.8V15782h-19.7v-9.4h19.7v-26.9Z" transform="translate(-64.18 -138.44)"/><path class="cls-3" d="M1411.88,15807.9V15751h10.81v20.5h21.6V15751H1455v56.9Zm32.41-9.1v-18.1h-21.6v18.1Zm27.4-53.1h10.8v87.5h-10.8Z" transform="translate(-64.18 -138.44)"/><path class="cls-3" d="M1497.88,15821.6v-9h84v9Zm42.41-47.1a43.93,43.93,0,0,1-12.2,13.5,78,78,0,0,1-17.6,9.8l-6.2-8.1a60.64,60.64,0,0,0,10.4-4.9,55.35,55.35,0,0,0,9.8-7.3,40,40,0,0,0,7.14-8.75,18.82,18.82,0,0,0,2.86-9.85v-10.4h11.6v10.4a19.68,19.68,0,0,0,2.7,9.85,34.61,34.61,0,0,0,7.2,8.75,55,55,0,0,0,9.8,7.3,58.75,58.75,0,0,0,10.5,4.9l-6.2,8.1a79.24,79.24,0,0,1-17.6-9.85A43.13,43.13,0,0,1,1540.29,15774.5Z" transform="translate(-64.18 -138.44)"/><path class="cls-3" d="M1673.69,15788.4v8.9h-83.81v-8.9Zm-69.7,49.4v-22.2h45v-4.3h-45.11v-8.9h55.91v21.8h-45.1v4.6H1662v9Zm.5-54.2v-22.4h43.6v-4.1h-43.71v-9.1h54.5v22.3h-43.59v4.2h45.8v9.1Z" transform="translate(-64.18 -138.44)"/><path class="cls-3" d="M655.89,15881.2h-14v5.8q0,12.7,4.6,21.9a43.41,43.41,0,0,0,13,15.5l-7.6,7a45.76,45.76,0,0,1-9.6-9.4,38.8,38.8,0,0,1-6.1-11.5,52.48,52.48,0,0,1-6,12.2,50.09,50.09,0,0,1-9.4,10.3l-7.7-6.6a45,45,0,0,0,12.9-16.35q4.5-9.64,4.5-22.85v-6h-14.4v-9.4h39.8Zm19.2,68.8h-10.4v-48.6H652v-9.4h12.7v-24.8h10.4Zm18.1,3.2h-10.4v-87.5h10.4Z" transform="translate(-64.18 -138.44)"/><path class="cls-3" d="M705.89,15914.1v-9h32.2v-16.6H749v16.6h40.9v9Zm56.2-14.3q1.39-5.8,2.2-11.5a90.07,90.07,0,0,0,.9-10.3h-46.6v-9.2h57.8a159.48,159.48,0,0,1-.95,18,117.64,117.64,0,0,1-2.55,14.7Zm-14.2,18.7a30.58,30.58,0,0,1,9,1.35,25.31,25.31,0,0,1,7.85,3.95,19.86,19.86,0,0,1,5.5,6.3,18.65,18.65,0,0,1,0,17,20.08,20.08,0,0,1-5.5,6.3,25.31,25.31,0,0,1-7.85,4,30.84,30.84,0,0,1-18,0,25.38,25.38,0,0,1-7.8-4,20,20,0,0,1-5.5-6.3,18.65,18.65,0,0,1,0-17,19.74,19.74,0,0,1,5.5-6.3,25.38,25.38,0,0,1,7.8-3.95A30.32,30.32,0,0,1,747.89,15918.5Zm0,9.2a16.57,16.57,0,0,0-5.15.8,14.24,14.24,0,0,0-4.35,2.25,10.94,10.94,0,0,0-3,3.45,8.9,8.9,0,0,0-1.1,4.4,9.09,9.09,0,0,0,1.1,4.5,10.94,10.94,0,0,0,3,3.45,13.71,13.71,0,0,0,4.35,2.2,18.06,18.06,0,0,0,10.3,0,13.93,13.93,0,0,0,4.35-2.2,11.2,11.2,0,0,0,3-3.45,9.2,9.2,0,0,0,1.1-4.5,9,9,0,0,0-1.1-4.4,11.2,11.2,0,0,0-3-3.45,14.47,14.47,0,0,0-4.35-2.25A16.61,16.61,0,0,0,747.89,15927.7Z" transform="translate(-64.18 -138.44)"/><path class="cls-3" d="M800.29,15891.9v-9h52v9Zm46.6,22.5a17.64,17.64,0,0,1-1.7,7.8,19.47,19.47,0,0,1-4.5,6,19.75,19.75,0,0,1-6.55,3.85,22.74,22.74,0,0,1-7.75,1.35,23,23,0,0,1-7.85-1.35,20.29,20.29,0,0,1-6.6-3.85,18.86,18.86,0,0,1-4.55-6,17.51,17.51,0,0,1-1.7-7.8,16.83,16.83,0,0,1,1.75-7.75,18.93,18.93,0,0,1,4.6-5.9,20.24,20.24,0,0,1,6.6-3.75,23.4,23.4,0,0,1,7.75-1.3,22.33,22.33,0,0,1,7.7,1.35,21.12,21.12,0,0,1,6.55,3.8,18.49,18.49,0,0,1,4.55,5.9A17.11,17.11,0,0,1,846.89,15914.4Zm-35.8-37.8v-9.2h30.7v9.2Zm25.7,37.8a9.3,9.3,0,0,0-3-7.25,10.63,10.63,0,0,0-7.35-2.75,11.19,11.19,0,0,0-4,.75,10.76,10.76,0,0,0-3.4,2.05,9.56,9.56,0,0,0-3.15,7.2,9.78,9.78,0,0,0,.85,4.15,10.5,10.5,0,0,0,2.3,3.25,10,10,0,0,0,3.4,2.15,11.19,11.19,0,0,0,4,.75,10.81,10.81,0,0,0,4-.75,10.12,10.12,0,0,0,5.6-5.4A10.41,10.41,0,0,0,836.79,15914.4Zm34.3-48.7v34.3h14.8v9.2h-14.8v44h-10.8v-87.5Z" transform="translate(-64.18 -138.44)"/><path class="cls-3" d="M889.89,15921.9v-9h84v9Zm72.2,34.2h-58.8v-25.4h10.8v16.3h48Zm-.9-53.6h-57.3v-33.4h11v24.3h46.3Z" transform="translate(-64.18 -138.44)"/><path class="cls-3" d="M1071.09,15950h-10.4v-48h-10.3v26.3h-35.5v-57.2h10.8v20.8h14v-20.8h10.7v21.6h10.3v-25.5h10.4Zm-31.4-30.8v-18.1h-14v18.1Zm49.5,34h-10.4v-87.5h10.4Z" transform="translate(-64.18 -138.44)"/><path class="cls-3" d="M1179.69,15865.7v87.5h-10.8v-52.3h-14.7a23.6,23.6,0,0,1-2.4,7.55,23.22,23.22,0,0,1-4.5,6,24.28,24.28,0,0,1-7.85,5.1,25.24,25.24,0,0,1-9.55,1.8,25.61,25.61,0,0,1-9.6-1.8,24,24,0,0,1-7.9-5.1,23.22,23.22,0,0,1-5.3-7.85,25.49,25.49,0,0,1-1.9-9.95,25.14,25.14,0,0,1,1.9-9.9,23.31,23.31,0,0,1,5.3-7.8,24.59,24.59,0,0,1,7.9-5.15,25.06,25.06,0,0,1,9.6-1.85,24.71,24.71,0,0,1,17.4,7,26,26,0,0,1,4.35,5.75,23,23,0,0,1,2.45,7h14.8v-26Zm-63.6,31a17.43,17.43,0,0,0,1.05,6.25,14.44,14.44,0,0,0,2.9,4.75,12.39,12.39,0,0,0,4.35,3,14.54,14.54,0,0,0,10.85,0,12.4,12.4,0,0,0,4.4-3,15.44,15.44,0,0,0,2.95-4.75,18.16,18.16,0,0,0,0-12.45,15.23,15.23,0,0,0-2.95-4.8,12.4,12.4,0,0,0-4.4-3.05,14.54,14.54,0,0,0-10.85,0,12.39,12.39,0,0,0-4.35,3.05,14.27,14.27,0,0,0-2.9,4.8A17.54,17.54,0,0,0,1116.09,15896.7Z" transform="translate(-64.18 -138.44)"/><path class="cls-3" d="M1199.49,15886.7h29v-8.7h-29v-9.2H1239v27.1h-28.7v9.2q10.59.1,21.35-.7a201,201,0,0,0,20.75-2.6l1.3,8.9a205.31,205.31,0,0,1-24.25,2.9q-13.65.9-30,.7Zm68.3,52.3q0,7.8-6.6,13.2-6.4,5.49-17.8,5.5t-17.9-5.5q-6.51-5.4-6.5-13.2t6.5-13.2q6.39-5.51,17.9-5.5t17.8,5.5Q1267.79,15931.2,1267.79,15939Zm-10.9,0a7.61,7.61,0,0,0-1.05-3.9,9.51,9.51,0,0,0-2.85-3.05,15.33,15.33,0,0,0-4.25-2,19.46,19.46,0,0,0-10.7,0,15.2,15.2,0,0,0-4.25,2,9.51,9.51,0,0,0-2.85,3.05,7.77,7.77,0,0,0,0,7.8,10.1,10.1,0,0,0,2.85,3.1,13.7,13.7,0,0,0,4.25,2,19.62,19.62,0,0,0,5.35.7,19.89,19.89,0,0,0,5.3-.7,13.77,13.77,0,0,0,4.3-2,10.1,10.1,0,0,0,2.85-3.1A7.61,7.61,0,0,0,1256.89,15939Zm2.8-73.3h10.8v52.8h-10.8Z" transform="translate(-64.18 -138.44)"/><path class="cls-3" d="M1285.89,15943.1v-9h31.2v-30.8H1328v30.8h41.9v9Zm55.2-23.2a185.61,185.61,0,0,0,3.4-20q1.2-10.4,1.4-20h-48.1v-9.2h59.3q-.1,6.7-.5,13.65t-1.1,13.65q-.81,6.7-1.75,12.8t-2.15,11.2Z" transform="translate(-64.18 -138.44)"/><path class="cls-3" d="M1409.19,15890.3a21.27,21.27,0,0,1,1.85-8.9,21.94,21.94,0,0,1,5-7.1,23.31,23.31,0,0,1,7.5-4.7,26.42,26.42,0,0,1,18.65,0,23.44,23.44,0,0,1,7.55,4.7,22.68,22.68,0,0,1,5.09,7.1,20.85,20.85,0,0,1,1.91,8.9,21.08,21.08,0,0,1-1.91,9,22.33,22.33,0,0,1-12.64,11.75,27.17,27.17,0,0,1-18.65,0,22.69,22.69,0,0,1-7.5-4.65,21.94,21.94,0,0,1-5-7.1A21.5,21.5,0,0,1,1409.19,15890.3Zm10.9,0a13.25,13.25,0,0,0,1,5.25,11.57,11.57,0,0,0,2.75,4,12.86,12.86,0,0,0,4.1,2.6,13.39,13.39,0,0,0,5,1,13,13,0,0,0,9.1-3.5,13.18,13.18,0,0,0,0-18.5,12.78,12.78,0,0,0-9.1-3.6,12.66,12.66,0,0,0-9.2,3.6A12.27,12.27,0,0,0,1420.09,15890.3Zm10.29,67.5v-36.7h10.91v9.9h30.4v-9.9h10.8v36.7Zm41.31-9.1v-8.7h-30.4v8.7Zm0-83h10.8v51.8h-10.8Z" transform="translate(-64.18 -138.44)"/><path class="cls-3" d="M1555.38,15924.1a108.69,108.69,0,0,1-11,1.65q-6.2.65-12.59,1-6.61.49-13.6.65t-13.31-.05v-56.1h10.81v46.8q3.9.1,9-.05t10-.55q5.1-.41,10.15-1c3.36-.4,6.45-.9,9.25-1.5Zm8.31-58.4h10.8v87.5h-10.8Z" transform="translate(-64.18 -138.44)"/><path class="cls-3" d="M1596.88,15871.8H1639v9.2h-31.3v36.6q9.19,0,19.55-.75a183.48,183.48,0,0,0,19.64-2.45l1.21,9a216.19,216.19,0,0,1-24.25,2.9q-13.35.9-27,.6Zm66.21-6.1v28.3h14.79v9.2h-14.79v50h-10.8v-87.5Z" transform="translate(-64.18 -138.44)"/><path class="cls-3" d="M996.09,15039.32q-5-2.49-13.4-2.5-13,0-13,9.6,0,4.6,8.1,9.7,6.71,4.3,10.5,6.8a39.56,39.56,0,0,1,4.6,3.3q8.1,7.11,8.1,16.4,0,10.41-8,16.3a26.71,26.71,0,0,1-16.3,5,42.39,42.39,0,0,1-17.4-3.5l1.3-11.1a33.19,33.19,0,0,0,16.5,4.2q13.3,0,13.3-11.7,0-4.59-8.1-10-7.31-4.89-11-7.5l-4-2.8q-8-6.9-8-15.1a17.94,17.94,0,0,1,7.2-14.9q6.5-5,16.4-5a42.56,42.56,0,0,1,15.1,2.6Z" transform="translate(-64.18 -138.44)"/><path class="cls-3" d="M1054.49,15102.42h-38v-74.6h36.9v10.2h-26v20.8H1052v10.2h-24.6v23.1h27.1Z" transform="translate(-64.18 -138.44)"/><path class="cls-3" d="M1109,15102.42h-38v-74.6h36.9v10.2h-26v20.8h24.6v10.2h-24.6v23.1H1109Z" transform="translate(-64.18 -138.44)"/><path class="cls-3" d="M1212.39,15027.82l-27.6,43.1v31.5h-10.9v-31.5l-27.6-43.1h13l20,32.8,20.6-32.8Z" transform="translate(-64.18 -138.44)"/><path class="cls-3" d="M1253.39,15026.52q16,0,24.9,11.9,7.9,10.6,7.8,26.6-.19,17.51-8.2,27.6-8.7,11-24.5,11t-24.6-11q-8.2-10.29-8.2-27.6,0-16.2,7.8-26.7Q1237.2,15026.53,1253.39,15026.52Zm0,10.1q-10.4,0-16.4,8.8-5.51,7.91-5.5,19.6t5.5,19.7q6,8.81,16.4,8.8t16.4-8.8q5.4-7.89,5.4-19.7,0-11.59-5.4-19.6Q1263.79,15036.63,1253.39,15036.62Z" transform="translate(-64.18 -138.44)"/><path class="cls-3" d="M1356.19,15027.82v48.3q0,15-9.5,22.1-7.1,5.4-17.6,5.4t-17.6-5.4q-9.4-7-9.4-22.1v-48.3H1313v47.8q0,8.1,4.1,12.8,4.2,5,12,5t12.2-5q4-4.59,4-12.8v-47.8Z" transform="translate(-64.18 -138.44)"/><path class="cls-3" d="M1437.09,15039.32q-5-2.49-13.4-2.5-13,0-13,9.6,0,4.6,8.1,9.7,6.69,4.3,10.5,6.8a41.59,41.59,0,0,1,4.6,3.3q8.1,7.11,8.1,16.4,0,10.41-8,16.3a26.71,26.71,0,0,1-16.3,5,42.33,42.33,0,0,1-17.4-3.5l1.3-11.1a33.19,33.19,0,0,0,16.5,4.2q13.31,0,13.3-11.7,0-4.59-8.1-10-7.3-4.89-11-7.5l-4-2.8q-8-6.9-8-15.1a17.94,17.94,0,0,1,7.2-14.9q6.49-5,16.4-5a42.6,42.6,0,0,1,15.1,2.6Z" transform="translate(-64.18 -138.44)"/><path class="cls-3" d="M1487.39,15026.52q16,0,24.9,11.9,7.89,10.6,7.8,26.6-.19,17.51-8.2,27.6-8.7,11-24.5,11t-24.6-11q-8.2-10.29-8.2-27.6,0-16.2,7.8-26.7Q1471.18,15026.53,1487.39,15026.52Zm0,10.1q-10.4,0-16.4,8.8-5.51,7.91-5.5,19.6t5.5,19.7q6,8.81,16.4,8.8t16.4-8.8q5.4-7.89,5.4-19.7,0-11.59-5.4-19.6Q1497.79,15036.63,1487.39,15036.62Z" transform="translate(-64.18 -138.44)"/><path class="cls-3" d="M1566.09,15026.52q16,0,24.9,11.9,7.89,10.6,7.8,26.6-.21,17.51-8.2,27.6-8.7,11-24.5,11t-24.6-11q-8.21-10.29-8.2-27.6,0-16.2,7.8-26.7Q1549.88,15026.53,1566.09,15026.52Zm0,10.1q-10.41,0-16.4,8.8-5.51,7.91-5.5,19.6t5.5,19.7q6,8.81,16.4,8.8t16.4-8.8q5.4-7.89,5.4-19.7,0-11.59-5.4-19.6Q1576.49,15036.63,1566.09,15036.62Z" transform="translate(-64.18 -138.44)"/><path class="cls-3" d="M1669.19,15102.42h-12l-32-55.9v55.9h-10.8v-74.6h11.5l32.5,56.8v-56.8h10.8Z" transform="translate(-64.18 -138.44)"/></g><g id="Layer_2" data-name="Layer 2"><rect class="cls-4" width="1752.65" height="1752.65" rx="12" ry="12"/><path class="cls-2" d="M214.37,753.34V725.78h161v27.56ZM355,814.65a47.11,47.11,0,0,1-4.64,20.75,52.9,52.9,0,0,1-12.7,16.72,59,59,0,0,1-19,11.14,71.64,71.64,0,0,1-47.38,0,58.81,58.81,0,0,1-19-11.14,52.9,52.9,0,0,1-12.7-16.72,48.72,48.72,0,0,1,0-41.5,53,53,0,0,1,12.7-16.72,59,59,0,0,1,19-11.14,71.64,71.64,0,0,1,47.38,0,59.2,59.2,0,0,1,19,11.14,53,53,0,0,1,12.7,16.72A47.11,47.11,0,0,1,355,814.65ZM247.19,711.54V683.36h95.07v28.18ZM324.3,814.65A22.51,22.51,0,0,0,322,804.43a26.81,26.81,0,0,0-6.34-8.2,29.88,29.88,0,0,0-9.45-5.58,32.22,32.22,0,0,0-11.3-2,31.87,31.87,0,0,0-11.46,2,30.12,30.12,0,0,0-9.29,5.58,26.81,26.81,0,0,0-6.34,8.2,23.58,23.58,0,0,0,0,20.44,26.93,26.93,0,0,0,6.34,8.2,29.92,29.92,0,0,0,9.29,5.58,31.87,31.87,0,0,0,11.46,2,32.22,32.22,0,0,0,11.3-2,29.69,29.69,0,0,0,9.45-5.58,26.93,26.93,0,0,0,6.34-8.2A22.51,22.51,0,0,0,324.3,814.65Zm118,153.89H271.66V889h34.06v51.09H442.27Zm36.54-163.8H435.15V897H401.71V681.81h33.44v94.44h43.66Z" transform="translate(-64.18 -138.44)"/><path class="cls-2" d="M694.94,681.81h33.45V883.08H694.94V775h-52v64.09H508.54V693.89H542v47.37h67.81V693.89h33.13v52.64h52ZM609.79,810.93V769.75H542v41.18ZM734.58,959.26H562.72V871.93h34.07v59.15H734.58Z" transform="translate(-64.18 -138.44)"/><path class="cls-2" d="M210,1134.52v-27.87H345v27.87Zm123.55,69.67a62.77,62.77,0,0,1-4.34,23.53,57.41,57.41,0,0,1-11.92,18.73,53,53,0,0,1-17.81,12.23,54.75,54.75,0,0,1-21.67,4.34,55.56,55.56,0,0,1-22-4.34,54.73,54.73,0,0,1-18-12.23,56.54,56.54,0,0,1-12.07-18.58,62.41,62.41,0,0,1-4.34-23.68,59,59,0,0,1,4.49-23.07,57,57,0,0,1,12.23-18.43,56.34,56.34,0,0,1,18-12.07,55,55,0,0,1,21.68-4.34A55.11,55.11,0,0,1,317,1162.69a59.06,59.06,0,0,1,16.57,41.5Zm-94.14-117v-28.49h77.41v28.49Zm64.41,117q0-14.25-7.74-22.61t-18.27-8.36q-10.53,0-18.73,8.36t-8.21,22.61q0,14.55,8.21,23.22t18.73,8.67q10.51,0,18.27-8.67T303.86,1204.19ZM358.67,1058h32.2v99.4h27.25v-104h32.2v270.94h-32.2V1185.61H390.87v128.81h-32.2Z" transform="translate(-64.18 -138.44)"/><path class="cls-2" d="M750.68,1178.18v27.55H491.2v-27.55H604.53v-22.61H534.86v-99.7H568.3v24.46H674.51v-24.46h33.13v99.7H638.28v22.61ZM534.86,1338.57v-71.84H674.2v-16.41H534.55v-27.55H707.64v70.59H568v17.34H714.45v27.87Zm139.65-211.18V1108.5H568.3v18.89Z" transform="translate(-64.18 -138.44)"/><path class="cls-2" d="M793.1,1146.9h61.31v-47.37H793.1V1071h93.82v104.35H826.54v49.23a395.55,395.55,0,0,0,41.5-2.32,403.47,403.47,0,0,0,43.35-7l4.33,28.49q-13.32,2.79-27.09,4.8t-28.33,3.25q-28.8,2.18-67.2,1.86ZM926.87,1058h32.2v80.82h28.8v-85.46h32.2v270.94h-32.2V1167h-28.8v147.39h-32.2Z" transform="translate(-64.18 -138.44)"/><path class="cls-2" d="M1078.91,1080.64q26.92-8.06,48.92-8.05,26.94,0,44,13.31,19.5,15.49,19.51,45.83t-27.56,61.62q-6.2,7.13-10.68,12.85a85.43,85.43,0,0,0-7,10.06,55,55,0,0,0-6.19,26v10.53h-30v-10.53q0-29.1,21.37-55.73,8.35-10.53,13.16-16.88t6.34-8.52q8.67-14.23,8.67-29.41,0-13.31-9.29-20.75-8.67-6.81-23.53-6.81-18,0-46.14,9.29ZM1143,1308.85h-35.92v-34.06H1143Z" transform="translate(-64.18 -138.44)"/><path class="cls-2" d="M234.42,566.12H211.63v18.7h21.51v9.35H211.63V624h-9.89V556.86h32.68Z" transform="translate(-64.18 -138.44)"/><path class="cls-2" d="M255.56,624h-10V556.86h10Z" transform="translate(-64.18 -138.44)"/><path class="cls-2" d="M314.92,624H304.48l-9.8-22.69c-1.33-3.09-2.54-5-3.63-5.81q-2-1.54-6.35-1.54h-3.54v30h-9.72V556.86h17.79q20,0,20,18.16a14.07,14.07,0,0,1-3.72,10,17.46,17.46,0,0,1-9.71,5.17q5.09,1,7.53,6.72Zm-33.76-39.39h4.62c4,0,7.14-.73,9.44-2.18A8,8,0,0,0,299.4,575q0-5.91-3.54-7.72c-1.63-.78-5-1.18-10-1.18h-4.72Z" transform="translate(-64.18 -138.44)"/><path class="cls-2" d="M356.76,567.12q-4.54-2.26-12.16-2.27-11.81,0-11.8,8.71,0,4.19,7.35,8.81,6.08,3.9,9.53,6.17a34.07,34.07,0,0,1,4.17,3q7.36,6.44,7.36,14.88A17.36,17.36,0,0,1,354,621.21a24.28,24.28,0,0,1-14.8,4.54,38.66,38.66,0,0,1-15.79-3.17l1.18-10.08a30.14,30.14,0,0,0,15,3.81q12.08,0,12.08-10.62,0-4.17-7.36-9.07c-4.41-3-7.76-5.23-10-6.81l-3.68-2.54q-7.26-6.27-7.26-13.71A16.29,16.29,0,0,1,329.8,560q5.91-4.53,14.89-4.54a38.6,38.6,0,0,1,13.7,2.36Z" transform="translate(-64.18 -138.44)"/><path class="cls-2" d="M415,565.85H396.6V624h-9.89V565.85H368.38v-9H415Z" transform="translate(-64.18 -138.44)"/><path class="cls-2" d="M435.81,630.11H424.56v-10.8h11.25Z" transform="translate(-64.18 -138.44)"/><rect class="cls-4" y="3727.89" width="1752.65" height="1752.65" rx="12" ry="12"/><path class="cls-2" d="M320,4919.76V4807.67H206.63V4779.8H382.2a545.12,545.12,0,0,0,10.22-90.73H243.17v-28.48H426.79q-.32,32.82-2.79,63.32a507.71,507.71,0,0,1-7.43,55.89h49.54v27.87H353.71v112.09Z" transform="translate(-64.18 -138.44)"/><path class="cls-2" d="M491.2,4812v-27.86H604.53v-27.25H533.62V4654.08H708.26V4682H566.75V4729H712.28v27.87h-74v27.25h113V4812Zm39.63,22h176.5v92.27H673.89v-63.78H530.83Z" transform="translate(-64.18 -138.44)"/><path class="cls-2" d="M906.12,4693.1H862.77v18q0,39.33,14.25,67.81a134.45,134.45,0,0,0,40.25,48l-23.53,21.67A141.49,141.49,0,0,1,864,4819.43a120.78,120.78,0,0,1-18.89-35.6,160.79,160.79,0,0,1-18.58,37.77,155.18,155.18,0,0,1-29.1,31.9l-23.85-20.44a139.19,139.19,0,0,0,39.95-50.63q13.94-29.88,13.93-70.75V4693.1H782.88V4664H906.12Zm59.45,213h-32.2V4755.65H894.05v-29.11h39.32v-76.79h32.2Zm56,9.9h-32.2V4645.1h32.2Z" transform="translate(-64.18 -138.44)"/><path class="cls-2" d="M233.69,4530.41q-4.55-2.27-12.16-2.27-11.81,0-11.8,8.72,0,4.17,7.35,8.8,6.07,3.9,9.53,6.17a35.27,35.27,0,0,1,4.17,3q7.36,6.43,7.36,14.88,0,9.45-7.26,14.8a24.35,24.35,0,0,1-14.8,4.54,38.5,38.5,0,0,1-15.79-3.18l1.18-10.08a30,30,0,0,0,15,3.82q12.08,0,12.08-10.62,0-4.17-7.36-9.08-6.61-4.44-10-6.81l-3.67-2.54q-7.26-6.26-7.26-13.7a16.3,16.3,0,0,1,6.53-13.53q5.91-4.53,14.89-4.53a38.38,38.38,0,0,1,13.7,2.36Z" transform="translate(-64.18 -138.44)"/><path class="cls-2" d="M286.69,4587.68H252.2V4520h33.49v9.25H262.1v18.88h22.32v9.26H262.1v21h24.59Z" transform="translate(-64.18 -138.44)"/><path class="cls-2" d="M349.05,4585.69q-5.08,2.81-15.89,2.81-15.51,0-24.77-9.44-9.18-9.62-9.17-25.32,0-15.52,9.35-25.14t24.59-9.62q11.07,0,15.89,2.45l-.73,9.26a41.08,41.08,0,0,0-15.16-2.45q-11,0-17.51,7.07t-6.54,18.43q0,11.81,6.35,18.51,6.45,7,17.7,7,9.54,0,15.16-3Z" transform="translate(-64.18 -138.44)"/><path class="cls-2" d="M394.79,4518.8q14.52,0,22.6,10.8,7.17,9.61,7.08,24.14-.18,15.89-7.44,25.05-7.9,10-22.24,10t-22.33-10q-7.44-9.34-7.44-25.05,0-14.7,7.08-24.23Q380.08,4518.8,394.79,4518.8Zm0,9.16a17.14,17.14,0,0,0-14.89,8q-5,7.17-5,17.79t5,17.88a17.86,17.86,0,0,0,29.77,0q4.9-7.17,4.91-17.88,0-10.53-4.91-17.79A17.11,17.11,0,0,0,394.79,4528Z" transform="translate(-64.18 -138.44)"/><path class="cls-2" d="M488.36,4587.68H477.47l-29-50.73v50.73h-9.8V4520h10.43l29.5,51.55V4520h9.8Z" transform="translate(-64.18 -138.44)"/><path class="cls-2" d="M504.88,4520.16H522q17.06,0,25.68,9.44,7.71,8.52,7.72,24,0,17.41-11.08,26-9.71,7.71-27,7.71H504.88Zm9.89,57.81H518q27.6,0,27.59-24.68,0-23.88-23.59-23.88h-7.27Z" transform="translate(-64.18 -138.44)"/><path class="cls-2" d="M582.12,4593.4H570.86v-10.8h11.26Z" transform="translate(-64.18 -138.44)"/><rect class="cls-5" x="4.75" y="7455.79" width="1752.65" height="1752.65" rx="12" ry="12"/><path class="cls-2" d="M478.79,7795.63h-9.26v15.06h-9.71v-15.06H429.87v-8.54L458.73,7743h10.8v43.57h9.26Zm-19-9.08v-30.13l-19.24,30.13Z" transform="translate(-64.18 -138.44)"/><path class="cls-2" d="M600,7743.16l-19.78,67.17H569.64l-15.07-52.64-15.16,52.64h-10.8l-19.51-67.17h10.62L534.24,7796l15.16-52.83h10.71l15,52.56,14.8-52.56Z" transform="translate(-64.18 -138.44)"/><path class="cls-2" d="M645.24,7810.69H610.75V7743h33.49v9.26h-23.6v18.88H643v9.26H620.64v21h24.6Z" transform="translate(-64.18 -138.44)"/><path class="cls-2" d="M694.71,7810.69H660.22V7743h33.49v9.26h-23.6v18.88h22.33v9.26H670.11v21h24.6Z" transform="translate(-64.18 -138.44)"/><path class="cls-2" d="M762.23,7810.33H748.8l-28-28.86v28.86H711v-67.17h9.71v25.78l25.78-25.78h13.16l-32.13,31.68Z" transform="translate(-64.18 -138.44)"/><path class="cls-2" d="M803,7753.42q-4.53-2.27-12.16-2.27-11.79,0-11.8,8.72,0,4.17,7.36,8.8,6.07,3.9,9.53,6.17a35,35,0,0,1,4.17,3q7.35,6.43,7.35,14.88,0,9.45-7.26,14.8a24.31,24.31,0,0,1-14.79,4.53,38.71,38.71,0,0,1-15.8-3.17l1.18-10.08a30.15,30.15,0,0,0,15,3.81q12.07,0,12.07-10.61,0-4.18-7.35-9.08-6.63-4.44-10-6.81c-2.27-1.57-3.49-2.42-3.68-2.54q-7.26-6.26-7.26-13.7a16.28,16.28,0,0,1,6.54-13.53q5.9-4.53,14.88-4.54a38.7,38.7,0,0,1,13.71,2.36Z" transform="translate(-64.18 -138.44)"/><path class="cls-2" d="M877.86,7753.42q-4.53-2.27-12.16-2.27-11.81,0-11.8,8.72,0,4.17,7.35,8.8,6.09,3.9,9.53,6.17a35.45,35.45,0,0,1,4.18,3q7.35,6.43,7.35,14.88,0,9.45-7.26,14.8a24.34,24.34,0,0,1-14.8,4.53,38.7,38.7,0,0,1-15.79-3.17l1.18-10.08a30.15,30.15,0,0,0,15,3.81q12.06,0,12.07-10.61,0-4.18-7.35-9.08-6.63-4.44-10-6.81l-3.68-2.54q-7.26-6.26-7.26-13.7a16.28,16.28,0,0,1,6.54-13.53q5.9-4.53,14.88-4.54a38.7,38.7,0,0,1,13.71,2.36Z" transform="translate(-64.18 -138.44)"/><path class="cls-2" d="M945.39,7743v43.84q0,13.62-8.62,20.06-6.45,4.9-16,4.9t-16-4.9q-8.54-6.35-8.53-20.06V7743h9.89v43.39q0,7.35,3.72,11.62,3.81,4.53,10.89,4.53t11.08-4.53q3.63-4.18,3.63-11.62V7743Z" transform="translate(-64.18 -138.44)"/><path class="cls-2" d="M962.27,7743.16H978.7q21.15,0,21.15,17.07,0,11.34-11.08,14.79a18.77,18.77,0,0,1,9.44,5.81,14.59,14.59,0,0,1,3.63,9.89q0,19.6-25.5,19.61H962.27ZM972,7801h4.54q15.62,0,15.61-10.35,0-6.61-5.35-9-3.54-1.55-11.26-1.54H972Zm.18-30.22h5q13.07,0,13.07-9.81,0-8.52-11.53-8.53h-6.54Z" transform="translate(-64.18 -138.44)"/><path class="cls-2" d="M1048.4,7753.42q-4.53-2.27-12.16-2.27-11.81,0-11.8,8.72,0,4.17,7.35,8.8,6.09,3.9,9.53,6.17a35.45,35.45,0,0,1,4.18,3q7.35,6.43,7.35,14.88,0,9.45-7.26,14.8a24.34,24.34,0,0,1-14.8,4.53,38.66,38.66,0,0,1-15.79-3.17l1.18-10.08a30.15,30.15,0,0,0,15,3.81q12.06,0,12.07-10.61,0-4.18-7.35-9.08-6.63-4.44-10-6.81l-3.68-2.54q-7.26-6.26-7.26-13.7a16.28,16.28,0,0,1,6.54-13.53q5.9-4.53,14.88-4.54a38.7,38.7,0,0,1,13.71,2.36Z" transform="translate(-64.18 -138.44)"/><path class="cls-2" d="M1114.3,7808.7q-5.08,2.8-15.89,2.81-15.51,0-24.78-9.44-9.17-9.61-9.16-25.32,0-15.53,9.35-25.14t24.59-9.62q11.07,0,15.89,2.45l-.73,9.25a41.33,41.33,0,0,0-15.16-2.45q-11,0-17.51,7.08t-6.54,18.43q0,11.79,6.35,18.51,6.45,7,17.7,7,9.54,0,15.16-3Z" transform="translate(-64.18 -138.44)"/><path class="cls-2" d="M1177,7810.33h-10.44l-9.8-22.69c-1.33-3.09-2.54-5-3.63-5.81q-2-1.55-6.35-1.54h-3.54v30h-9.71v-67.17h17.79q20,0,20,18.16a14.07,14.07,0,0,1-3.72,10,17.53,17.53,0,0,1-9.71,5.18q5.09,1,7.53,6.71Zm-33.76-39.39h4.63q6,0,9.44-2.18a8.06,8.06,0,0,0,4.17-7.44c0-3.93-1.18-6.51-3.54-7.72-1.63-.78-5-1.18-10-1.18h-4.72Z" transform="translate(-64.18 -138.44)"/><path class="cls-2" d="M1196.8,7810.33h-10v-67.17h10Z" transform="translate(-64.18 -138.44)"/><path class="cls-2" d="M1212.22,7743h17.07q10,0,15.25,5,5.63,5.09,5.62,15,0,9.45-6.17,15.07-5.9,5.17-15.34,5.17h-6.53v27.5h-9.9Zm9.9,31h2.27q8.16,0,11.52-2,4.27-2.46,4.27-9,0-10.71-10.08-10.71h-8Z" transform="translate(-64.18 -138.44)"/><path class="cls-2" d="M1301.26,7752.15h-18.42v58.18h-9.9v-58.18h-18.33v-9h46.65Z" transform="translate(-64.18 -138.44)"/><path class="cls-2" d="M1319.87,7810.33h-10v-67.17h10Z" transform="translate(-64.18 -138.44)"/><path class="cls-2" d="M1362.25,7741.8q14.52,0,22.6,10.8,7.17,9.63,7.08,24.15-.18,15.89-7.44,25.05-7.89,10-22.24,10t-22.32-10q-7.46-9.35-7.45-25.05,0-14.72,7.08-24.24Q1347.56,7741.8,1362.25,7741.8Zm0,9.17a17.08,17.08,0,0,0-14.88,8q-5,7.17-5,17.79t5,17.88a17.87,17.87,0,0,0,29.77,0q4.9-7.17,4.9-17.88,0-10.53-4.9-17.79A17.09,17.09,0,0,0,1362.25,7751Z" transform="translate(-64.18 -138.44)"/><path class="cls-2" d="M1455.83,7810.69h-10.89l-29-50.73v50.73h-9.8V7743h10.44l29.49,51.56V7743h9.81Z" transform="translate(-64.18 -138.44)"/><path class="cls-2" d="M708.72,8888.39v-20h81v-39.71q-18.19-3.33-30.62-14.64A50.93,50.93,0,0,1,746.77,8797a52,52,0,0,1,12.54-59.46,61.83,61.83,0,0,1,18.85-11.32,66.64,66.64,0,0,1,24.19-4.21,65.29,65.29,0,0,1,23.73,4.21,61.76,61.76,0,0,1,18.86,11.32,54.94,54.94,0,0,1,12.31,17.19,50.11,50.11,0,0,1,4.55,21.19,51.53,51.53,0,0,1-4.32,21.08,52.61,52.61,0,0,1-12.09,17.08q-12.66,11.76-31.51,14.64v39.71h81.2v20Zm126.9-112.48a32.41,32.41,0,0,0-8.87-22.85q-9.11-9.77-24.4-9.76t-24.63,9.76a32.44,32.44,0,0,0-9.1,22.85q0,13.76,9.1,22.85a32.11,32.11,0,0,0,10.65,7,36.51,36.51,0,0,0,14,2.55q15.3,0,24.4-9.76A32.12,32.12,0,0,0,835.62,8775.91Z" transform="translate(-64.18 -138.44)"/><path class="cls-2" d="M923,8824.5v-97.84h95.4v97.84Zm71.66-77.65H947v57.46h47.7Zm87.19,167.5H959.64v-65.89H984v45.7h97.84Zm26.18-124h-31.28v70.11h-24V8715.57h24v54.35h31.28Z" transform="translate(-64.18 -138.44)"/><path class="cls-2" d="M1179.05,8888.39v-20h81v-39.71q-18.19-3.33-30.61-14.64A51,51,0,0,1,1217.1,8797a52,52,0,0,1,12.54-59.46,61.83,61.83,0,0,1,18.85-11.32,66.64,66.64,0,0,1,24.19-4.21,65.38,65.38,0,0,1,23.74,4.21,61.83,61.83,0,0,1,18.85,11.32,55.13,55.13,0,0,1,12.32,17.19,50.1,50.1,0,0,1,4.54,21.19,51.53,51.53,0,0,1-4.32,21.08,52.61,52.61,0,0,1-12.09,17.08q-12.65,11.76-31.51,14.64v39.71h81.2v20ZM1306,8775.91a32.42,32.42,0,0,0-8.88-22.85q-9.11-9.77-24.4-9.76t-24.63,9.76a32.43,32.43,0,0,0-9.09,22.85q0,13.76,9.09,22.85a32.11,32.11,0,0,0,10.65,7,36.51,36.51,0,0,0,14,2.55q15.3,0,24.4-9.76A32.13,32.13,0,0,0,1306,8775.91Z" transform="translate(-64.18 -138.44)"/><path class="cls-2" d="M1493.64,8841.36a135.38,135.38,0,0,1-27.17-16.09,85.39,85.39,0,0,1-20.08-21.41,101,101,0,0,1-19.75,22.08,128.5,128.5,0,0,1-28.39,17.64l-14-17.09a136.35,136.35,0,0,0,17.41-9.2,87.75,87.75,0,0,0,15.87-12.54,62.89,62.89,0,0,0,11.53-15,37,37,0,0,0,4.44-18.08v-3.55h-39.71V8748h105.38v20.19h-40.38v3.1a35.74,35.74,0,0,0,4.33,17.31,57.82,57.82,0,0,0,11.42,14.64,82.83,82.83,0,0,0,15.64,12.2,138.09,138.09,0,0,0,17.64,9.1Zm-80.53-104.72v-20h66.33v20Zm144.43,177.71H1434.41v-62.56h24.4v42.37h98.73Zm-28.4-198.78h24v144.87h-24v-57.91H1493.2v-20.41h35.94Z" transform="translate(-64.18 -138.44)"/><path class="cls-2" d="M1636.74,8855.33v-32.61q-12.43.45-23.52.67t-19.08.22l-1.55-20.63q8,0,18.64-.34t22.73-.77q12.09-.45,24.63-1.11t24.41-1.44q11.87-.78,22.07-1.67t17.53-1.77l2.21,20.41q-6,.88-13.31,1.66t-15.53,1.44q-8.21.68-17.19,1.22t-17.86,1v33.72Zm-28.4-101.6a31.64,31.64,0,0,1,4-15.76,39,39,0,0,1,10.65-12.09,51.45,51.45,0,0,1,15.31-7.76,59.47,59.47,0,0,1,35.94,0,51.45,51.45,0,0,1,15.31,7.76,38.69,38.69,0,0,1,10.65,12.09,33.1,33.1,0,0,1,0,31.51,38.69,38.69,0,0,1-10.65,12.09,51.21,51.21,0,0,1-15.31,7.76,58.5,58.5,0,0,1-18,2.78,61.34,61.34,0,0,1-18.19-2.67,49.42,49.42,0,0,1-15.31-7.65,37.48,37.48,0,0,1-10.54-12.09A32.71,32.71,0,0,1,1608.34,8753.73Zm24.18,0q0,8.21,6.77,13.86t17,5.66a27.23,27.23,0,0,0,9.21-1.55,25.1,25.1,0,0,0,7.54-4.22,20.34,20.34,0,0,0,5.1-6.21,15.82,15.82,0,0,0,1.89-7.54,15.21,15.21,0,0,0-1.89-7.44,21,21,0,0,0-5.1-6.1,24.86,24.86,0,0,0-7.54-4.21,27,27,0,0,0-9.21-1.56,27.64,27.64,0,0,0-9.43,1.56,24.86,24.86,0,0,0-7.54,4.21,19.48,19.48,0,0,0-5,6.1A15.92,15.92,0,0,0,1632.52,8753.73Zm129.12,160.62H1636.29v-51.47h24.41v31.28h100.94Zm-74.1-60.57v-20h45.71V8715.57h24v153.74h-24v-15.53Z" transform="translate(-64.18 -138.44)"/><path class="cls-2" d="M1361.21,9120q23.61,13.53,34,24.76,15.54,17,15.55,37.73,0,23.61-15,39.45-13.82,13.82-34.55,19.29v25.92H1337v-22.75a111.06,111.06,0,0,1-48.38-10.08l3.45-30.81a82.65,82.65,0,0,0,44.93,12.38V9140.4q-24.78-15-35.14-25.63-16.41-16.7-16.41-36,0-22.17,15.26-36.86,14.12-13.55,36.29-17.86v-20.44h24.19v18.71a142.93,142.93,0,0,1,20,2.45,112,112,0,0,1,17.71,5l-5.18,26.78q-12.39-5.46-32.54-6.91ZM1337,9052q-20.74,6-20.74,26.2,0,13.24,20.74,26.49Zm24.19,159.24q19-7.18,19-29.08,0-12.68-19-26.21Z" transform="translate(-64.18 -138.44)"/><path class="cls-2" d="M1496.84,9056.6l-1.73,54.14A82.09,82.09,0,0,1,1521,9107q29.94,0,48.66,17.28,19,17.85,19,47.8,0,35.42-22.46,54.43-20.73,18.14-55.87,18.14-29.08,0-48.38-8.35v-30.53q22.47,10.95,49.53,10.94,20.74,0,33.41-10.07,13.53-10.95,13.53-30.82,0-41.17-46.07-41.18a174.72,174.72,0,0,0-48.1,6.91l2-113.74H1578v28.79Z" transform="translate(-64.18 -138.44)"/><path class="cls-2" d="M1696.4,9026.08q39.15,0,57,36.86,13.53,27.93,13.53,72,0,108.85-70.55,108.85t-70.56-108.85q0-44.62,13.25-72Q1656.94,9026.09,1696.4,9026.08Zm0,29.66q-24.78,0-34,28.22-5.48,16.71-5.47,51,0,34.56,5.47,51,8.92,28.52,34,28.51,24.76,0,34-28.51,5.46-16.69,5.47-51t-5.47-51Q1721.16,9055.74,1696.4,9055.74Z" transform="translate(-64.18 -138.44)"/><rect class="cls-5" x="14.25" y="9319.74" width="1752.65" height="1752.65" rx="12" ry="12"/><path class="cls-2" d="M444.31,9674.64h-9.8v-55.09l-8.53,7.17-5.72-6.27,15.88-13.52h8.17Z" transform="translate(-64.18 -138.44)"/><path class="cls-2" d="M505.76,9674.64H465l.09-8.08L480,9649.77q14.43-16.43,14.43-25.32a8.82,8.82,0,0,0-2.68-6.72,9.44,9.44,0,0,0-6.76-2.54q-7.08,0-16.15,5.17l-1.73-9.35q9.44-4.8,17.43-4.8,8.81,0,14,4.35,5.82,4.73,5.81,14,0,10.35-16.79,30.13l-9.35,11h27.6Z" transform="translate(-64.18 -138.44)"/><path class="cls-2" d="M632.64,9607.11l-19.79,67.17H602.23l-15.06-52.65L572,9674.28h-10.8l-19.51-67.17h10.61l14.53,52.83L582,9607.11H592.7l15,52.55,14.79-52.55Z" transform="translate(-64.18 -138.44)"/><path class="cls-2" d="M677.84,9674.64H643.35v-67.71h33.49v9.26h-23.6v18.88h22.33v9.26H653.24v21h24.6Z" transform="translate(-64.18 -138.44)"/><path class="cls-2" d="M727.3,9674.64H692.81v-67.71H726.3v9.26H702.71v18.88H725v9.26H702.71v21H727.3Z" transform="translate(-64.18 -138.44)"/><path class="cls-2" d="M794.83,9674.28H781.4l-28-28.87v28.87h-9.71v-67.17h9.71v25.78l25.78-25.78h13.16l-32.13,31.68Z" transform="translate(-64.18 -138.44)"/><path class="cls-2" d="M835.58,9617.37q-4.53-2.27-12.16-2.27-11.8,0-11.8,8.71,0,4.19,7.35,8.81,6.07,3.9,9.53,6.17a37.2,37.2,0,0,1,4.18,3q7.35,6.45,7.35,14.89a17.36,17.36,0,0,1-7.26,14.79A24.28,24.28,0,0,1,818,9676a38.5,38.5,0,0,1-15.79-3.18l1.18-10.07a30.15,30.15,0,0,0,15,3.81q12.06,0,12.07-10.62,0-4.17-7.35-9.07-6.63-4.46-10-6.81l-3.68-2.54q-7.26-6.27-7.26-13.71a16.29,16.29,0,0,1,6.53-13.52q5.91-4.55,14.89-4.54a38.6,38.6,0,0,1,13.7,2.36Z" transform="translate(-64.18 -138.44)"/><path class="cls-2" d="M910.46,9617.37q-4.55-2.27-12.16-2.27-11.81,0-11.8,8.71,0,4.19,7.35,8.81,6.07,3.9,9.53,6.17a37.2,37.2,0,0,1,4.18,3q7.35,6.45,7.35,14.89a17.36,17.36,0,0,1-7.26,14.79,24.28,24.28,0,0,1-14.8,4.54,38.5,38.5,0,0,1-15.79-3.18l1.18-10.07a30.14,30.14,0,0,0,15,3.81q12.07,0,12.08-10.62,0-4.17-7.36-9.07c-4.41-3-7.76-5.24-10-6.81l-3.68-2.54q-7.26-6.27-7.26-13.71a16.29,16.29,0,0,1,6.53-13.52q5.91-4.55,14.89-4.54a38.6,38.6,0,0,1,13.7,2.36Z" transform="translate(-64.18 -138.44)"/><path class="cls-2" d="M978,9606.93v43.84q0,13.6-8.63,20.06-6.43,4.89-16,4.9a25.89,25.89,0,0,1-16-4.9q-8.53-6.36-8.54-20.06v-43.84h9.9v43.39q0,7.35,3.72,11.61,3.81,4.54,10.89,4.54t11.07-4.54q3.63-4.17,3.63-11.61v-43.39Z" transform="translate(-64.18 -138.44)"/><path class="cls-2" d="M994.87,9607.11h16.43q21.14,0,21.14,17.07,0,11.34-11.07,14.79a18.81,18.81,0,0,1,9.44,5.81,14.58,14.58,0,0,1,3.63,9.89q0,19.6-25.5,19.61H994.87Zm9.71,57.82h4.54q15.6,0,15.61-10.35,0-6.63-5.36-9-3.54-1.55-11.25-1.55h-3.54Zm.18-30.23h5q13.08,0,13.07-9.8,0-8.54-11.52-8.53h-6.54Z" transform="translate(-64.18 -138.44)"/><path class="cls-2" d="M1081,9617.37q-4.55-2.27-12.16-2.27-11.8,0-11.8,8.71,0,4.19,7.35,8.81,6.08,3.9,9.53,6.17a35.69,35.69,0,0,1,4.17,3q7.37,6.45,7.36,14.89a17.36,17.36,0,0,1-7.26,14.79,24.28,24.28,0,0,1-14.8,4.54,38.5,38.5,0,0,1-15.79-3.18l1.18-10.07a30.14,30.14,0,0,0,15,3.81q12.07,0,12.08-10.62,0-4.17-7.36-9.07c-4.41-3-7.76-5.24-10-6.81l-3.68-2.54q-7.26-6.27-7.26-13.71a16.29,16.29,0,0,1,6.53-13.52q5.91-4.55,14.89-4.54a38.6,38.6,0,0,1,13.7,2.36Z" transform="translate(-64.18 -138.44)"/><path class="cls-2" d="M1146.89,9672.64q-5.09,2.82-15.88,2.82-15.52,0-24.78-9.44-9.17-9.63-9.17-25.33,0-15.51,9.35-25.14t24.6-9.62q11.07,0,15.88,2.45l-.72,9.26a41.33,41.33,0,0,0-15.16-2.45q-11,0-17.52,7.08t-6.53,18.42q0,11.8,6.35,18.52,6.45,7,17.7,7,9.52,0,15.16-3Z" transform="translate(-64.18 -138.44)"/><path class="cls-2" d="M1209.61,9674.28h-10.44l-9.8-22.69q-2-4.64-3.63-5.81-2-1.55-6.36-1.55h-3.54v30.05h-9.71v-67.17h17.79q20,0,20,18.15a14.08,14.08,0,0,1-3.72,10,17.46,17.46,0,0,1-9.71,5.17q5.08,1,7.53,6.72Zm-33.77-39.39h4.63c4,0,7.14-.73,9.44-2.18a8.07,8.07,0,0,0,4.18-7.45q0-5.9-3.54-7.71-2.44-1.18-10-1.18h-4.72Z" transform="translate(-64.18 -138.44)"/><path class="cls-2" d="M1229.39,9674.28h-10v-67.17h10Z" transform="translate(-64.18 -138.44)"/><path class="cls-2" d="M1244.82,9606.93h17.06q10,0,15.25,5,5.63,5.08,5.63,15,0,9.44-6.17,15.06-5.91,5.18-15.34,5.18h-6.54v27.5h-9.89Zm9.89,30.95H1257q8.18,0,11.53-2,4.26-2.44,4.27-9,0-10.71-10.08-10.71h-8Z" transform="translate(-64.18 -138.44)"/><path class="cls-2" d="M1333.86,9616.1h-18.43v58.18h-9.89V9616.1h-18.33v-9h46.65Z" transform="translate(-64.18 -138.44)"/><path class="cls-2" d="M1352.46,9674.28h-10v-67.17h10Z" transform="translate(-64.18 -138.44)"/><path class="cls-2" d="M1394.85,9605.75q14.52,0,22.6,10.8,7.17,9.63,7.08,24.14-.18,15.89-7.44,25.06-7.9,10-22.24,10t-22.33-10q-7.44-9.36-7.44-25.06,0-14.7,7.08-24.23Q1380.14,9605.75,1394.85,9605.75Zm0,9.17a17.11,17.11,0,0,0-14.89,8q-5,7.17-5,17.78t5,17.89a17.87,17.87,0,0,0,29.77,0q4.9-7.17,4.91-17.89,0-10.52-4.91-17.78A17.08,17.08,0,0,0,1394.85,9614.92Z" transform="translate(-64.18 -138.44)"/><path class="cls-2" d="M1488.42,9674.64h-10.89l-29-50.74v50.74h-9.8v-67.71h10.43l29.5,51.55v-51.55h9.8Z" transform="translate(-64.18 -138.44)"/><path class="cls-2" d="M1096.26,10688.22a121.07,121.07,0,0,1-27.62-18.08,81.87,81.87,0,0,1-19-23.4,83.49,83.49,0,0,1-18.74,26.06,129.47,129.47,0,0,1-29.18,21l-14.86-18.64q22.18-10.42,35.72-27.73a63,63,0,0,0,14-40.38v-24.18h25.52v23.52a57.33,57.33,0,0,0,13.53,37.93q13.53,16,35,24.85Zm-57.46,95.62v-81.42H1063v22h67.45v-22h24v81.42Zm91.63-20.19v-19.3H1063v19.3Zm0-184.14h24v114.92h-24Z" transform="translate(-64.18 -138.44)"/><path class="cls-2" d="M1296.15,10724.16a144.23,144.23,0,0,1-27.84-24.29q-12.54-14.09-18.52-29a111.56,111.56,0,0,1-18.75,31,122.57,122.57,0,0,1-28.73,25.18l-15.53-17.53a112.81,112.81,0,0,0,19.08-14.53,93.77,93.77,0,0,0,16-19.86,111.39,111.39,0,0,0,11-24.29,93.25,93.25,0,0,0,4.11-28.29l.22-32.39h24.62v31.73a91.71,91.71,0,0,0,14.65,50.58,95,95,0,0,0,15.64,19.08,107.28,107.28,0,0,0,19.19,14.42Zm54.8-144.65v62.79h32.84v20.41H1351v110.93h-24v-194.13Z" transform="translate(-64.18 -138.44)"/><path class="cls-2" d="M1402.86,10688.44v-97.83h95.4v97.83Zm71.66-77.65h-47.7v57.46h47.7Zm87.19,167.5H1439.47v-65.89h24.4v45.71h97.84Zm26.18-124h-31.28v70.1h-24v-144.87h24v54.36h31.28Z" transform="translate(-64.18 -138.44)"/><path class="cls-2" d="M1646.24,10719.28v-32.61q-12.43.45-23.52.66t-19.08.23l-1.55-20.64q8,0,18.64-.33t22.73-.78q12.09-.43,24.63-1.1t24.41-1.45q11.87-.77,22.07-1.66t17.53-1.77l2.21,20.41q-6,.89-13.31,1.66t-15.53,1.44q-8.21.68-17.19,1.22t-17.86,1v33.72Zm-28.4-101.61a31.6,31.6,0,0,1,4-15.75,39,39,0,0,1,10.65-12.09,51.7,51.7,0,0,1,15.31-7.77,59.67,59.67,0,0,1,35.94,0,51.7,51.7,0,0,1,15.31,7.77,38.69,38.69,0,0,1,10.65,12.09,33.08,33.08,0,0,1,0,31.5,38.62,38.62,0,0,1-10.65,12.1,51.68,51.68,0,0,1-15.31,7.76,58.49,58.49,0,0,1-18,2.77,61.34,61.34,0,0,1-18.19-2.66,49.64,49.64,0,0,1-15.31-7.65,37.48,37.48,0,0,1-10.54-12.09A32.75,32.75,0,0,1,1617.84,10617.67Zm24.18,0q0,8.22,6.77,13.87t17,5.66a27,27,0,0,0,9.21-1.56,24.86,24.86,0,0,0,7.54-4.21,20.58,20.58,0,0,0,5.1-6.21,15.86,15.86,0,0,0,1.89-7.55,15.2,15.2,0,0,0-1.89-7.43,20.92,20.92,0,0,0-5.1-6.1,24.88,24.88,0,0,0-7.54-4.22,27.23,27.23,0,0,0-9.21-1.55,27.89,27.89,0,0,0-9.43,1.55,24.88,24.88,0,0,0-7.54,4.22,19.36,19.36,0,0,0-5,6.1A15.91,15.91,0,0,0,1642,10617.67Zm129.12,160.62H1645.79v-51.46h24.41v31.28h100.94Zm-74.1-60.56v-20h45.71v-118.25h24v153.75h-24v-15.53Z" transform="translate(-64.18 -138.44)"/><path class="cls-2" d="M1224.13,10983.9q23.61,13.55,34,24.77,15.56,17,15.55,37.72,0,23.63-15,39.46-13.83,13.81-34.56,19.29v25.92h-24.19v-22.75a111.09,111.09,0,0,1-48.38-10.08l3.46-30.82a82.52,82.52,0,0,0,44.92,12.39v-75.45q-24.76-15-35.13-25.63-16.41-16.69-16.42-36,0-22.17,15.27-36.86,14.1-13.53,36.28-17.85v-20.45h24.19v18.72a141.46,141.46,0,0,1,20,2.45,112,112,0,0,1,17.71,5l-5.18,26.78q-12.39-5.46-32.54-6.91Zm-24.19-68q-20.73,6-20.73,26.21,0,13.25,20.73,26.49Zm24.19,159.25q19-7.2,19-29.08,0-12.68-19-26.21Z" transform="translate(-64.18 -138.44)"/><path class="cls-2" d="M1395.18,11106.58h-31.1v-174.8l-27.07,22.75-18.14-19.87,50.39-42.91h25.92Z" transform="translate(-64.18 -138.44)"/><path class="cls-2" d="M1463.72,11068.57q28.5,11.81,52.69,11.8,19.29,0,31.11-8.63,13.53-9.51,13.53-27.94,0-34.56-48.38-34.55h-21.31v-28.8H1500q26.77,0,40.32-5.19,19.86-8.06,19.87-30.52a19.9,19.9,0,0,0-3-10.66,27.27,27.27,0,0,0-8.2-8.35,43.81,43.81,0,0,0-12.24-5.47,55,55,0,0,0-15.12-2q-21.31,0-48.09,12.38l-2.88-31.1q26.77-10.08,52.7-10.08,28.5,0,46.07,11.52,21.88,14.11,21.89,42.62,0,34-33.12,50.39,33.69,12.68,33.69,51.55,0,29.65-22.75,47.23-21,15.82-53.85,15.84-33.4,0-55-8.93Z" transform="translate(-64.18 -138.44)"/><path class="cls-2" d="M1680.84,10920.55l-1.72,54.14A82,82,0,0,1,1705,10971q30,0,48.67,17.27,19,17.86,19,47.81,0,35.41-22.47,54.42-20.73,18.15-55.86,18.15-29.1,0-48.38-8.36v-30.52q22.45,11,49.53,10.94,20.73,0,33.4-10.08,13.54-10.93,13.54-30.81,0-41.18-46.08-41.18a174.33,174.33,0,0,0-48.09,6.91l2-113.75h111.73v28.8Z" transform="translate(-64.18 -138.44)"/><rect class="cls-4" x="14.25" y="11158.52" width="1752.65" height="1752.65" rx="12" ry="12"/><path class="cls-2" d="M461.47,12075.73v270.94H428v-161.94H382.51a72.56,72.56,0,0,1-21.36,42.11,75,75,0,0,1-24.31,15.79,78.22,78.22,0,0,1-29.57,5.57,79.42,79.42,0,0,1-29.73-5.57,74.54,74.54,0,0,1-24.46-15.79,72.1,72.1,0,0,1-16.41-24.31,79.19,79.19,0,0,1-5.88-30.81,78,78,0,0,1,5.88-30.65,72.68,72.68,0,0,1,16.41-24.16,76.58,76.58,0,0,1,24.46-15.94,77.4,77.4,0,0,1,29.73-5.73,76.24,76.24,0,0,1,29.57,5.73,77.13,77.13,0,0,1,24.31,15.94,80.47,80.47,0,0,1,13.47,17.81,70.08,70.08,0,0,1,7.58,21.52H428v-80.51Zm-196.93,96a53.85,53.85,0,0,0,3.25,19.35,45.08,45.08,0,0,0,9,14.71,38.46,38.46,0,0,0,13.47,9.45,45,45,0,0,0,33.6,0,38.13,38.13,0,0,0,13.62-9.45,47.19,47.19,0,0,0,9.13-14.71,56.18,56.18,0,0,0,0-38.55,46.91,46.91,0,0,0-9.13-14.86,38.13,38.13,0,0,0-13.62-9.45,45,45,0,0,0-33.6,0,38.46,38.46,0,0,0-13.47,9.45,44.85,44.85,0,0,0-9,14.86A54.29,54.29,0,0,0,264.54,12171.72Z" transform="translate(-64.18 -138.44)"/><path class="cls-2" d="M594,12201.76a273.32,273.32,0,0,1-37.93,5.72,385.25,385.25,0,0,1-38.86,1.4v-122.31h70.6v29.72H551v61a111,111,0,0,0,19-1.23,173.45,173.45,0,0,0,19.67-3.72Zm-23.22,94.13V12269H747.9v26.94Zm88.56,76.17q-26.64,0-43.66-9.6-17.35-9.28-17.34-24.46,0-15.48,17.34-25.39t43.66-9.91q26.94,0,44.28,9.91,17.64,9.9,17.65,25.39,0,15.17-17.65,24.46Q686.58,12372.06,659.34,12372.06Zm30-172.47a328.43,328.43,0,0,1-41.8,7.43,414.11,414.11,0,0,1-44.28,1.86v-122.31h70.6v29.72H637v61a149.46,149.46,0,0,0,22.61-2q13-2,25.08-5.11Zm-79.27,60.07v-29.42h98.47v29.42Zm49.24,87.94a66.11,66.11,0,0,0,19-2.48q8.21-2.48,8.21-7.12t-8.21-7.9a51.62,51.62,0,0,0-19-3.25,47.11,47.11,0,0,0-18.27,3.25q-7.74,3.25-7.74,7.9t7.74,7.12A60.2,60.2,0,0,0,659.34,12347.6Zm49.85-271.87h33.44V12221H709.19v-64.09h-43v-27.25h43Z" transform="translate(-64.18 -138.44)"/><path class="cls-2" d="M790.63,12252.85a208.39,208.39,0,0,0,36.54-26.63,171.42,171.42,0,0,0,26.63-30.81,142.33,142.33,0,0,0,16.72-33.91,154.53,154.53,0,0,0,7.43-35.61H808.9v-29.72H914.49q0,35-7.74,63.16h37.77v-79h32.21v256.39H944.52v-149.25H896.84a178.15,178.15,0,0,1-33.29,50.48,227.78,227.78,0,0,1-50,39.63Zm243.69,93.82h-32.2v-270.94h32.2Z" transform="translate(-64.18 -138.44)"/><path class="cls-2" d="M1093.15,12103q26.94-8.05,48.93-8,26.94,0,44,13.31,19.5,15.5,19.5,45.83t-27.55,61.62q-6.21,7.13-10.69,12.85a87.28,87.28,0,0,0-7,10.06,54.88,54.88,0,0,0-6.2,26v10.53h-30v-10.53q0-29.1,21.36-55.73,8.37-10.53,13.16-16.88t6.35-8.51q8.67-14.25,8.67-29.42,0-13.3-9.29-20.75-8.67-6.79-23.53-6.81-18,0-46.14,9.29Zm64.1,228.21h-35.92v-34.06h35.92Z" transform="translate(-64.18 -138.44)"/><path class="cls-2" d="M256.74,11959.77H238.32V12018h-9.9v-58.18H210.09v-9h46.65Z" transform="translate(-64.18 -138.44)"/><path class="cls-2" d="M314.65,12018.31h-9.81v-30.22H277v30.22h-9.89v-67.71H277v28.23h27.86v-28.23h9.81Z" transform="translate(-64.18 -138.44)"/><path class="cls-2" d="M341.33,12018h-10v-67.17h10Z" transform="translate(-64.18 -138.44)"/><path class="cls-2" d="M400.69,12018H390.25l-9.8-22.69q-2-4.64-3.63-5.81c-1.34-1-3.45-1.55-6.36-1.55h-3.54V12018h-9.71v-67.17H375q20,0,20,18.15a14.08,14.08,0,0,1-3.72,10,17.46,17.46,0,0,1-9.71,5.17c3.38.67,5.9,2.91,7.53,6.72Zm-33.77-39.39h4.63c4,0,7.14-.73,9.44-2.18a8.09,8.09,0,0,0,4.18-7.45q0-5.9-3.54-7.71c-1.64-.79-5-1.18-10-1.18h-4.72Z" transform="translate(-64.18 -138.44)"/><path class="cls-2" d="M411.4,11950.78h17.15q17.06,0,25.69,9.44,7.71,8.54,7.71,24,0,17.43-11.07,26-9.72,7.71-27,7.72H411.4Zm9.89,57.82h3.27q27.58,0,27.59-24.69,0-23.86-23.6-23.87h-7.26Z" transform="translate(-64.18 -138.44)"/><path class="cls-2" d="M488.63,12024H477.38v-10.8h11.25Z" transform="translate(-64.18 -138.44)"/></g></svg>