<svg xmlns="http://www.w3.org/2000/svg" viewBox="0 0 1766.89 13981.48"><defs><style>.cls-1{fill:#59bbc7;}.cls-2{fill:#fff;}.cls-3{fill:#231f20;}.cls-4{fill:#22313f;}.cls-5{fill:#2c3e50;}</style></defs><title>pricefinal</title><g id="Layer_3" data-name="Layer 3"><rect class="cls-1" y="1863.95" width="1752.65" height="1752.65" rx="12" ry="12"/><path class="cls-2" d="M874,2798.31a25.14,25.14,0,0,1,1.9-9.9,23.46,23.46,0,0,1,5.3-7.8,25.1,25.1,0,0,1,34.9,0,24,24,0,0,1,5.35,7.8,24.64,24.64,0,0,1,2,9.9,25,25,0,0,1-2,10,23.95,23.95,0,0,1-13.2,12.95,25.24,25.24,0,0,1-9.55,1.8,25.61,25.61,0,0,1-9.6-1.8,24.08,24.08,0,0,1-7.9-5.1,23.36,23.36,0,0,1-5.3-7.85A25.53,25.53,0,0,1,874,2798.31Zm10.9,0a17.47,17.47,0,0,0,1,6.25,14.72,14.72,0,0,0,2.9,4.75,12.39,12.39,0,0,0,4.35,3.05,14.08,14.08,0,0,0,5.5,1,13.9,13.9,0,0,0,5.35-1,12.31,12.31,0,0,0,4.4-3.05,15.37,15.37,0,0,0,3-4.75,18.16,18.16,0,0,0,0-12.45,15.05,15.05,0,0,0-3-4.8,12.19,12.19,0,0,0-4.4-3,13.9,13.9,0,0,0-5.35-1.05,14.08,14.08,0,0,0-5.5,1.05,12.26,12.26,0,0,0-4.35,3,14.43,14.43,0,0,0-2.9,4.8A17.5,17.5,0,0,0,884.94,2798.31Zm51.6-31h10.8v87.5h-10.8Z" transform="translate(-64.18 -138.44)"/><path class="cls-2" d="M1023.94,2851.61h-10.4v-48H1003v25.5h-35.3v-55.7H1003v20.9h10.5v-25.5h10.4Zm-31.6-69.1h-13.8V2820h13.8Zm49.7,72.3h-10.4v-87.5H1042Z" transform="translate(-64.18 -138.44)"/><path class="cls-2" d="M1058,2790.31a19.61,19.61,0,0,1,1.85-8.5,21.52,21.52,0,0,1,5-6.8,26.22,26.22,0,0,1,7.55-4.45,26.89,26.89,0,0,1,18.55,0,26,26,0,0,1,7.6,4.45,22.3,22.3,0,0,1,5.1,6.8,20.3,20.3,0,0,1,0,17.15,22.71,22.71,0,0,1-5.1,6.75,25.4,25.4,0,0,1-7.6,4.4,27.68,27.68,0,0,1-18.55,0,25.64,25.64,0,0,1-7.55-4.4,21.9,21.9,0,0,1-5-6.75A19.78,19.78,0,0,1,1058,2790.31Zm10.9,0a12.37,12.37,0,0,0,1,5,11.89,11.89,0,0,0,2.75,4,13.15,13.15,0,0,0,4.1,2.6,13.42,13.42,0,0,0,5,.95,13,13,0,0,0,9.1-3.5,11.9,11.9,0,0,0,3.8-9,11.58,11.58,0,0,0-3.8-8.9,12.77,12.77,0,0,0-9.1-3.6,13.23,13.23,0,0,0-5,1,13,13,0,0,0-4.1,2.6,11.79,11.79,0,0,0-2.75,3.95A12.34,12.34,0,0,0,1068.94,2790.31Zm9.5,68.7v-24.8h42.1v-6.9h-42.1v-8.9h52.9v24.4h-42.2v7.2h44.4v9Zm42.1-91.7h10.8v46.9h-10.8Z" transform="translate(-64.18 -138.44)"/><path class="cls-2" d="M1201.44,2793.41q12.4,0,19.3,8.9,6.19,7.89,6.2,19.6t-6.2,19.6q-6.9,8.89-19.3,8.9t-19.4-8.9q-6.11-7.71-6.1-19.6t6.1-19.6Q1188.94,2793.4,1201.44,2793.41Zm0,9.4a12.75,12.75,0,0,0-10.8,5.4q-3.8,5.29-3.8,13.7t3.8,13.7a12.75,12.75,0,0,0,10.8,5.4,12.49,12.49,0,0,0,10.7-5.4q3.9-5.21,3.9-13.7t-3.9-13.7A12.49,12.49,0,0,0,1201.44,2802.81Z" transform="translate(-64.18 -138.44)"/><path class="cls-2" d="M1265.84,2804.51c-.87-.14-1.67-.25-2.4-.35a16.26,16.26,0,0,0-2.2-.15q-5.81,0-8.6,5.7a26.69,26.69,0,0,0-2.6,12.4v27.1h-10.7V2808q0-3.81-.15-7.15t-.35-6.25h10.8v6.7q4.6-7.91,11.7-7.9a17.75,17.75,0,0,1,4.5.6Z" transform="translate(-64.18 -138.44)"/><path class="cls-2" d="M1300.84,2825.61a77.69,77.69,0,0,0,18.2-9.3,45.39,45.39,0,0,0,12.3-12.9l-27.3,2.5-2.1-9.9,33.7-2.1a52.29,52.29,0,0,0,2.1-11.2h-31.5v-9.3h43.1a72.31,72.31,0,0,1-2.5,21.8,52,52,0,0,1-8.5,17.2,57.9,57.9,0,0,1-13.55,13,78.6,78.6,0,0,1-17.75,9Zm72-58.3v28.3h14.8v9.2h-14.8v50H1362v-87.5Z" transform="translate(-64.18 -138.44)"/><path class="cls-2" d="M1392.84,2825.61a77.69,77.69,0,0,0,18.2-9.3,45.39,45.39,0,0,0,12.3-12.9l-27.3,2.5-2.1-9.9,33.7-2.1a52.29,52.29,0,0,0,2.1-11.2h-31.5v-9.3h43.1a72.31,72.31,0,0,1-2.5,21.8,52,52,0,0,1-8.5,17.2,57.9,57.9,0,0,1-13.55,13,78.6,78.6,0,0,1-17.75,9Zm72-58.3v28.3h14.8v9.2h-14.8v50H1454v-87.5Z" transform="translate(-64.18 -138.44)"/><path class="cls-2" d="M1483.64,2845.21v-9h36.5v-17.9a27.28,27.28,0,0,1-13.8-6.6,23.58,23.58,0,0,1-5.5-26.75,23.36,23.36,0,0,1,5.6-7.75,27.46,27.46,0,0,1,8.5-5.1,29.83,29.83,0,0,1,10.9-1.9,29.32,29.32,0,0,1,10.7,1.9,27.57,27.57,0,0,1,8.5,5.1,24.88,24.88,0,0,1,5.55,7.75,22.63,22.63,0,0,1,2.05,9.55,23.2,23.2,0,0,1-2,9.5,23.73,23.73,0,0,1-5.45,7.7,26.15,26.15,0,0,1-14.2,6.6v17.9h36.6v9Zm57.2-50.7a14.61,14.61,0,0,0-4-10.3q-4.11-4.41-11-4.4a14.53,14.53,0,0,0-15.2,14.7,14,14,0,0,0,4.1,10.3,14.51,14.51,0,0,0,4.8,3.15,16.53,16.53,0,0,0,6.3,1.15q6.9,0,11-4.4A14.51,14.51,0,0,0,1540.84,2794.51Z" transform="translate(-64.18 -138.44)"/><path class="cls-2" d="M1575.64,2824.21v-9h36.6v-7.8h-22.6v-37.6h55.8v8.7H1600v5.9h44.9v8.3H1600v6h46.3v8.7h-23.2v7.8h36.5v9Zm12.8,6.7h57v27.2h-10.8v-18h-46.2Z" transform="translate(-64.18 -138.44)"/><path class="cls-2" d="M1246.24,2959.91v-16.5h-38.6v-9h84v9h-34.5v16.5Zm33.6,17.8H1221v-25.4h10.8v16.3h48Zm-58.2-51.7v-34.8h55.9V2926Zm45.2-25.7h-34.4v16.6h34.4Z" transform="translate(-64.18 -138.44)"/><path class="cls-2" d="M1300.74,2945.71c2.2,0,4.58,0,7.15-.1s5.21-.15,7.95-.25l8.35-.3q4.24-.15,8.35-.35,8.19-.51,15.7-1.05t12.3-1.25l1,8.9-5.7.65q-3.21.35-6.85.65t-7.65.55c-2.67.16-5.34.35-8,.55s-5.5.36-8.3.5-5.57.25-8.3.35-5.4.18-8,.25-5,.1-7.3.1Zm5.5-33a20.27,20.27,0,0,1,1.85-8.75,21.14,21.14,0,0,1,5.05-6.85,22.77,22.77,0,0,1,7.45-4.65,25.92,25.92,0,0,1,18.2,0,23,23,0,0,1,7.45,4.65,22,22,0,0,1,5.1,6.85,20,20,0,0,1,1.9,8.75,20.35,20.35,0,0,1-1.9,8.8,22.13,22.13,0,0,1-5.1,6.9,24,24,0,0,1-7.45,4.55,25.92,25.92,0,0,1-18.2,0,23.75,23.75,0,0,1-7.45-4.55,21.23,21.23,0,0,1-5.05-6.9A20.62,20.62,0,0,1,1306.24,2912.71Zm10.9,0a13.79,13.79,0,0,0,.95,5.25,12,12,0,0,0,2.65,4.05,12.2,12.2,0,0,0,4,2.65,13,13,0,0,0,5,1,12.47,12.47,0,0,0,12.6-12.9,12.63,12.63,0,0,0-12.6-12.8,12.83,12.83,0,0,0-5,1,11.59,11.59,0,0,0-4,2.7,12.33,12.33,0,0,0-2.65,4.1A13.19,13.19,0,0,0,1317.14,2912.71Zm48.3-25.4h10.8v87.5h-10.8Z" transform="translate(-64.18 -138.44)"/><path class="cls-2" d="M1428.34,2976.91v-28.7h-36.6v-9h84v9h-36.5v28.7Zm5.7-60.9a37.82,37.82,0,0,1-11.45,10.4,59.27,59.27,0,0,1-17.55,7.1l-5-8.3a72.75,72.75,0,0,0,9.9-3.3,53.71,53.71,0,0,0,9-4.8,26.45,26.45,0,0,0,6.55-6.45,14.4,14.4,0,0,0,2.55-8.45v-.1h-23.7v-9.4h59v9.4H1440v.1a14.58,14.58,0,0,0,2.5,8.45,25.4,25.4,0,0,0,6.5,6.45,45.31,45.31,0,0,0,9,4.8,79.74,79.74,0,0,0,10,3.3l-5,8.3a59.7,59.7,0,0,1-17.6-7.1A36.33,36.33,0,0,1,1434,2916Z" transform="translate(-64.18 -138.44)"/><path class="cls-2" d="M1522.74,2953.41a52.14,52.14,0,0,1-9.7-9.65,41.58,41.58,0,0,1-6.2-10.85,47.59,47.59,0,0,1-6.65,11.8,56.14,56.14,0,0,1-10.65,10.8l-7.6-7.3a60.9,60.9,0,0,0,8.1-7.55,42.05,42.05,0,0,0,6.1-9,47.92,47.92,0,0,0,3.85-10.8,57.67,57.67,0,0,0,1.35-13v-16h10.9v15.6q0,13.5,5,22.95a45.13,45.13,0,0,0,13.25,15.45Zm22.1,18.2h-10.4V2923h-12.7v-9.4h12.7v-24.8h10.4Zm18.1,3.2h-10.4v-87.5h10.4Z" transform="translate(-64.18 -138.44)"/><path class="cls-2" d="M1575.64,2965.11v-9h23.5v-20.3h5.2a26,26,0,0,1-3.2-1.8,18.61,18.61,0,0,1-2.8-2.3,23.58,23.58,0,0,1-5.5-26.75,23.36,23.36,0,0,1,5.6-7.75,27.46,27.46,0,0,1,8.5-5.1,29.83,29.83,0,0,1,10.9-1.9,29.32,29.32,0,0,1,10.7,1.9,27.57,27.57,0,0,1,8.5,5.1,24.88,24.88,0,0,1,5.55,7.75,22.63,22.63,0,0,1,2.05,9.55,23.2,23.2,0,0,1-2,9.5,23.73,23.73,0,0,1-5.45,7.7,22.94,22.94,0,0,1-6.1,4.1h6.2v20.3h22.3v9Zm57.2-50.6a14.61,14.61,0,0,0-4-10.3q-4.11-4.41-11-4.4a14.53,14.53,0,0,0-15.2,14.7,14,14,0,0,0,4.1,10.3,14.51,14.51,0,0,0,4.8,3.15,16.53,16.53,0,0,0,6.3,1.15q6.9,0,11-4.4A14.51,14.51,0,0,0,1632.84,2914.51Zm-15,24.2a32.1,32.1,0,0,1-7.8-.9v18.3h16.4v-18.5A34,34,0,0,1,1617.84,2938.71Z" transform="translate(-64.18 -138.44)"/><rect class="cls-1" x="9.5" y="5591.84" width="1752.65" height="1752.65" rx="12" ry="12"/><path class="cls-2" d="M1370.34,6579.5h-10.4v-48h-10.3v26.3h-35.5v-57.2h10.8v20.8h14v-20.8h10.7v21.6h10.3v-25.5h10.4Zm-31.4-30.8v-18.1h-14v18.1Zm49.5,34H1378v-87.5h10.4Z" transform="translate(-64.18 -138.44)"/><path class="cls-2" d="M1478.94,6495.2v87.5h-10.8v-52.3h-14.7a23.6,23.6,0,0,1-2.4,7.55,23.22,23.22,0,0,1-4.5,6.05,24.28,24.28,0,0,1-7.85,5.1,25.24,25.24,0,0,1-9.55,1.8,25.61,25.61,0,0,1-9.6-1.8,24,24,0,0,1-7.9-5.1,23.22,23.22,0,0,1-5.3-7.85,25.49,25.49,0,0,1-1.9-9.95,25.14,25.14,0,0,1,1.9-9.9,23.31,23.31,0,0,1,5.3-7.8,24.59,24.59,0,0,1,7.9-5.15,25.06,25.06,0,0,1,9.6-1.85,24.71,24.71,0,0,1,17.4,7,26,26,0,0,1,4.35,5.75,23,23,0,0,1,2.45,6.95h14.8v-26Zm-63.6,31a17.43,17.43,0,0,0,1.05,6.25,14.44,14.44,0,0,0,2.9,4.75,12.39,12.39,0,0,0,4.35,3.05,14.54,14.54,0,0,0,10.85,0,12.4,12.4,0,0,0,4.4-3.05,15.44,15.44,0,0,0,2.95-4.75,18.16,18.16,0,0,0,0-12.45,15.23,15.23,0,0,0-2.95-4.8,12.4,12.4,0,0,0-4.4-3.05,14.54,14.54,0,0,0-10.85,0,12.39,12.39,0,0,0-4.35,3.05,14.27,14.27,0,0,0-2.9,4.8A17.54,17.54,0,0,0,1415.34,6526.2Z" transform="translate(-64.18 -138.44)"/><path class="cls-2" d="M1498.74,6516.2h29v-8.7h-29v-9.2h39.5v27.1h-28.7v9.2q10.59.1,21.35-.7a201,201,0,0,0,20.75-2.6l1.3,8.9a205.31,205.31,0,0,1-24.25,2.9q-13.65.9-30,.7Zm68.3,52.3q0,7.8-6.6,13.2-6.4,5.51-17.8,5.5t-17.9-5.5q-6.51-5.4-6.5-13.2t6.5-13.2q6.39-5.51,17.9-5.5t17.8,5.5Q1567,6560.7,1567,6568.5Zm-10.9,0a7.61,7.61,0,0,0-1.05-3.9,9.51,9.51,0,0,0-2.85-3.05,15.33,15.33,0,0,0-4.25-2,19.46,19.46,0,0,0-10.7,0,15.2,15.2,0,0,0-4.25,2,9.51,9.51,0,0,0-2.85,3.05,7.77,7.77,0,0,0,0,7.8,10.1,10.1,0,0,0,2.85,3.1,13.47,13.47,0,0,0,4.25,2,19.24,19.24,0,0,0,5.35.7,19.5,19.5,0,0,0,5.3-.7,13.55,13.55,0,0,0,4.3-2,10.1,10.1,0,0,0,2.85-3.1A7.61,7.61,0,0,0,1556.14,6568.5Zm2.8-73.3h10.8V6548h-10.8Z" transform="translate(-64.18 -138.44)"/><path class="cls-2" d="M1585.14,6572.6v-9h31.2v-30.8h10.9v30.8h41.9v9Zm55.2-23.2a185.61,185.61,0,0,0,3.4-20q1.2-10.39,1.4-20H1597v-9.2h59.3q-.1,6.71-.5,13.65t-1.1,13.65q-.81,6.7-1.75,12.8t-2.15,11.2Z" transform="translate(-64.18 -138.44)"/><path class="cls-2" d="M1273.84,6680.5h-10.2v16.6h-10.7v-16.6h-33v-9.4l31.8-48.6h11.9v48h10.2Zm-20.9-10v-33.2l-21.2,33.2Z" transform="translate(-64.18 -138.44)"/><path class="cls-2" d="M1317.84,6704.8v-28.7h-36.6v-9h84v9h-36.5v28.7Zm5.7-60.9a37.69,37.69,0,0,1-11.45,10.4,59.27,59.27,0,0,1-17.55,7.1l-5-8.3a72.75,72.75,0,0,0,9.9-3.3,52.3,52.3,0,0,0,9-4.8,26.45,26.45,0,0,0,6.55-6.45,14.38,14.38,0,0,0,2.55-8.45v-.1h-23.7v-9.4h59v9.4h-23.3v.1a14.56,14.56,0,0,0,2.5,8.45,25.4,25.4,0,0,0,6.5,6.45,44.29,44.29,0,0,0,9,4.8,79.74,79.74,0,0,0,10,3.3l-5,8.3a59.7,59.7,0,0,1-17.6-7.1A36.21,36.21,0,0,1,1323.54,6643.9Z" transform="translate(-64.18 -138.44)"/><path class="cls-2" d="M1437.84,6703.9v-36.2h-36.6v-9h56.7a176.82,176.82,0,0,0,3.3-29.3H1413v-9.2h59.3q-.1,10.61-.9,20.45a167.17,167.17,0,0,1-2.4,18.05h16v9h-36.3v36.2Z" transform="translate(-64.18 -138.44)"/><path class="cls-2" d="M1493.14,6669.1v-9h36.6v-8.8h-22.9v-33.2h56.4v9h-45.7v15.2h47v9h-23.9v8.8h36.5v9Zm12.8,7.1h57V6706h-10.8v-20.6h-46.2Z" transform="translate(-64.18 -138.44)"/><path class="cls-2" d="M1627.14,6630.7h-14v5.8q0,12.7,4.6,21.9a43.41,43.41,0,0,0,13,15.5l-7.6,7a45.76,45.76,0,0,1-9.6-9.4,38.8,38.8,0,0,1-6.1-11.5,52.48,52.48,0,0,1-6,12.2,50.09,50.09,0,0,1-9.4,10.3l-7.7-6.6a45,45,0,0,0,12.9-16.35q4.5-9.65,4.5-22.85v-6h-14.4v-9.4h39.8Zm19.2,68.8h-10.4v-48.6h-12.7v-9.4h12.7v-24.8h10.4Zm18.1,3.2H1654v-87.5h10.4Z" transform="translate(-64.18 -138.44)"/><rect class="cls-1" x="14.25" y="11158.52" width="1752.65" height="1752.65" rx="12" ry="12"/><path class="cls-2" d="M834.59,12030.58v-36.2H798v-9h56.7a176.82,176.82,0,0,0,3.3-29.3h-48.2v-9.2h59.3q-.11,10.61-.9,20.45a167.17,167.17,0,0,1-2.4,18h16v9h-36.3v36.2Z" transform="translate(-64.18 -138.44)"/><path class="cls-2" d="M894.89,12003.68V11948h35.3v55.7Zm24.6-46.6h-13.8v37.5h13.8Zm19.1-13.7H949v26.1h9.3v-27.6h10.4v87.5h-10.4v-50.8H949v47.6h-10.4Z" transform="translate(-64.18 -138.44)"/><path class="cls-2" d="M984.29,11968.08v-9h52v9Zm46.6,22.5a17.64,17.64,0,0,1-1.7,7.8,19.47,19.47,0,0,1-4.5,6,19.75,19.75,0,0,1-6.55,3.85,22.74,22.74,0,0,1-7.75,1.35,23,23,0,0,1-7.85-1.35,20.29,20.29,0,0,1-6.6-3.85,18.86,18.86,0,0,1-4.55-6,17.51,17.51,0,0,1-1.7-7.8,16.83,16.83,0,0,1,1.75-7.75,18.93,18.93,0,0,1,4.6-5.9,20.24,20.24,0,0,1,6.6-3.75,23.4,23.4,0,0,1,7.75-1.3,22.33,22.33,0,0,1,7.7,1.35,21.12,21.12,0,0,1,6.55,3.8,18.49,18.49,0,0,1,4.55,5.9A17.11,17.11,0,0,1,1030.89,11990.58Zm-35.8-37.8v-9.2h30.7v9.2Zm25.7,37.8a9.3,9.3,0,0,0-3-7.25,10.63,10.63,0,0,0-7.35-2.75,11.19,11.19,0,0,0-4,.75,10.76,10.76,0,0,0-3.4,2,9.56,9.56,0,0,0-3.15,7.2,9.78,9.78,0,0,0,.85,4.15,10.5,10.5,0,0,0,2.3,3.25,10,10,0,0,0,3.4,2.15,11.19,11.19,0,0,0,4,.75,10.81,10.81,0,0,0,4-.75,10.12,10.12,0,0,0,5.6-5.4A10.41,10.41,0,0,0,1020.79,11990.58Zm34.3-48.7v34.3h14.8v9.2h-14.8v44h-10.8v-87.5Z" transform="translate(-64.18 -138.44)"/><path class="cls-2" d="M1075.69,11999.28a65.9,65.9,0,0,0,25.2-17,46.7,46.7,0,0,0,11.9-24.3h-31.3v-9.5h43.1a62,62,0,0,1-3.25,20.7,58.13,58.13,0,0,1-8.95,16.5,63.33,63.33,0,0,1-12.85,12.45,92.51,92.51,0,0,1-16.85,9.65Zm64-57.4h10.8v87.5h-10.8Z" transform="translate(-64.18 -138.44)"/><path class="cls-2" d="M1199.49,11962.88h29v-8.7h-29v-9.2H1239v27.1h-28.7v9.2q10.59.1,21.35-.7a201,201,0,0,0,20.75-2.6l1.3,8.9a205.31,205.31,0,0,1-24.25,2.9q-13.65.9-30,.7Zm68.3,52.3q0,7.8-6.6,13.2-6.4,5.49-17.8,5.5t-17.9-5.5q-6.51-5.4-6.5-13.2t6.5-13.2q6.39-5.51,17.9-5.5t17.8,5.5Q1267.79,12007.38,1267.79,12015.18Zm-10.9,0a7.61,7.61,0,0,0-1.05-3.9,9.51,9.51,0,0,0-2.85-3.05,15.33,15.33,0,0,0-4.25-2,19.46,19.46,0,0,0-10.7,0,15.2,15.2,0,0,0-4.25,2,9.51,9.51,0,0,0-2.85,3.05,7.77,7.77,0,0,0,0,7.8,10.1,10.1,0,0,0,2.85,3.1,13.7,13.7,0,0,0,4.25,2,19.62,19.62,0,0,0,5.35.7,19.89,19.89,0,0,0,5.3-.7,13.77,13.77,0,0,0,4.3-2,10.1,10.1,0,0,0,2.85-3.1A7.61,7.61,0,0,0,1256.89,12015.18Zm2.8-73.3h10.8v52.8h-10.8Z" transform="translate(-64.18 -138.44)"/><path class="cls-2" d="M1285.89,12017.78v-9h84v9Zm55.7-17.9q.79-4.2,1.55-9.3t1.35-11.2l-45.8,3-2.3-9.8,48.9-2.4q.6-7.8.6-13.6h-47.1v-9.2h58.3q0,7.61-.35,14.9t-1,14.5q-.7,7.2-1.55,13.35t-2,11.35Z" transform="translate(-64.18 -138.44)"/><path class="cls-2" d="M1461.69,11984.58v8.9h-83.8v-8.9ZM1392,12034v-22.2h45v-4.3h-45.1v-8.9h55.9v21.8h-45.1v4.6H1450v9Zm.5-54.2v-22.4h43.6v-4.1h-43.7v-9.1h54.5v22.3h-43.6v4.2h45.8v9.1Z" transform="translate(-64.18 -138.44)"/><path class="cls-2" d="M1497.89,11998.48v-9h36.6v-7.5h-22.6v-37.6h55.8v8.7h-45.4v5.9h44.9v8.3h-44.9v6h46.3v8.7h-23.2v7.5h36.5v9Zm66.4,20.3q0,7.2-6.6,12.1t-17.8,5q-11.4,0-17.9-5t-6.5-12.1q0-7.1,6.5-12.1t17.9-5q11.29,0,17.8,5T1564.29,12018.78Zm-10.9,0a6.1,6.1,0,0,0-1.05-3.4,9.89,9.89,0,0,0-2.85-2.8,14.09,14.09,0,0,0-4.25-1.85,22.34,22.34,0,0,0-10.7,0,14,14,0,0,0-4.25,1.85,9.89,9.89,0,0,0-2.85,2.8,6.1,6.1,0,0,0-1,3.4,6.27,6.27,0,0,0,1,3.5,9.5,9.5,0,0,0,2.85,2.75,15.29,15.29,0,0,0,4.25,1.8,20.92,20.92,0,0,0,5.35.65,21.2,21.2,0,0,0,5.3-.65,15.37,15.37,0,0,0,4.3-1.8,9.5,9.5,0,0,0,2.85-2.75A6.27,6.27,0,0,0,1553.39,12018.78Z" transform="translate(-64.18 -138.44)"/><path class="cls-2" d="M1591.09,11968.08v-9h43.6v9Zm39.9,22.5a20.34,20.34,0,0,1-1.4,7.6,18.79,18.79,0,0,1-3.85,6,17.22,17.22,0,0,1-5.75,4,17.82,17.82,0,0,1-7,1.4,18,18,0,0,1-7.1-1.4,17.63,17.63,0,0,1-5.8-4,18.19,18.19,0,0,1-3.9-6,20,20,0,0,1-1.4-7.65,19,19,0,0,1,1.45-7.45,18.26,18.26,0,0,1,4-5.95,18,18,0,0,1,12.8-5.3,17.79,17.79,0,0,1,12.65,5.3,19.07,19.07,0,0,1,5.35,13.4Zm-30.4-37.8v-9.2h25v9.2Zm20.8,37.8a10.35,10.35,0,0,0-2.5-7.3,7.8,7.8,0,0,0-5.9-2.7,8.24,8.24,0,0,0-6,2.7,10,10,0,0,0-2.65,7.3,10.46,10.46,0,0,0,2.65,7.5,8.1,8.1,0,0,0,6,2.8,7.68,7.68,0,0,0,5.9-2.8A10.89,10.89,0,0,0,1621.39,11990.58Zm17.7-47.2h10.4v32.1h8.8v-33.6h10.4v87.5h-10.4v-44.8h-8.8v41.6h-10.4Z" transform="translate(-64.18 -138.44)"/><path class="cls-2" d="M766.59,12112.18h-10.4v-21.6h-10v18.1h-36.8V12066h36.8v15.3h10v-17.9h10.4Zm-31.1-37.1h-15.3v24.5h15.3Zm-4.5,77.8v-35h53.8v35Zm43.1-25.9h-32.3v16.9h32.3Zm10.6-13.3h-10.4v-51.8h10.4Z" transform="translate(-64.18 -138.44)"/><path class="cls-2" d="M875.69,12061.88v87.5h-10.8v-52.3H847v27h-43.1v-56.9h10.8v20.5h21.6v-20.5H847v20.7h17.9v-26Zm-39.4,53.1v-18.1h-21.6v18.1Z" transform="translate(-64.18 -138.44)"/><path class="cls-2" d="M913.19,12118.88v-10.3q-5.7.3-10.8.4c-3.4.07-6.54.1-9.4.1l-.7-9.3q5.79,0,13.5-.2t16.2-.7q8.49-.4,16.15-1t12.75-1.4l1,9.3q-5.21.79-12.5,1.35t-15.3,1v10.8Zm27.5-25.5a42.66,42.66,0,0,1-11.15-5.4,29,29,0,0,1-7.65-7.6,35.9,35.9,0,0,1-8.5,8.45,39.72,39.72,0,0,1-11.7,5.65l-6-7.3c2.4-.93,4.81-2,7.25-3.25a32.27,32.27,0,0,0,6.35-4.15,22,22,0,0,0,4.65-6.15,15.12,15.12,0,0,0,1.75-6.85v-4.2h12v4q0,6.41,5.4,11.5a37.78,37.78,0,0,0,13.6,7.7Zm-26.9,61v-32.3h10.9v7.9h31.1v-7.9h10.8v32.3Zm42-8.9v-6.7h-31.1v6.7Zm-.1-83.6h10.8v56.8h-10.8Z" transform="translate(-64.18 -138.44)"/><path class="cls-2" d="M1046.59,12150.58v-36.2H1010v-9h56.7a176.82,176.82,0,0,0,3.3-29.3h-48.2v-9.2h59.3q-.1,10.61-.9,20.45a167.17,167.17,0,0,1-2.4,18h16v9h-36.3v36.2Z" transform="translate(-64.18 -138.44)"/><path class="cls-2" d="M1106.89,12123.68V12068h35.3v55.7Zm24.6-46.6h-13.8v37.5h13.8Zm19.1-13.7H1161v26.1h9.3v-27.6h10.4v87.5h-10.4v-50.8H1161v47.6h-10.4Z" transform="translate(-64.18 -138.44)"/><path class="cls-2" d="M1277.69,12104.58v8.9h-83.8v-8.9ZM1208,12154v-22.2h45v-4.3h-45.1v-8.9h55.9v21.8h-45.1v4.6H1266v9Zm.5-54.2v-22.4h43.6v-4.1h-43.7v-9.1h54.5v22.3h-43.6v4.2h45.8v9.1Z" transform="translate(-64.18 -138.44)"/><path class="cls-2" d="M1315.09,12088.08v-9h43.6v9Zm39.9,22.5a20.34,20.34,0,0,1-1.4,7.6,18.79,18.79,0,0,1-3.85,6,17.22,17.22,0,0,1-5.75,4,17.82,17.82,0,0,1-7,1.4,18,18,0,0,1-7.1-1.4,17.63,17.63,0,0,1-5.8-4,18.19,18.19,0,0,1-3.9-6,20,20,0,0,1-1.4-7.65,19,19,0,0,1,1.45-7.45,18.26,18.26,0,0,1,4-5.95,18,18,0,0,1,12.8-5.3,17.79,17.79,0,0,1,12.65,5.3,19.07,19.07,0,0,1,5.35,13.4Zm-30.4-37.8v-9.2h25v9.2Zm20.8,37.8a10.35,10.35,0,0,0-2.5-7.3,7.8,7.8,0,0,0-5.9-2.7,8.24,8.24,0,0,0-6,2.7,10,10,0,0,0-2.65,7.3,10.46,10.46,0,0,0,2.65,7.5,8.1,8.1,0,0,0,6,2.8,7.68,7.68,0,0,0,5.9-2.8A10.89,10.89,0,0,0,1345.39,12110.58Zm17.7-47.2h10.4v32.1h8.8v-33.6h10.4v87.5h-10.4v-44.8h-8.8v41.6h-10.4Z" transform="translate(-64.18 -138.44)"/><path class="cls-2" d="M1442.59,12151.48v-28.7H1406v-9h84v9h-36.5v28.7Zm5.7-60.9a37.69,37.69,0,0,1-11.45,10.4,59.27,59.27,0,0,1-17.55,7.1l-5-8.3a72.75,72.75,0,0,0,9.9-3.3,52.3,52.3,0,0,0,9-4.8,26.45,26.45,0,0,0,6.55-6.45,14.38,14.38,0,0,0,2.55-8.45v-.1h-23.7v-9.4h59v9.4h-23.3v.1a14.56,14.56,0,0,0,2.5,8.45,25.4,25.4,0,0,0,6.5,6.45,44.29,44.29,0,0,0,9,4.8,79.74,79.74,0,0,0,10,3.3l-5,8.3a59.7,59.7,0,0,1-17.6-7.1A36.21,36.21,0,0,1,1448.29,12090.58Z" transform="translate(-64.18 -138.44)"/><path class="cls-2" d="M1547.89,12127.78a54.65,54.65,0,0,1-6.7-4.9,52.45,52.45,0,0,1-6.1-6.1,50.65,50.65,0,0,1-5.15-6.7,33.17,33.17,0,0,1-3.45-6.9,46.51,46.51,0,0,1-3.6,7.2,52.48,52.48,0,0,1-5.05,6.9,60.48,60.48,0,0,1-6.2,6.2,56.62,56.62,0,0,1-7.05,5.2l-6.5-8.2a47.62,47.62,0,0,0,15.8-15.6,52.31,52.31,0,0,0,5-10.95,41.27,41.27,0,0,0,1.9-12.75v-14.5h11.1v14.3a41.6,41.6,0,0,0,1.75,12.3,45.92,45.92,0,0,0,4.75,10.6,46.79,46.79,0,0,0,7.15,8.8,46,46,0,0,0,8.65,6.6Zm15.8-65.9h10.8v87.5h-10.8Z" transform="translate(-64.18 -138.44)"/><path class="cls-2" d="M1595.49,12111v-44.1h43v7.6h17.2v-12.6h10.8v65h-10.8v-23.5h-17.2v7.6Zm32.3-35h-21.5v25.9h21.5Zm40.7,75.5H1613v-30.7h11v21.6h44.5Zm-12.8-67.8h-17.2v10.5h17.2Z" transform="translate(-64.18 -138.44)"/><path class="cls-2" d="M613.89,12257.78v-9h84v9Zm74.6-25.5h-64.1v-9h14.2l-.4-27.1h-11.6v-9h59.7v9h-11.6l-.4,27.1h14.2Zm-40.1-9h16.1l.4-27.1H648Z" transform="translate(-64.18 -138.44)"/><path class="cls-2" d="M722.69,12236.58q5.19.1,10.85-.2t11.15-.9c3.6-.4,7.06-.85,10.4-1.35s6.4-1,9.2-1.65l1.3,9.2a222.59,222.59,0,0,1-24.3,3.25q-13.71,1.16-29.4.95v-34.3h28.6v-15.4h-28.6v-9.2H751v33.8h-28.3Zm49-54.7h10.8v87.5h-10.8Z" transform="translate(-64.18 -138.44)"/><path class="cls-2" d="M803.89,12243.08V12188h43.5v55.1Zm32.8-46h-22v36.9h22Zm27-15.2h10.8v87.5h-10.8Z" transform="translate(-64.18 -138.44)"/><path class="cls-2" d="M955.69,12181.88h10.8v51.8h-10.8v-23.2h-15.5a20.28,20.28,0,0,1-6.5,12.1,22.9,22.9,0,0,1-7.5,4.65,25.5,25.5,0,0,1-9.2,1.65,26,26,0,0,1-9.4-1.65,22.69,22.69,0,0,1-7.5-4.65,21.94,21.94,0,0,1-5.05-7.1,21.5,21.5,0,0,1-1.85-9,21.27,21.27,0,0,1,1.85-8.9,21.94,21.94,0,0,1,5.05-7.1,23.31,23.31,0,0,1,7.5-4.7,25.39,25.39,0,0,1,9.4-1.7,24.9,24.9,0,0,1,9.2,1.7,23.53,23.53,0,0,1,7.5,4.7,21.27,21.27,0,0,1,6.3,10.8h15.7Zm-51.6,24.6a13.25,13.25,0,0,0,1,5.25,11.57,11.57,0,0,0,2.75,4,12.86,12.86,0,0,0,4.1,2.6,13.39,13.39,0,0,0,5,1,13.06,13.06,0,0,0,5-1,12.62,12.62,0,0,0,4-2.6,12.17,12.17,0,0,0,2.7-4,13.42,13.42,0,0,0,1-5.25,13.14,13.14,0,0,0-1-5.15,12.71,12.71,0,0,0-2.7-4,12.26,12.26,0,0,0-4-2.65,13.06,13.06,0,0,0-5-.95,12.66,12.66,0,0,0-9.2,3.6A12.27,12.27,0,0,0,904.09,12206.48Zm10.4,66.5v-35h52v35Zm41.2-25.9h-30.4v16.8h30.4Z" transform="translate(-64.18 -138.44)"/><path class="cls-2" d="M1070.59,12232.18h-10.4v-21.6h-10v18.1h-36.8V12186h36.8v15.3h10v-17.9h10.4Zm-31.1-37.1h-15.3v24.5h15.3Zm-4.5,77.8v-35h53.8v35Zm43.1-25.9h-32.3v16.9h32.3Zm10.6-13.3h-10.4v-51.8h10.4Z" transform="translate(-64.18 -138.44)"/><path class="cls-2" d="M1179.69,12181.88v87.5h-10.8v-52.3H1151v27h-43.1v-56.9h10.8v20.5h21.6v-20.5H1151v20.7h17.9v-26Zm-39.4,53.1v-18.1h-21.6v18.1Z" transform="translate(-64.18 -138.44)"/><path class="cls-2" d="M1221.89,12259.78v-9h36.9v-16.6h10.9v16.6h36.2v9Zm42.4-39.4a25.2,25.2,0,0,1-4.75,6.15,49.18,49.18,0,0,1-7,5.55,67.84,67.84,0,0,1-8.4,4.75,59.31,59.31,0,0,1-9,3.45l-5.9-8.7a49.36,49.36,0,0,0,10.3-3.5,50.44,50.44,0,0,0,9.4-5.6,31.82,31.82,0,0,0,6.35-6.35,15.6,15.6,0,0,0,3.05-7.25h-23.8v-9.4h59v9.4h-23.4a15.71,15.71,0,0,0,3,7.25,30.27,30.27,0,0,0,6.3,6.35,50.12,50.12,0,0,0,9.4,5.6,48.63,48.63,0,0,0,10.4,3.5l-5.9,8.7a55.7,55.7,0,0,1-9.05-3.45,69.4,69.4,0,0,1-8.35-4.75,50.88,50.88,0,0,1-7-5.55A22.32,22.32,0,0,1,1264.29,12220.38Zm-17.7-26.8v-9.4h35v9.4Z" transform="translate(-64.18 -138.44)"/><path class="cls-2" d="M1330.69,12197.68v36.7a125.66,125.66,0,0,0,12.7-.7q6.9-.71,13.3-2l1.2,8.9a165.08,165.08,0,0,1-18.1,2.55,186.12,186.12,0,0,1-19.9.65v-55.3h31.3v9.2Zm31.9-14.3H1373v26.1h9.3v-27.6h10.4v87.5h-10.4v-50.8H1373v47.6h-10.4Z" transform="translate(-64.18 -138.44)"/><path class="cls-2" d="M1411.49,12202.88h29v-8.7h-29v-9.2H1451v27.1h-28.7v9.2q10.59.1,21.35-.7a201,201,0,0,0,20.75-2.6l1.3,8.9a205.31,205.31,0,0,1-24.25,2.9q-13.65.9-30,.7Zm68.3,52.3q0,7.8-6.6,13.2-6.4,5.49-17.8,5.5t-17.9-5.5q-6.51-5.4-6.5-13.2t6.5-13.2q6.39-5.51,17.9-5.5t17.8,5.5Q1479.79,12247.38,1479.79,12255.18Zm-10.9,0a7.61,7.61,0,0,0-1.05-3.9,9.51,9.51,0,0,0-2.85-3.05,15.33,15.33,0,0,0-4.25-2,19.46,19.46,0,0,0-10.7,0,15.2,15.2,0,0,0-4.25,2,9.51,9.51,0,0,0-2.85,3.05,7.77,7.77,0,0,0,0,7.8,10.1,10.1,0,0,0,2.85,3.1,13.7,13.7,0,0,0,4.25,2,19.62,19.62,0,0,0,5.35.7,19.89,19.89,0,0,0,5.3-.7,13.77,13.77,0,0,0,4.3-2,10.1,10.1,0,0,0,2.85-3.1A7.61,7.61,0,0,0,1468.89,12255.18Zm2.8-73.3h10.8v52.8h-10.8Z" transform="translate(-64.18 -138.44)"/><path class="cls-2" d="M1497.89,12257.78v-9h84v9Zm55.7-17.9q.79-4.2,1.55-9.3t1.35-11.2l-45.8,3-2.3-9.8,48.9-2.4q.6-7.8.6-13.6h-47.1v-9.2h58.3q0,7.61-.35,14.9t-1,14.5q-.7,7.2-1.55,13.35t-2,11.35Z" transform="translate(-64.18 -138.44)"/><path class="cls-2" d="M1673.69,12224.58v8.9h-83.8v-8.9ZM1604,12274v-22.2h45v-4.3h-45.1v-8.9h55.9v21.8h-45.1v4.6H1662v9Zm.5-54.2v-22.4h43.6v-4.1h-43.7v-9.1h54.5v22.3h-43.6v4.2h45.8v9.1Z" transform="translate(-64.18 -138.44)"/><path class="cls-2" d="M1099.59,12379.78v-9h36.5v-17.3h-22.5v-47.3h10.8v16h34.4v-16h10.7v47.3H1147v17.3h36.6v9Zm59.2-35.4v-13h-34.4v13Z" transform="translate(-64.18 -138.44)"/><path class="cls-2" d="M1236,12360.88c-2.67.53-5.52,1-8.55,1.3s-6.32.63-9.85.9-6.79.43-9.95.5-6.19.07-9.05,0v-56.1h10.8v46.5q5.1,0,12.3-.6,3.6-.3,6.9-.75c2.2-.3,4.26-.62,6.2-.95Zm4.3-57.5h10.4v26.1h9.3v-27.6h10.4v87.5H1260v-50.8h-9.3v47.6h-10.4Z" transform="translate(-64.18 -138.44)"/><path class="cls-2" d="M1283.59,12377.78v-9h84v9Zm13.7-27.3v-43.7h56.4v9H1308v25.7h47v9Z" transform="translate(-64.18 -138.44)"/><path class="cls-2" d="M1381.19,12322.88h29v-8.7h-29v-9.2h39.5v27.1H1392v9.2q10.59.1,21.35-.7a201,201,0,0,0,20.75-2.6l1.3,8.9a205.31,205.31,0,0,1-24.25,2.9q-13.65.9-30,.7Zm18.3,71.1v-35.9h10.9v9.6h31.1v-9.6h10.8v35.9Zm42-9.1v-8.2h-31.1v8.2Zm-.1-83h10.8v52.8h-10.8Z" transform="translate(-64.18 -138.44)"/><path class="cls-2" d="M1525.09,12360.28a109.57,109.57,0,0,1-11,1.65q-6.21.65-12.6,1-6.6.49-13.6.65t-13.3,0v-56.1h10.8v46.8q3.9.1,9-.05t10-.55q5.1-.41,10.15-1c3.36-.4,6.45-.9,9.25-1.5Zm8.3-58.4h10.8v87.5h-10.8Z" transform="translate(-64.18 -138.44)"/><path class="cls-2" d="M1566.59,12308h42.1v9.2h-31.3v36.6q9.19,0,19.55-.75a183.67,183.67,0,0,0,19.65-2.45l1.2,9a216.19,216.19,0,0,1-24.25,2.9q-13.35.9-27,.6Zm66.2-6.1v28.3h14.8v9.2h-14.8v50H1622v-87.5Z" transform="translate(-64.18 -138.44)"/><path class="cls-2" d="M1669.49,12390.08h-12.4v-11.9h12.4Z" transform="translate(-64.18 -138.44)"/><path class="cls-3" d="M1255.89,13853.81q-5.4.81-13.1,1.35t-16.2,1q-8.5.51-16.55.75t-14,.25l-.7-9.3q4.59,0,10.85-.1t13-.4v-12.9h10.9v12.3q7.4-.39,13.85-.9t11-1.3Zm-31.3-30.5a34.8,34.8,0,0,1-9.2,9.15,46.25,46.25,0,0,1-11.4,5.65l-6.1-8a43.49,43.49,0,0,0,6.5-2.6,37.61,37.61,0,0,0,6.6-4.1,24.7,24.7,0,0,0,4.85-5.6,10.87,10.87,0,0,0,2-5.7v-.1h-17.4v-9.4h47.7v9.4h-17.4a10,10,0,0,0,1.65,4.9,17.28,17.28,0,0,0,4.35,4.9,36.66,36.66,0,0,0,6.5,4.1,38.59,38.59,0,0,0,7.3,2.8l-5.7,8.2a42.91,42.91,0,0,1-11.8-5.4A27.35,27.35,0,0,1,1224.59,13823.31Zm-14.2-26.1v-9.4h27.3v9.4Zm49.3-10.3h10.8v87.5h-10.8Z" transform="translate(-64.18 -138.44)"/><path class="cls-3" d="M1336.29,13838.81a53.27,53.27,0,0,1-12.45-8.45,38.79,38.79,0,0,1-8.55-10.85,40.71,40.71,0,0,1-8.45,12,59,59,0,0,1-13.15,9.9l-6.7-8.6a45,45,0,0,0,16.1-13,30,30,0,0,0,6.3-18.8v-10.6h11.5v10.3a26.91,26.91,0,0,0,6.1,17.7,40.94,40.94,0,0,0,15.8,11.6Zm28.2,37.7H1309v-30.7h11v21.6h44.5Zm-12.8-89.6h10.8v65h-10.8v-36.6h-18.3v-9.2h18.3Z" transform="translate(-64.18 -138.44)"/><path class="cls-3" d="M1377.88,13833.91v-9h84v9ZM1392,13879v-23.9h45v-6h-45.11v-8.9h55.91v23.5h-45.1v6.3H1450v9Zm53.5-75.8a13.93,13.93,0,0,1-1.8,6.9,17.21,17.21,0,0,1-5.2,5.6,28.23,28.23,0,0,1-8.2,3.75,37.66,37.66,0,0,1-10.41,1.35,37,37,0,0,1-10.34-1.35,28.34,28.34,0,0,1-8.16-3.75,16.79,16.79,0,0,1-5.29-5.6,13.72,13.72,0,0,1-1.8-6.9q0-7.59,7.2-12.5a28,28,0,0,1,8.2-3.75,39.21,39.21,0,0,1,20.4,0,28.23,28.23,0,0,1,8.2,3.75,18.48,18.48,0,0,1,5.3,5.6A13.38,13.38,0,0,1,1445.49,13803.21Zm-11.61-.1a6.29,6.29,0,0,0-1-3.4,9.29,9.29,0,0,0-2.79-2.8,15.09,15.09,0,0,0-4.4-1.9,22.68,22.68,0,0,0-5.81-.7,17.22,17.22,0,0,0-10.09,2.8c-2.6,1.8-3.91,3.8-3.91,6a6.09,6.09,0,0,0,1.06,3.4,10,10,0,0,0,2.9,2.85,14.31,14.31,0,0,0,4.45,1.95,21.24,21.24,0,0,0,5.59.7q6.4,0,10.21-2.65C1432.62,13807.6,1433.88,13805.51,1433.88,13803.11Z" transform="translate(-64.18 -138.44)"/><path class="cls-3" d="M1504.88,13793H1547v9.2h-31.3v36.6q9.19,0,19.55-.75a181,181,0,0,0,19.64-2.45l1.21,9a213.88,213.88,0,0,1-24.25,2.9q-13.35.9-27,.6Zm66.21-6.1v28.3h14.79v9.2h-14.79v50h-10.8v-87.5Z" transform="translate(-64.18 -138.44)"/><path class="cls-3" d="M1591.08,13813.11v-9h43.6v9Zm39.9,22.5a20.11,20.11,0,0,1-1.4,7.6,18.36,18.36,0,0,1-3.85,6.05,17.12,17.12,0,0,1-5.75,3.95,17.57,17.57,0,0,1-7,1.4,17.8,17.8,0,0,1-12.9-5.35,18.51,18.51,0,0,1-3.9-6,20.23,20.23,0,0,1-1.39-7.65,19.17,19.17,0,0,1,1.44-7.45,18.11,18.11,0,0,1,9.75-9.85,17.82,17.82,0,0,1,7-1.4,17.55,17.55,0,0,1,6.9,1.4,17.74,17.74,0,0,1,5.75,3.9,18.82,18.82,0,0,1,3.91,6A19.17,19.17,0,0,1,1631,13835.61Zm-30.4-37.8v-9.2h25v9.2Zm20.8,37.8a10.32,10.32,0,0,0-2.5-7.3,7.77,7.77,0,0,0-5.9-2.7,8.27,8.27,0,0,0-6,2.7,10,10,0,0,0-2.64,7.3,10.46,10.46,0,0,0,2.64,7.5,8.13,8.13,0,0,0,6,2.8,7.65,7.65,0,0,0,5.9-2.8A10.81,10.81,0,0,0,1621.38,13835.61Zm17.7-47.2h10.4v32.1h8.81v-33.6h10.39v87.5h-10.39v-44.8h-8.81v41.6h-10.4Z" transform="translate(-64.18 -138.44)"/><path class="cls-3" d="M675.89,13973.81q-5.4.81-13.1,1.35t-16.2,1q-8.51.51-16.55.75t-14,.25l-.7-9.3q4.59,0,10.85-.1t13.05-.4v-12.9h10.9v12.3q7.39-.39,13.85-.9t10.95-1.3Zm-31.3-30.5a34.8,34.8,0,0,1-9.2,9.15,46.25,46.25,0,0,1-11.4,5.65l-6.1-8a43.49,43.49,0,0,0,6.5-2.6,37.61,37.61,0,0,0,6.6-4.1,24.7,24.7,0,0,0,4.85-5.6,10.87,10.87,0,0,0,1.95-5.7v-.1h-17.4v-9.4h47.7v9.4h-17.4a10,10,0,0,0,1.65,4.9,17.28,17.28,0,0,0,4.35,4.9,36.66,36.66,0,0,0,6.5,4.1,38.59,38.59,0,0,0,7.3,2.8l-5.7,8.2a42.91,42.91,0,0,1-11.8-5.4A27.35,27.35,0,0,1,644.59,13943.31Zm-14.2-26.1v-9.4h27.3v9.4Zm49.3-10.3h10.8v87.5h-10.8Z" transform="translate(-64.18 -138.44)"/><path class="cls-3" d="M705.89,13984.31v-9h31.2v-30.8H748v30.8h41.9v9Zm55.2-23.2a185.19,185.19,0,0,0,3.4-20q1.2-10.4,1.4-20h-48.1v-9.2h59.3q-.11,6.7-.5,13.65t-1.1,13.65q-.81,6.71-1.75,12.8t-2.15,11.2Z" transform="translate(-64.18 -138.44)"/><path class="cls-3" d="M799,13965.31q3.3,0,7.15-.1c2.56-.06,5.21-.15,8-.25l8.35-.3c2.83-.1,5.61-.21,8.35-.35q8.19-.5,15.7-1t12.3-1.25l1,8.9q-2.5.3-5.7.65c-2.14.24-4.42.45-6.85.65s-5,.39-7.65.55-5.34.35-8,.55-5.5.37-8.3.5-5.57.25-8.3.35-5.4.19-8,.25-5,.1-7.3.1Zm5.5-33a20.3,20.3,0,0,1,1.85-8.75,21.36,21.36,0,0,1,5-6.85,22.77,22.77,0,0,1,7.45-4.65,25.92,25.92,0,0,1,18.2,0,23,23,0,0,1,7.45,4.65,22.27,22.27,0,0,1,5.1,6.85,20,20,0,0,1,1.9,8.75,20.32,20.32,0,0,1-1.9,8.8,21.9,21.9,0,0,1-5.1,6.9,23.79,23.79,0,0,1-7.45,4.55,25.92,25.92,0,0,1-18.2,0,23.57,23.57,0,0,1-7.45-4.55,21,21,0,0,1-5-6.9A20.59,20.59,0,0,1,804.49,13932.31Zm10.9,0a13.72,13.72,0,0,0,1,5.25,11.94,11.94,0,0,0,6.65,6.7,12.83,12.83,0,0,0,5,.95,12.47,12.47,0,0,0,12.6-12.9,12.63,12.63,0,0,0-12.6-12.8,13,13,0,0,0-5,.95,11.88,11.88,0,0,0-4,2.7,12.53,12.53,0,0,0-2.65,4.1A13.23,13.23,0,0,0,815.39,13932.31Zm48.3-25.4h10.8v87.5h-10.8Z" transform="translate(-64.18 -138.44)"/><path class="cls-3" d="M983.69,13906.91h10.8v51.8h-10.8v-12.3H966v-4.3a16.35,16.35,0,0,1-1.9,2.95,26.24,26.24,0,0,1-2.4,2.55,22.9,22.9,0,0,1-7.5,4.65,25.5,25.5,0,0,1-9.2,1.65,26,26,0,0,1-9.4-1.65,22.69,22.69,0,0,1-7.5-4.65,21.84,21.84,0,0,1-5.05-7.1,22.57,22.57,0,0,1,0-17.9,21.94,21.94,0,0,1,5.05-7.1,23.49,23.49,0,0,1,7.5-4.7,25.39,25.39,0,0,1,9.4-1.7,24.9,24.9,0,0,1,9.2,1.7,23.71,23.71,0,0,1,7.5,4.7,24.44,24.44,0,0,1,4.3,5.5v-2.8h17.7Zm-51.6,24.6a13.18,13.18,0,0,0,1,5.25,11.57,11.57,0,0,0,2.75,4,12.86,12.86,0,0,0,4.1,2.6,13.19,13.19,0,0,0,5,.95,12.87,12.87,0,0,0,5-.95,12.62,12.62,0,0,0,4-2.6,12.17,12.17,0,0,0,2.7-4,13.35,13.35,0,0,0,1-5.25,13.17,13.17,0,0,0-1-5.15,12.94,12.94,0,0,0-2.7-4.05,12.42,12.42,0,0,0-4-2.65,13.06,13.06,0,0,0-5-1,12.66,12.66,0,0,0-9.2,3.6A12.27,12.27,0,0,0,932.09,13931.51Zm36.8,28.2a29.17,29.17,0,0,1,9,1.4,25.76,25.76,0,0,1,7.75,4,19.88,19.88,0,0,1,5.45,6.45,19.27,19.27,0,0,1,0,17.3,19.68,19.68,0,0,1-5.45,6.45,25.32,25.32,0,0,1-7.75,4,29.31,29.31,0,0,1-17.9,0,25.2,25.2,0,0,1-7.75-4,19.44,19.44,0,0,1-5.45-6.45,19.27,19.27,0,0,1,0-17.3,19.64,19.64,0,0,1,5.45-6.45,25.65,25.65,0,0,1,7.75-4A29.12,29.12,0,0,1,968.89,13959.71Zm0,9.3a15.33,15.33,0,0,0-5.1.85,13.63,13.63,0,0,0-4.2,2.35,12,12,0,0,0-2.9,3.55,9.2,9.2,0,0,0-1.1,4.45,9.57,9.57,0,0,0,1.1,4.65,11.16,11.16,0,0,0,2.9,3.5,13.22,13.22,0,0,0,4.2,2.25,16.66,16.66,0,0,0,10.2,0,13.22,13.22,0,0,0,4.2-2.25,11.3,11.3,0,0,0,2.9-3.5,9.68,9.68,0,0,0,1.1-4.65,9.31,9.31,0,0,0-1.1-4.45,12.1,12.1,0,0,0-2.9-3.55,13.63,13.63,0,0,0-4.2-2.35A15.33,15.33,0,0,0,968.89,13969Zm-.3-37.5a21,21,0,0,1-.2,2.9c-.14.94-.3,1.87-.5,2.8h15.8v-9.8h-15.5c.13.67.23,1.34.3,2S968.59,13930.78,968.59,13931.51Z" transform="translate(-64.18 -138.44)"/><path class="cls-3" d="M1087.69,13906.91v87.5h-10.8v-52.3h-14.7a23.52,23.52,0,0,1-2.4,7.55,23.22,23.22,0,0,1-4.5,6,24.28,24.28,0,0,1-7.85,5.1,25.24,25.24,0,0,1-9.55,1.8,25.61,25.61,0,0,1-9.6-1.8,24,24,0,0,1-7.9-5.1,23.12,23.12,0,0,1-5.3-7.85,25.49,25.49,0,0,1-1.9-10,25.14,25.14,0,0,1,1.9-9.9,23.31,23.31,0,0,1,5.3-7.8,24.76,24.76,0,0,1,7.9-5.15,25.06,25.06,0,0,1,9.6-1.85,24.7,24.7,0,0,1,9.55,1.85,25.1,25.1,0,0,1,7.85,5.15,26.23,26.23,0,0,1,4.35,5.75,23,23,0,0,1,2.45,7h14.8v-26Zm-63.6,31a17.39,17.39,0,0,0,1.05,6.25,14.34,14.34,0,0,0,2.9,4.75,12.26,12.26,0,0,0,4.35,3,14.54,14.54,0,0,0,10.85,0,12.27,12.27,0,0,0,4.4-3,15.33,15.33,0,0,0,2.95-4.75,16.75,16.75,0,0,0,1.1-6.25,16.93,16.93,0,0,0-1.1-6.2,15.46,15.46,0,0,0-2.95-4.8,12.4,12.4,0,0,0-4.4-3,14.54,14.54,0,0,0-10.85,0,12.39,12.39,0,0,0-4.35,3,14.47,14.47,0,0,0-2.9,4.8A17.58,17.58,0,0,0,1024.09,13937.91Z" transform="translate(-64.18 -138.44)"/><path class="cls-3" d="M1101.89,13984.31v-9h21.9v-32.8h10.9v32.8h9.2v-32.8h10.9v32.8h31.1v9Zm55.2-23.2a185.19,185.19,0,0,0,3.4-20q1.2-10.4,1.4-20h-48.1v-9.2h59.3q-.1,6.7-.5,13.65t-1.1,13.65q-.81,6.71-1.75,12.8t-2.15,11.2Z" transform="translate(-64.18 -138.44)"/><path class="cls-3" d="M1206.69,13967.91h8.8v-9.6h-21.6v-9h84v9h-21.5v9.6h7.3v29.8h-10.8v-20.6h-46.2Zm55.2-40.9a17.65,17.65,0,0,1-1.85,8,20,20,0,0,1-5.25,6.5,24.72,24.72,0,0,1-8.15,4.35,36.34,36.34,0,0,1-21,0,24.52,24.52,0,0,1-8.15-4.35,18.14,18.14,0,0,1-5.3-22.55,18.7,18.7,0,0,1,5.4-6.45,26.61,26.61,0,0,1,8.15-4.3,32.72,32.72,0,0,1,10.45-1.6,32.14,32.14,0,0,1,10.25,1.6,26.84,26.84,0,0,1,8.15,4.3,20,20,0,0,1,5.35,6.45A17.21,17.21,0,0,1,1261.89,13927Zm-11.1,0a9.24,9.24,0,0,0-1-4.25,10.87,10.87,0,0,0-3-3.55,15,15,0,0,0-4.6-2.4,18.89,18.89,0,0,0-6-.9q-6.7,0-10.7,3.4c-2.74,2.2-4.1,4.77-4.1,7.7a9.08,9.08,0,0,0,1,4.3,10.59,10.59,0,0,0,3,3.5,14.59,14.59,0,0,0,4.7,2.35,20.29,20.29,0,0,0,6,.85,19.81,19.81,0,0,0,6-.85,14.15,14.15,0,0,0,4.6-2.35,10.91,10.91,0,0,0,3-3.5A9.08,9.08,0,0,0,1250.79,13927Zm-24.4,40.9h19.1v-9.6h-19.1Z" transform="translate(-64.18 -138.44)"/><path class="cls-3" d="M1363.89,13972.81a54.65,54.65,0,0,1-6.7-4.9,51.68,51.68,0,0,1-6.1-6.1,50,50,0,0,1-5.15-6.7,33.17,33.17,0,0,1-3.45-6.9,46.51,46.51,0,0,1-3.6,7.2,52.48,52.48,0,0,1-5.05,6.9,60.48,60.48,0,0,1-6.2,6.2,55.63,55.63,0,0,1-7.05,5.2l-6.5-8.2a47.62,47.62,0,0,0,15.8-15.6,52.31,52.31,0,0,0,5-11,41.27,41.27,0,0,0,1.9-12.75v-14.5h11.1v14.3a41.6,41.6,0,0,0,1.75,12.3,45.73,45.73,0,0,0,4.75,10.6,46.79,46.79,0,0,0,7.15,8.8,46,46,0,0,0,8.65,6.6Zm27.8-65.9v87.5h-10.8v-51.2h-19.7v-9.4h19.7v-26.9Z" transform="translate(-64.18 -138.44)"/><path class="cls-3" d="M1411.88,13969.11v-56.9h10.81v20.5h21.6v-20.5H1455v56.9Zm32.41-9.1v-18.1h-21.6v18.1Zm27.4-53.1h10.8v87.5h-10.8Z" transform="translate(-64.18 -138.44)"/><path class="cls-3" d="M1497.88,13982.81v-9h84v9Zm42.41-47.1a43.93,43.93,0,0,1-12.2,13.5,77.62,77.62,0,0,1-17.6,9.8l-6.2-8.1a60.64,60.64,0,0,0,10.4-4.9,54.87,54.87,0,0,0,9.8-7.3,39.78,39.78,0,0,0,7.14-8.75,18.79,18.79,0,0,0,2.86-9.85v-10.4h11.6v10.4a19.65,19.65,0,0,0,2.7,9.85,34.44,34.44,0,0,0,7.2,8.75,54.51,54.51,0,0,0,9.8,7.3,58.75,58.75,0,0,0,10.5,4.9l-6.2,8.1a79.24,79.24,0,0,1-17.6-9.85A43,43,0,0,1,1540.29,13935.71Z" transform="translate(-64.18 -138.44)"/><path class="cls-3" d="M1673.69,13949.61v8.9h-83.81v-8.9ZM1604,13999v-22.2h45v-4.3h-45.11v-8.9h55.91v21.8h-45.1v4.6H1662v9Zm.5-54.2v-22.4h43.6v-4.1h-43.71v-9.1h54.5v22.3h-43.59v4.2h45.8v9.1Z" transform="translate(-64.18 -138.44)"/><path class="cls-3" d="M655.89,14042.41h-14v5.8q0,12.71,4.6,21.9a43.32,43.32,0,0,0,13,15.5l-7.6,7a45.52,45.52,0,0,1-9.6-9.4,38.8,38.8,0,0,1-6.1-11.5,52.29,52.29,0,0,1-6,12.2,50.09,50.09,0,0,1-9.4,10.3l-7.7-6.6a44.86,44.86,0,0,0,12.9-16.35q4.5-9.65,4.5-22.85v-6h-14.4v-9.4h39.8Zm19.2,68.8h-10.4v-48.6H652v-9.4h12.7v-24.8h10.4Zm18.1,3.2h-10.4v-87.5h10.4Z" transform="translate(-64.18 -138.44)"/><path class="cls-3" d="M705.89,14075.31v-9h32.2v-16.6H749v16.6h40.9v9Zm56.2-14.3q1.39-5.79,2.2-11.5a90.07,90.07,0,0,0,.9-10.3h-46.6v-9.2h57.8a159.48,159.48,0,0,1-.95,18,117,117,0,0,1-2.55,14.7Zm-14.2,18.7a30.58,30.58,0,0,1,9,1.35,25.31,25.31,0,0,1,7.85,4,20.08,20.08,0,0,1,5.5,6.3,18.65,18.65,0,0,1,0,17,19.86,19.86,0,0,1-5.5,6.3,25.09,25.09,0,0,1-7.85,3.95,30.84,30.84,0,0,1-18,0,25.16,25.16,0,0,1-7.8-3.95,19.74,19.74,0,0,1-5.5-6.3,18.65,18.65,0,0,1,0-17,20,20,0,0,1,5.5-6.3,25.38,25.38,0,0,1,7.8-4A30.32,30.32,0,0,1,747.89,14079.71Zm0,9.2a16.57,16.57,0,0,0-5.15.8,14.69,14.69,0,0,0-4.35,2.25,10.94,10.94,0,0,0-3,3.45,8.92,8.92,0,0,0-1.1,4.4,9.09,9.09,0,0,0,1.1,4.5,10.73,10.73,0,0,0,3,3.45,13.51,13.51,0,0,0,4.35,2.2,18.06,18.06,0,0,0,10.3,0,13.72,13.72,0,0,0,4.35-2.2,11,11,0,0,0,3-3.45,9.2,9.2,0,0,0,1.1-4.5,9,9,0,0,0-1.1-4.4,11.2,11.2,0,0,0-3-3.45,14.94,14.94,0,0,0-4.35-2.25A16.61,16.61,0,0,0,747.89,14088.91Z" transform="translate(-64.18 -138.44)"/><path class="cls-3" d="M800.29,14053.11v-9h52v9Zm46.6,22.5a17.64,17.64,0,0,1-1.7,7.8,19.24,19.24,0,0,1-4.5,6,19.75,19.75,0,0,1-6.55,3.85,22.74,22.74,0,0,1-7.75,1.35,23,23,0,0,1-7.85-1.35,20.29,20.29,0,0,1-6.6-3.85,18.64,18.64,0,0,1-4.55-6,17.51,17.51,0,0,1-1.7-7.8,16.86,16.86,0,0,1,1.75-7.75,19,19,0,0,1,4.6-5.9,20.24,20.24,0,0,1,6.6-3.75,23.65,23.65,0,0,1,7.75-1.3,22.33,22.33,0,0,1,7.7,1.35,21.12,21.12,0,0,1,6.55,3.8,18.6,18.6,0,0,1,4.55,5.9A17.11,17.11,0,0,1,846.89,14075.61Zm-35.8-37.8v-9.2h30.7v9.2Zm25.7,37.8a9.31,9.31,0,0,0-3-7.25,10.63,10.63,0,0,0-7.35-2.75,11.19,11.19,0,0,0-4,.75,11,11,0,0,0-3.4,2,9.43,9.43,0,0,0-2.3,3.15,9.58,9.58,0,0,0-.85,4.05,9.74,9.74,0,0,0,.85,4.15,10.38,10.38,0,0,0,2.3,3.25,9.85,9.85,0,0,0,3.4,2.15,11.19,11.19,0,0,0,4,.75,10.81,10.81,0,0,0,4-.75,10.12,10.12,0,0,0,5.6-5.4A10.38,10.38,0,0,0,836.79,14075.61Zm34.3-48.7v34.3h14.8v9.2h-14.8v44h-10.8v-87.5Z" transform="translate(-64.18 -138.44)"/><path class="cls-3" d="M889.89,14083.11v-9h84v9Zm72.2,34.2h-58.8v-25.4h10.8v16.3h48Zm-.9-53.6h-57.3v-33.4h11v24.3h46.3Z" transform="translate(-64.18 -138.44)"/><path class="cls-3" d="M1071.09,14111.21h-10.4v-48h-10.3v26.3h-35.5v-57.2h10.8v20.8h14v-20.8h10.7v21.6h10.3v-25.5h10.4Zm-31.4-30.8v-18.1h-14v18.1Zm49.5,34h-10.4v-87.5h10.4Z" transform="translate(-64.18 -138.44)"/><path class="cls-3" d="M1179.69,14026.91v87.5h-10.8v-52.3h-14.7a23.52,23.52,0,0,1-2.4,7.55,23.22,23.22,0,0,1-4.5,6,24.28,24.28,0,0,1-7.85,5.1,25.24,25.24,0,0,1-9.55,1.8,25.61,25.61,0,0,1-9.6-1.8,24,24,0,0,1-7.9-5.1,23.12,23.12,0,0,1-5.3-7.85,25.49,25.49,0,0,1-1.9-10,25.14,25.14,0,0,1,1.9-9.9,23.31,23.31,0,0,1,5.3-7.8,24.76,24.76,0,0,1,7.9-5.15,25.06,25.06,0,0,1,9.6-1.85,24.7,24.7,0,0,1,9.55,1.85,25.1,25.1,0,0,1,7.85,5.15,26.23,26.23,0,0,1,4.35,5.75,23,23,0,0,1,2.45,7h14.8v-26Zm-63.6,31a17.39,17.39,0,0,0,1.05,6.25,14.34,14.34,0,0,0,2.9,4.75,12.26,12.26,0,0,0,4.35,3,14.54,14.54,0,0,0,10.85,0,12.27,12.27,0,0,0,4.4-3,15.33,15.33,0,0,0,2.95-4.75,16.75,16.75,0,0,0,1.1-6.25,16.93,16.93,0,0,0-1.1-6.2,15.46,15.46,0,0,0-2.95-4.8,12.4,12.4,0,0,0-4.4-3,14.54,14.54,0,0,0-10.85,0,12.39,12.39,0,0,0-4.35,3,14.47,14.47,0,0,0-2.9,4.8A17.58,17.58,0,0,0,1116.09,14057.91Z" transform="translate(-64.18 -138.44)"/><path class="cls-3" d="M1199.49,14047.91h29v-8.7h-29v-9.2H1239v27.1h-28.7v9.2q10.59.1,21.35-.7a201,201,0,0,0,20.75-2.6l1.3,8.9a203.22,203.22,0,0,1-24.25,2.9q-13.65.9-30,.7Zm68.3,52.3q0,7.8-6.6,13.2-6.4,5.51-17.8,5.5t-17.9-5.5q-6.51-5.4-6.5-13.2t6.5-13.2q6.39-5.49,17.9-5.5t17.8,5.5Q1267.79,14092.41,1267.79,14100.21Zm-10.9,0a7.61,7.61,0,0,0-1.05-3.9,9.62,9.62,0,0,0-2.85-3,15.33,15.33,0,0,0-4.25-2,19.46,19.46,0,0,0-10.7,0,15.2,15.2,0,0,0-4.25,2,9.62,9.62,0,0,0-2.85,3,7.77,7.77,0,0,0,0,7.8,10,10,0,0,0,2.85,3.1,13.26,13.26,0,0,0,4.25,2,19.24,19.24,0,0,0,5.35.7,19.5,19.5,0,0,0,5.3-.7,13.34,13.34,0,0,0,4.3-2,10,10,0,0,0,2.85-3.1A7.61,7.61,0,0,0,1256.89,14100.21Zm2.8-73.3h10.8v52.8h-10.8Z" transform="translate(-64.18 -138.44)"/><path class="cls-3" d="M1285.89,14104.31v-9h31.2v-30.8H1328v30.8h41.9v9Zm55.2-23.2a185.19,185.19,0,0,0,3.4-20q1.2-10.4,1.4-20h-48.1v-9.2h59.3q-.1,6.7-.5,13.65t-1.1,13.65q-.81,6.71-1.75,12.8t-2.15,11.2Z" transform="translate(-64.18 -138.44)"/><path class="cls-3" d="M1409.19,14051.51a21.3,21.3,0,0,1,1.85-8.9,21.94,21.94,0,0,1,5-7.1,23.49,23.49,0,0,1,7.5-4.7,26.42,26.42,0,0,1,18.65,0,23.61,23.61,0,0,1,7.55,4.7,22.68,22.68,0,0,1,5.09,7.1,21.92,21.92,0,0,1,0,17.9,22.56,22.56,0,0,1-5.09,7.1,22.81,22.81,0,0,1-7.55,4.65,27.17,27.17,0,0,1-18.65,0,22.69,22.69,0,0,1-7.5-4.65,21.84,21.84,0,0,1-5-7.1A21.5,21.5,0,0,1,1409.19,14051.51Zm10.9,0a13.18,13.18,0,0,0,1,5.25,11.57,11.57,0,0,0,2.75,4,12.86,12.86,0,0,0,4.1,2.6,13.19,13.19,0,0,0,5,.95,13,13,0,0,0,9.1-3.5,13.18,13.18,0,0,0,0-18.5,12.78,12.78,0,0,0-9.1-3.6,12.66,12.66,0,0,0-9.2,3.6A12.27,12.27,0,0,0,1420.09,14051.51Zm10.29,67.5v-36.7h10.91v9.9h30.4v-9.9h10.8v36.7Zm41.31-9.1v-8.7h-30.4v8.7Zm0-83h10.8v51.8h-10.8Z" transform="translate(-64.18 -138.44)"/><path class="cls-3" d="M1555.38,14085.31a108.69,108.69,0,0,1-11,1.65q-6.2.66-12.59,1.05-6.61.51-13.6.65t-13.31,0v-56.1h10.81v46.8q3.9.1,9,0t10-.55c3.4-.26,6.78-.6,10.15-1s6.45-.9,9.25-1.5Zm8.31-58.4h10.8v87.5h-10.8Z" transform="translate(-64.18 -138.44)"/><path class="cls-3" d="M1596.88,14033H1639v9.2h-31.3v36.6q9.19,0,19.55-.75a181,181,0,0,0,19.64-2.45l1.21,9a213.88,213.88,0,0,1-24.25,2.9q-13.35.9-27,.6Zm66.21-6.1v28.3h14.79v9.2h-14.79v50h-10.8v-87.5Z" transform="translate(-64.18 -138.44)"/><path class="cls-3" d="M996.09,13200.54q-5-2.51-13.4-2.5-13,0-13,9.6,0,4.6,8.1,9.7,6.71,4.3,10.5,6.8a39.56,39.56,0,0,1,4.6,3.3q8.1,7.09,8.1,16.4,0,10.4-8,16.3a26.78,26.78,0,0,1-16.3,5,42.56,42.56,0,0,1-17.4-3.5l1.3-11.1a33.19,33.19,0,0,0,16.5,4.2q13.3,0,13.3-11.7,0-4.61-8.1-10-7.31-4.91-11-7.5l-4-2.8q-8-6.9-8-15.1a17.93,17.93,0,0,1,7.2-14.9q6.5-5,16.4-5a42.56,42.56,0,0,1,15.1,2.6Z" transform="translate(-64.18 -138.44)"/><path class="cls-3" d="M1054.49,13263.64h-38V13189h36.9v10.2h-26v20.8H1052v10.2h-24.6v23.1h27.1Z" transform="translate(-64.18 -138.44)"/><path class="cls-3" d="M1109,13263.64h-38V13189h36.9v10.2h-26v20.8h24.6v10.2h-24.6v23.1H1109Z" transform="translate(-64.18 -138.44)"/><path class="cls-3" d="M1212.39,13189l-27.6,43.1v31.5h-10.9v-31.5l-27.6-43.1h13l20,32.8,20.6-32.8Z" transform="translate(-64.18 -138.44)"/><path class="cls-3" d="M1253.39,13187.74q16,0,24.9,11.9,7.9,10.6,7.8,26.6-.19,17.5-8.2,27.6-8.7,11-24.5,11t-24.6-11q-8.2-10.31-8.2-27.6,0-16.2,7.8-26.7Q1237.2,13187.74,1253.39,13187.74Zm0,10.1q-10.4,0-16.4,8.8-5.51,7.91-5.5,19.6t5.5,19.7q6,8.8,16.4,8.8t16.4-8.8q5.4-7.91,5.4-19.7,0-11.59-5.4-19.6Q1263.79,13197.84,1253.39,13197.84Z" transform="translate(-64.18 -138.44)"/><path class="cls-3" d="M1356.19,13189v48.3q0,15-9.5,22.1-7.1,5.4-17.6,5.4t-17.6-5.4q-9.4-7-9.4-22.1V13189H1313v47.8q0,8.1,4.1,12.8,4.2,5,12,5t12.2-5q4-4.6,4-12.8V13189Z" transform="translate(-64.18 -138.44)"/><path class="cls-3" d="M1437.09,13200.54q-5-2.51-13.4-2.5-13,0-13,9.6,0,4.6,8.1,9.7,6.69,4.3,10.5,6.8a41.59,41.59,0,0,1,4.6,3.3q8.1,7.09,8.1,16.4,0,10.4-8,16.3a26.78,26.78,0,0,1-16.3,5,42.49,42.49,0,0,1-17.4-3.5l1.3-11.1a33.19,33.19,0,0,0,16.5,4.2q13.31,0,13.3-11.7,0-4.61-8.1-10-7.3-4.91-11-7.5l-4-2.8q-8-6.9-8-15.1a17.93,17.93,0,0,1,7.2-14.9q6.49-5,16.4-5a42.6,42.6,0,0,1,15.1,2.6Z" transform="translate(-64.18 -138.44)"/><path class="cls-3" d="M1487.39,13187.74q16,0,24.9,11.9,7.89,10.6,7.8,26.6-.19,17.5-8.2,27.6-8.7,11-24.5,11t-24.6-11q-8.2-10.31-8.2-27.6,0-16.2,7.8-26.7Q1471.18,13187.74,1487.39,13187.74Zm0,10.1q-10.4,0-16.4,8.8-5.51,7.91-5.5,19.6t5.5,19.7q6,8.8,16.4,8.8t16.4-8.8q5.4-7.91,5.4-19.7,0-11.59-5.4-19.6Q1497.79,13197.84,1487.39,13197.84Z" transform="translate(-64.18 -138.44)"/><path class="cls-3" d="M1566.09,13187.74q16,0,24.9,11.9,7.89,10.6,7.8,26.6-.21,17.5-8.2,27.6-8.7,11-24.5,11t-24.6-11q-8.21-10.31-8.2-27.6,0-16.2,7.8-26.7Q1549.88,13187.74,1566.09,13187.74Zm0,10.1q-10.41,0-16.4,8.8-5.51,7.91-5.5,19.6t5.5,19.7q6,8.8,16.4,8.8t16.4-8.8q5.4-7.91,5.4-19.7,0-11.59-5.4-19.6Q1576.49,13197.84,1566.09,13197.84Z" transform="translate(-64.18 -138.44)"/><path class="cls-3" d="M1669.19,13263.64h-12l-32-55.9v55.9h-10.8V13189h11.5l32.5,56.8V13189h10.8Z" transform="translate(-64.18 -138.44)"/></g><g id="Layer_2" data-name="Layer 2"><rect class="cls-4" width="1752.65" height="1752.65" rx="12" ry="12"/><path class="cls-2" d="M214.37,753.34V725.78h161v27.56ZM355,814.65a47.11,47.11,0,0,1-4.64,20.75,52.9,52.9,0,0,1-12.7,16.72,59,59,0,0,1-19,11.14,71.64,71.64,0,0,1-47.38,0,58.81,58.81,0,0,1-19-11.14,52.9,52.9,0,0,1-12.7-16.72,48.72,48.72,0,0,1,0-41.5,53,53,0,0,1,12.7-16.72,59,59,0,0,1,19-11.14,71.64,71.64,0,0,1,47.38,0,59.2,59.2,0,0,1,19,11.14,53,53,0,0,1,12.7,16.72A47.11,47.11,0,0,1,355,814.65ZM247.19,711.54V683.36h95.07v28.18ZM324.3,814.65A22.51,22.51,0,0,0,322,804.43a26.81,26.81,0,0,0-6.34-8.2,29.88,29.88,0,0,0-9.45-5.58,32.22,32.22,0,0,0-11.3-2,31.87,31.87,0,0,0-11.46,2,30.12,30.12,0,0,0-9.29,5.58,26.81,26.81,0,0,0-6.34,8.2,23.58,23.58,0,0,0,0,20.44,26.93,26.93,0,0,0,6.34,8.2,29.92,29.92,0,0,0,9.29,5.58,31.87,31.87,0,0,0,11.46,2,32.22,32.22,0,0,0,11.3-2,29.69,29.69,0,0,0,9.45-5.58,26.93,26.93,0,0,0,6.34-8.2A22.51,22.51,0,0,0,324.3,814.65Zm118,153.89H271.66V889h34.06v51.09H442.27Zm36.54-163.8H435.15V897H401.71V681.81h33.44v94.44h43.66Z" transform="translate(-64.18 -138.44)"/><path class="cls-2" d="M694.94,681.81h33.45V883.08H694.94V775h-52v64.09H508.54V693.89H542v47.37h67.81V693.89h33.13v52.64h52ZM609.79,810.93V769.75H542v41.18ZM734.58,959.26H562.72V871.93h34.07v59.15H734.58Z" transform="translate(-64.18 -138.44)"/><path class="cls-2" d="M210,1134.52v-27.87H345v27.87Zm123.55,69.67a62.77,62.77,0,0,1-4.34,23.53,57.41,57.41,0,0,1-11.92,18.73,53,53,0,0,1-17.81,12.23,54.75,54.75,0,0,1-21.67,4.34,55.56,55.56,0,0,1-22-4.34,54.73,54.73,0,0,1-18-12.23,56.54,56.54,0,0,1-12.07-18.58,62.41,62.41,0,0,1-4.34-23.68,59,59,0,0,1,4.49-23.07,57,57,0,0,1,12.23-18.43,56.34,56.34,0,0,1,18-12.07,55,55,0,0,1,21.68-4.34A55.11,55.11,0,0,1,317,1162.69a59.06,59.06,0,0,1,16.57,41.5Zm-94.14-117v-28.49h77.41v28.49Zm64.41,117q0-14.25-7.74-22.61t-18.27-8.36q-10.53,0-18.73,8.36t-8.21,22.61q0,14.55,8.21,23.22t18.73,8.67q10.51,0,18.27-8.67T303.86,1204.19ZM358.67,1058h32.2v99.4h27.25v-104h32.2v270.94h-32.2V1185.61H390.87v128.81h-32.2Z" transform="translate(-64.18 -138.44)"/><path class="cls-2" d="M750.68,1178.18v27.55H491.2v-27.55H604.53v-22.61H534.86v-99.7H568.3v24.46H674.51v-24.46h33.13v99.7H638.28v22.61ZM534.86,1338.57v-71.84H674.2v-16.41H534.55v-27.55H707.64v70.59H568v17.34H714.45v27.87Zm139.65-211.18V1108.5H568.3v18.89Z" transform="translate(-64.18 -138.44)"/><path class="cls-2" d="M793.1,1146.9h61.31v-47.37H793.1V1071h93.82v104.35H826.54v49.23a395.55,395.55,0,0,0,41.5-2.32,403.47,403.47,0,0,0,43.35-7l4.33,28.49q-13.32,2.79-27.09,4.8t-28.33,3.25q-28.8,2.18-67.2,1.86ZM926.87,1058h32.2v80.82h28.8v-85.46h32.2v270.94h-32.2V1167h-28.8v147.39h-32.2Z" transform="translate(-64.18 -138.44)"/><path class="cls-2" d="M1078.91,1080.64q26.92-8.06,48.92-8.05,26.94,0,44,13.31,19.5,15.49,19.51,45.83t-27.56,61.62q-6.2,7.13-10.68,12.85a85.43,85.43,0,0,0-7,10.06,55,55,0,0,0-6.19,26v10.53h-30v-10.53q0-29.1,21.37-55.73,8.35-10.53,13.16-16.88t6.34-8.52q8.67-14.23,8.67-29.41,0-13.31-9.29-20.75-8.67-6.81-23.53-6.81-18,0-46.14,9.29ZM1143,1308.85h-35.92v-34.06H1143Z" transform="translate(-64.18 -138.44)"/><path class="cls-2" d="M234.42,566.12H211.63v18.7h21.51v9.35H211.63V624h-9.89V556.86h32.68Z" transform="translate(-64.18 -138.44)"/><path class="cls-2" d="M255.56,624h-10V556.86h10Z" transform="translate(-64.18 -138.44)"/><path class="cls-2" d="M314.92,624H304.48l-9.8-22.69c-1.33-3.09-2.54-5-3.63-5.81q-2-1.54-6.35-1.54h-3.54v30h-9.72V556.86h17.79q20,0,20,18.16a14.07,14.07,0,0,1-3.72,10,17.46,17.46,0,0,1-9.71,5.17q5.09,1,7.53,6.72Zm-33.76-39.39h4.63q6,0,9.43-2.18A8,8,0,0,0,299.4,575q0-5.91-3.54-7.72c-1.63-.78-5-1.18-10-1.18h-4.72Z" transform="translate(-64.18 -138.44)"/><path class="cls-2" d="M356.76,567.12q-4.54-2.26-12.16-2.27-11.81,0-11.8,8.71,0,4.19,7.35,8.81,6.08,3.9,9.53,6.17a34.07,34.07,0,0,1,4.17,3q7.36,6.44,7.36,14.88A17.36,17.36,0,0,1,354,621.21a24.28,24.28,0,0,1-14.8,4.54,38.66,38.66,0,0,1-15.79-3.17l1.18-10.08a30.14,30.14,0,0,0,15,3.81q12.08,0,12.08-10.62,0-4.17-7.36-9.07c-4.41-3-7.76-5.23-10-6.81l-3.68-2.54q-7.26-6.27-7.26-13.71A16.29,16.29,0,0,1,329.8,560q5.91-4.53,14.89-4.54a38.6,38.6,0,0,1,13.7,2.36Z" transform="translate(-64.18 -138.44)"/><path class="cls-2" d="M415,565.85H396.6V624h-9.89V565.85H368.38v-9H415Z" transform="translate(-64.18 -138.44)"/><path class="cls-2" d="M435.81,630.11H424.56v-10.8h11.25Z" transform="translate(-64.18 -138.44)"/><rect class="cls-4" y="3727.89" width="1752.65" height="1752.65" rx="12" ry="12"/><path class="cls-2" d="M320,4919.76V4807.67H206.63V4779.8H382.2a545.12,545.12,0,0,0,10.22-90.73H243.17v-28.48H426.79q-.32,32.82-2.79,63.32a507.71,507.71,0,0,1-7.43,55.89h49.54v27.87H353.71v112.09Z" transform="translate(-64.18 -138.44)"/><path class="cls-2" d="M491.2,4812v-27.86H604.53v-27.25H533.62V4654.08H708.26V4682H566.75V4729H712.28v27.87h-74v27.25h113V4812Zm39.63,22h176.5v92.27H673.89v-63.78H530.83Z" transform="translate(-64.18 -138.44)"/><path class="cls-2" d="M906.12,4693.1H862.77v18q0,39.33,14.25,67.81a134.45,134.45,0,0,0,40.25,48l-23.53,21.67A141.49,141.49,0,0,1,864,4819.43a120.78,120.78,0,0,1-18.89-35.6,160.79,160.79,0,0,1-18.58,37.77,155.18,155.18,0,0,1-29.1,31.9l-23.85-20.44a139.19,139.19,0,0,0,39.95-50.63q13.94-29.88,13.93-70.75V4693.1H782.88V4664H906.12Zm59.45,213h-32.2V4755.65H894.05v-29.11h39.32v-76.79h32.2Zm56,9.9h-32.2V4645.1h32.2Z" transform="translate(-64.18 -138.44)"/><path class="cls-2" d="M233.69,4530.41q-4.55-2.27-12.16-2.27-11.81,0-11.8,8.72,0,4.17,7.35,8.8,6.07,3.9,9.53,6.17a35.27,35.27,0,0,1,4.17,3q7.36,6.43,7.36,14.88,0,9.45-7.26,14.8a24.35,24.35,0,0,1-14.8,4.54,38.5,38.5,0,0,1-15.79-3.18l1.18-10.08a30,30,0,0,0,15,3.82q12.08,0,12.08-10.62,0-4.17-7.36-9.08-6.61-4.44-10-6.81l-3.67-2.54q-7.26-6.26-7.26-13.7a16.3,16.3,0,0,1,6.53-13.53q5.91-4.53,14.89-4.53a38.38,38.38,0,0,1,13.7,2.36Z" transform="translate(-64.18 -138.44)"/><path class="cls-2" d="M286.69,4587.68H252.2V4520h33.49v9.25H262.1v18.88h22.32v9.26H262.1v21h24.59Z" transform="translate(-64.18 -138.44)"/><path class="cls-2" d="M349.05,4585.69q-5.08,2.81-15.89,2.81-15.51,0-24.77-9.44-9.18-9.62-9.17-25.32,0-15.52,9.35-25.14t24.59-9.62q11.07,0,15.89,2.45l-.73,9.26a41.12,41.12,0,0,0-15.16-2.45q-11,0-17.51,7.07t-6.54,18.43q0,11.81,6.35,18.51,6.45,7,17.7,7,9.54,0,15.16-3Z" transform="translate(-64.18 -138.44)"/><path class="cls-2" d="M394.79,4518.8q14.52,0,22.6,10.8,7.17,9.61,7.08,24.14-.18,15.89-7.44,25.05-7.9,10-22.24,10t-22.33-10q-7.44-9.34-7.44-25.05,0-14.7,7.08-24.23Q380.08,4518.8,394.79,4518.8Zm0,9.16a17.12,17.12,0,0,0-14.89,8q-5,7.17-5,17.79t5,17.88a17.86,17.86,0,0,0,29.77,0q4.9-7.17,4.91-17.88,0-10.53-4.91-17.79A17.11,17.11,0,0,0,394.79,4528Z" transform="translate(-64.18 -138.44)"/><path class="cls-2" d="M488.36,4587.68H477.47l-29-50.73v50.73h-9.8V4520h10.43l29.5,51.55V4520h9.8Z" transform="translate(-64.18 -138.44)"/><path class="cls-2" d="M504.88,4520.16H522q17.06,0,25.68,9.44,7.71,8.52,7.72,24,0,17.41-11.08,26-9.71,7.71-27,7.71H504.88Zm9.89,57.81H518q27.6,0,27.59-24.68,0-23.88-23.59-23.88h-7.27Z" transform="translate(-64.18 -138.44)"/><path class="cls-2" d="M582.12,4593.4H570.86v-10.8h11.26Z" transform="translate(-64.18 -138.44)"/><rect class="cls-5" x="4.75" y="7455.79" width="1752.65" height="1752.65" rx="12" ry="12"/><path class="cls-2" d="M478.79,7795.63h-9.26v15.06h-9.71v-15.06H429.87v-8.54L458.73,7743h10.8v43.57h9.26Zm-19-9.08v-30.13l-19.24,30.13Z" transform="translate(-64.18 -138.44)"/><path class="cls-2" d="M600,7743.16l-19.78,67.17H569.64l-15.07-52.64-15.16,52.64h-10.8l-19.51-67.17h10.62L534.24,7796l15.16-52.83h10.71l15,52.56,14.8-52.56Z" transform="translate(-64.18 -138.44)"/><path class="cls-2" d="M645.24,7810.69H610.75V7743h33.49v9.26h-23.6v18.88H643v9.26H620.64v21h24.6Z" transform="translate(-64.18 -138.44)"/><path class="cls-2" d="M694.71,7810.69H660.22V7743h33.49v9.26h-23.6v18.88h22.33v9.26H670.11v21h24.6Z" transform="translate(-64.18 -138.44)"/><path class="cls-2" d="M762.23,7810.33H748.8l-28-28.86v28.86H711v-67.17h9.71v25.78l25.78-25.78h13.16l-32.13,31.68Z" transform="translate(-64.18 -138.44)"/><path class="cls-2" d="M803,7753.42q-4.53-2.27-12.16-2.27-11.79,0-11.8,8.72,0,4.17,7.35,8.8,6.09,3.9,9.53,6.17a35.45,35.45,0,0,1,4.18,3q7.35,6.43,7.35,14.88,0,9.45-7.26,14.8a24.33,24.33,0,0,1-14.79,4.53,38.71,38.71,0,0,1-15.8-3.17l1.18-10.08a30.15,30.15,0,0,0,15,3.81q12.07,0,12.07-10.61,0-4.18-7.35-9.08-6.63-4.44-10-6.81c-2.27-1.57-3.49-2.42-3.68-2.54q-7.26-6.26-7.26-13.7a16.28,16.28,0,0,1,6.54-13.53q5.9-4.53,14.88-4.54a38.7,38.7,0,0,1,13.71,2.36Z" transform="translate(-64.18 -138.44)"/><path class="cls-2" d="M877.86,7753.42q-4.53-2.27-12.16-2.27-11.81,0-11.8,8.72,0,4.17,7.35,8.8,6.09,3.9,9.53,6.17a35.45,35.45,0,0,1,4.18,3q7.35,6.43,7.35,14.88,0,9.45-7.26,14.8a24.34,24.34,0,0,1-14.8,4.53,38.66,38.66,0,0,1-15.79-3.17l1.18-10.08a30.15,30.15,0,0,0,15,3.81q12.06,0,12.07-10.61,0-4.18-7.35-9.08-6.63-4.44-10-6.81l-3.68-2.54q-7.26-6.26-7.26-13.7a16.28,16.28,0,0,1,6.54-13.53q5.9-4.53,14.88-4.54a38.7,38.7,0,0,1,13.71,2.36Z" transform="translate(-64.18 -138.44)"/><path class="cls-2" d="M945.39,7743v43.84q0,13.62-8.62,20.06-6.45,4.9-16,4.9t-16-4.9q-8.54-6.35-8.53-20.06V7743h9.89v43.39q0,7.35,3.72,11.62,3.81,4.53,10.89,4.53t11.07-4.53q3.63-4.18,3.64-11.62V7743Z" transform="translate(-64.18 -138.44)"/><path class="cls-2" d="M962.27,7743.16H978.7q21.13,0,21.14,17.07,0,11.34-11.07,14.79a18.81,18.81,0,0,1,9.44,5.81,14.59,14.59,0,0,1,3.63,9.89q0,19.6-25.5,19.61H962.27ZM972,7801h4.54q15.6,0,15.61-10.35,0-6.61-5.36-9c-2.35-1-6.11-1.54-11.25-1.54H972Zm.18-30.22h5q13.08,0,13.07-9.81,0-8.52-11.52-8.53h-6.54Z" transform="translate(-64.18 -138.44)"/><path class="cls-2" d="M1048.4,7753.42q-4.53-2.27-12.16-2.27-11.81,0-11.8,8.72,0,4.17,7.35,8.8,6.07,3.9,9.53,6.17a35.45,35.45,0,0,1,4.18,3q7.35,6.43,7.35,14.88,0,9.45-7.26,14.8a24.34,24.34,0,0,1-14.8,4.53,38.66,38.66,0,0,1-15.79-3.17l1.18-10.08a30.15,30.15,0,0,0,15,3.81q12.06,0,12.07-10.61,0-4.18-7.35-9.08-6.63-4.44-10-6.81l-3.68-2.54q-7.26-6.26-7.26-13.7a16.3,16.3,0,0,1,6.53-13.53q5.91-4.53,14.89-4.54a38.6,38.6,0,0,1,13.7,2.36Z" transform="translate(-64.18 -138.44)"/><path class="cls-2" d="M1114.29,7808.7q-5.08,2.8-15.88,2.81-15.53,0-24.78-9.44-9.17-9.61-9.16-25.32,0-15.53,9.34-25.14t24.6-9.62q11.07,0,15.88,2.45l-.72,9.25a41.33,41.33,0,0,0-15.16-2.45q-11,0-17.52,7.08t-6.53,18.43q0,11.79,6.35,18.51,6.45,7,17.7,7,9.52,0,15.16-3Z" transform="translate(-64.18 -138.44)"/><path class="cls-2" d="M1177,7810.33h-10.44l-9.8-22.69c-1.33-3.09-2.54-5-3.63-5.81q-2-1.55-6.35-1.54h-3.54v30h-9.72v-67.17h17.79q20,0,20,18.16a14.07,14.07,0,0,1-3.72,10,17.53,17.53,0,0,1-9.71,5.18q5.09,1,7.53,6.71Zm-33.76-39.39h4.63q6,0,9.43-2.18a8,8,0,0,0,4.18-7.44c0-3.93-1.18-6.51-3.54-7.72-1.63-.78-5-1.18-10-1.18h-4.72Z" transform="translate(-64.18 -138.44)"/><path class="cls-2" d="M1196.79,7810.33h-10v-67.17h10Z" transform="translate(-64.18 -138.44)"/><path class="cls-2" d="M1212.22,7743h17.07q10,0,15.24,5,5.64,5.09,5.63,15,0,9.45-6.17,15.07-5.9,5.17-15.34,5.17h-6.53v27.5h-9.9Zm9.9,31h2.26q8.17,0,11.53-2,4.26-2.46,4.27-9,0-10.71-10.08-10.71h-8Z" transform="translate(-64.18 -138.44)"/><path class="cls-2" d="M1301.26,7752.15h-18.43v58.18h-9.89v-58.18h-18.33v-9h46.65Z" transform="translate(-64.18 -138.44)"/><path class="cls-2" d="M1319.87,7810.33h-10v-67.17h10Z" transform="translate(-64.18 -138.44)"/><path class="cls-2" d="M1362.25,7741.8q14.52,0,22.6,10.8,7.17,9.63,7.08,24.15-.18,15.89-7.44,25.05-7.9,10-22.24,10t-22.33-10q-7.44-9.35-7.44-25.05,0-14.72,7.08-24.24Q1347.54,7741.8,1362.25,7741.8Zm0,9.17a17.08,17.08,0,0,0-14.88,8q-5,7.17-5,17.79t5,17.88a17.86,17.86,0,0,0,29.76,0q4.9-7.17,4.91-17.88,0-10.53-4.91-17.79A17.08,17.08,0,0,0,1362.25,7751Z" transform="translate(-64.18 -138.44)"/><path class="cls-2" d="M1455.83,7810.69h-10.9l-29-50.73v50.73h-9.8V7743h10.44l29.49,51.56V7743h9.81Z" transform="translate(-64.18 -138.44)"/><path class="cls-2" d="M1361.21,9120q23.61,13.53,34,24.76,15.54,17,15.55,37.73,0,23.61-15,39.45-13.82,13.82-34.55,19.29v25.92H1337v-22.75a111.06,111.06,0,0,1-48.38-10.08l3.45-30.81a82.65,82.65,0,0,0,44.93,12.38V9140.4q-24.78-15-35.14-25.63-16.41-16.7-16.41-36,0-22.17,15.26-36.86,14.12-13.55,36.29-17.86v-20.44h24.19v18.71a142.93,142.93,0,0,1,20,2.45,112,112,0,0,1,17.71,5l-5.18,26.78q-12.39-5.46-32.54-6.91ZM1337,9052q-20.74,6-20.74,26.2,0,13.24,20.74,26.49Zm24.19,159.24q19-7.18,19-29.08,0-12.68-19-26.21Z" transform="translate(-64.18 -138.44)"/><path class="cls-2" d="M1454.22,9204.62q28.5,11.8,52.7,11.81,19.29,0,31.1-8.64,13.53-9.51,13.53-27.94,0-34.55-48.38-34.55h-21.31v-28.8h8.64q26.79,0,40.32-5.18,19.86-8.07,19.87-30.53a19.84,19.84,0,0,0-3-10.65,27.05,27.05,0,0,0-8.2-8.35,43.54,43.54,0,0,0-12.24-5.48,55,55,0,0,0-15.12-2q-21.31,0-48.09,12.38l-2.88-31.1q26.77-10.08,52.7-10.08,28.5,0,46.07,11.52,21.88,14.11,21.89,42.62,0,34-33.12,50.4,33.69,12.67,33.69,51.54,0,29.67-22.75,47.23-21,15.84-53.85,15.84-33.4,0-55-8.93Z" transform="translate(-64.18 -138.44)"/><path class="cls-2" d="M1696.4,9026.08q39.15,0,57,36.86,13.53,27.93,13.53,72,0,108.85-70.55,108.85t-70.56-108.85q0-44.62,13.25-72Q1656.94,9026.09,1696.4,9026.08Zm0,29.66q-24.78,0-34,28.22-5.48,16.71-5.47,51,0,34.56,5.47,51,8.92,28.52,34,28.51,24.76,0,34-28.51,5.46-16.69,5.47-51t-5.47-51Q1721.16,9055.74,1696.4,9055.74Z" transform="translate(-64.18 -138.44)"/><rect class="cls-4" x="14.25" y="9319.74" width="1752.65" height="1752.65" rx="12" ry="12"/><path class="cls-2" d="M461.47,10236.94v270.95H428v-161.95H382.51a72.48,72.48,0,0,1-21.36,42.11,74.72,74.72,0,0,1-24.31,15.79,78,78,0,0,1-29.57,5.58,79.22,79.22,0,0,1-29.73-5.58,74.22,74.22,0,0,1-24.46-15.79,72.16,72.16,0,0,1-16.41-24.3,79.26,79.26,0,0,1-5.88-30.81,78.08,78.08,0,0,1,5.88-30.66,72.54,72.54,0,0,1,16.41-24.15,76.61,76.61,0,0,1,24.46-15.95,77.4,77.4,0,0,1,29.73-5.73,76.24,76.24,0,0,1,29.57,5.73,77.16,77.16,0,0,1,24.31,15.95,80.65,80.65,0,0,1,13.47,17.8,70.17,70.17,0,0,1,7.58,21.52H428v-80.51Zm-196.93,96a53.92,53.92,0,0,0,3.25,19.35,45.08,45.08,0,0,0,9,14.71,38.43,38.43,0,0,0,13.47,9.44,45,45,0,0,0,33.6,0,38.11,38.11,0,0,0,13.62-9.44,47.19,47.19,0,0,0,9.13-14.71,56.18,56.18,0,0,0,0-38.55,47,47,0,0,0-9.13-14.87,38.23,38.23,0,0,0-13.62-9.44,45,45,0,0,0-33.6,0,38.56,38.56,0,0,0-13.47,9.44,44.9,44.9,0,0,0-9,14.87A54.25,54.25,0,0,0,264.54,10332.94Z" transform="translate(-64.18 -138.44)"/><path class="cls-2" d="M594,10363a271.79,271.79,0,0,1-37.93,5.73,385.16,385.16,0,0,1-38.86,1.39v-122.31h70.6v29.73H551v61a110.18,110.18,0,0,0,19-1.24,171.26,171.26,0,0,0,19.67-3.72Zm-23.22,94.13v-26.94H747.9v26.94Zm88.56,76.18q-26.64,0-43.66-9.6-17.35-9.28-17.34-24.46,0-15.5,17.34-25.39t43.66-9.91q26.94,0,44.28,9.91,17.64,9.9,17.65,25.39,0,15.17-17.65,24.46Q686.58,10533.27,659.34,10533.28Zm30-172.48a326.56,326.56,0,0,1-41.8,7.44,416.62,416.62,0,0,1-44.28,1.85v-122.31h70.6v29.73H637v61a150.77,150.77,0,0,0,22.61-2q13-2,25.08-5.11Zm-79.27,60.07v-29.41h98.47v29.41Zm49.24,87.95a66.11,66.11,0,0,0,19-2.48q8.21-2.49,8.21-7.12t-8.21-7.9a51.42,51.42,0,0,0-19-3.25,46.92,46.92,0,0,0-18.27,3.25q-7.74,3.26-7.74,7.9t7.74,7.12A60.2,60.2,0,0,0,659.34,10508.82Zm49.85-271.88h33.44v145.23H709.19v-64.1h-43v-27.25h43Z" transform="translate(-64.18 -138.44)"/><path class="cls-2" d="M790.63,10414.06a207.89,207.89,0,0,0,36.54-26.63,171.42,171.42,0,0,0,26.63-30.81,142.27,142.27,0,0,0,16.72-33.9,154.75,154.75,0,0,0,7.43-35.61H808.9v-29.73H914.49q0,35-7.74,63.17h37.77v-79h32.21V10498H944.52v-149.25H896.84a178.1,178.1,0,0,1-33.29,50.47,227.49,227.49,0,0,1-50,39.63Zm243.69,93.83h-32.2v-270.95h32.2Z" transform="translate(-64.18 -138.44)"/><path class="cls-2" d="M1093.15,10264.19q26.94-8,48.93-8.05,26.94,0,44,13.32,19.5,15.48,19.5,45.83t-27.55,61.62q-6.21,7.13-10.69,12.85a86.42,86.42,0,0,0-7,10.06,54.88,54.88,0,0,0-6.2,26v10.53h-30v-10.53q0-29.1,21.36-55.74,8.37-10.51,13.16-16.87t6.35-8.52q8.67-14.24,8.67-29.41,0-13.32-9.29-20.75-8.67-6.81-23.53-6.81-18,0-46.14,9.29Zm64.1,228.21h-35.92v-34.06h35.92Z" transform="translate(-64.18 -138.44)"/><path class="cls-2" d="M256.74,10121H238.32v58.18h-9.9V10121H210.09v-9h46.65Z" transform="translate(-64.18 -138.44)"/><path class="cls-2" d="M314.65,10179.52h-9.81v-30.22H277v30.22h-9.89v-67.7H277V10140h27.86v-28.22h9.81Z" transform="translate(-64.18 -138.44)"/><path class="cls-2" d="M341.33,10179.16h-10V10112h10Z" transform="translate(-64.18 -138.44)"/><path class="cls-2" d="M400.69,10179.16H390.25l-9.8-22.69q-2-4.62-3.63-5.81c-1.34-1-3.45-1.54-6.36-1.54h-3.54v30h-9.71V10112H375q20,0,20,18.15a14.07,14.07,0,0,1-3.72,10,17.47,17.47,0,0,1-9.71,5.18c3.38.66,5.9,2.9,7.53,6.71Zm-33.77-39.39h4.63c4,0,7.14-.73,9.44-2.18a8.06,8.06,0,0,0,4.18-7.44q0-5.9-3.54-7.71c-1.64-.79-5-1.18-10-1.18h-4.72Z" transform="translate(-64.18 -138.44)"/><path class="cls-2" d="M411.4,10112h17.15q17.06,0,25.69,9.44,7.71,8.52,7.71,24,0,17.43-11.07,26.05-9.72,7.71-27,7.71H411.4Zm9.89,57.81h3.27q27.58,0,27.59-24.68,0-23.88-23.6-23.87h-7.26Z" transform="translate(-64.18 -138.44)"/><path class="cls-2" d="M488.63,10185.24H477.38v-10.8h11.25Z" transform="translate(-64.18 -138.44)"/></g></svg>