<svg xmlns="http://www.w3.org/2000/svg" viewBox="0 0 1754.14 2621.65"><defs><style>.cls-1{fill:#2c3e50;}.cls-2{fill:#fff;}.cls-3{fill:#4b80c2;}.cls-4{opacity:0.1;}</style></defs><title>trial</title><g id="Layer_3" data-name="Layer 3"><rect class="cls-1" x="1.5" y="869" width="1752.65" height="1752.65" rx="12" ry="12"/><path class="cls-2" d="M647.9,2103.63q32.8-12.08,56.35-28.79a140.17,140.17,0,0,0,38.09-40l-84.54,7.74L651.3,2012l104.35-6.51a159.62,159.62,0,0,0,6.51-34.68H664.62V1942H798.07q.93,37.47-7.74,67.5A160.62,160.62,0,0,1,764,2062.76a178.41,178.41,0,0,1-42,40.25,242.88,242.88,0,0,1-55,27.87Zm222.94-180.52v87.63h45.83v28.49H870.84v154.82H837.4V1923.11Z" transform="translate(-64.18 -86.28)"/><path class="cls-2" d="M929.05,2099.3v-27.87h113.34v-24.15h-70V1930.85h172.78v26.94H1004.61v18.27h139v25.7h-139v18.58H1148v26.94h-71.84v24.15h113v27.87ZM968.69,2120h176.5v84.23h-33.44v-55.74H968.69Z" transform="translate(-64.18 -86.28)"/><path class="cls-2" d="M1213.93,2158.13v-27.87H1474v27.87Zm213.66-150.8a71.87,71.87,0,0,1-6,29.42,73.13,73.13,0,0,1-16.88,23.84,80.72,80.72,0,0,1-26.32,15.95,94.84,94.84,0,0,1-33.75,5.73,96.17,96.17,0,0,1-33.91-5.73,80.39,80.39,0,0,1-26.47-15.95,73,73,0,0,1-17-82.83,72.79,72.79,0,0,1,17.34-24,86.13,86.13,0,0,1,26.32-15.79,92.67,92.67,0,0,1,33.75-5.88,90.91,90.91,0,0,1,33.13,5.88,86.25,86.25,0,0,1,26.32,15.79,77.06,77.06,0,0,1,17.19,24A69.85,69.85,0,0,1,1427.59,2007.33Zm-36.54,0a45.19,45.19,0,0,0-12.39-31.89q-12.69-13.62-34.06-13.63t-34.37,13.63a45.27,45.27,0,0,0-12.7,31.89q0,19.2,12.7,31.9a44.74,44.74,0,0,0,14.86,9.75,50.81,50.81,0,0,0,19.51,3.56q21.36,0,34.06-13.62A44.8,44.8,0,0,0,1391.05,2007.33Z" transform="translate(-64.18 -86.28)"/><path class="cls-2" d="M1498.8,2164.32v-27.86h113v-42.74h-69.67v-92.89H1681.5V1964.6H1542.16v-28.18h173.09V2029H1575.91v36.54h145.22v28.17h-75.55v42.74h113.33v27.86Z" transform="translate(-64.18 -86.28)"/><path class="cls-2" d="M806.43,2342.06H750.7v18.58q0,41.19,18.27,69.36a139,139,0,0,0,46.45,44l-21.06,25.39A208.73,208.73,0,0,1,757.2,2467q-16.73-18.42-24.15-38.86a142.09,142.09,0,0,1-24.62,41.65,170.63,170.63,0,0,1-37.62,33.29l-21.06-23.54a166.26,166.26,0,0,0,25.86-19.81,121.54,121.54,0,0,0,20.9-26,143.5,143.5,0,0,0,13.78-32.52q5.12-17.64,5.11-39.94v-19.2h-57v-28.49h148Zm41.5-47.37h33.44v270.94H847.93Z" transform="translate(-64.18 -86.28)"/><path class="cls-2" d="M929.05,2434.65v-27.87h174q1.86-7.74,3.56-17.65t2.94-20q1.23-10.07,2-19.67t1.09-16.72H968.38v-28.49h179a524.29,524.29,0,0,1-2.79,54.35q-2.79,26.79-7.12,48.15h51.71v27.87Zm43.36,138.41V2471.8H1145.5v101.26Zm140-73.08H1005.85v44.9h106.52Z" transform="translate(-64.18 -86.28)"/><path class="cls-2" d="M1333.45,2519.49V2468.4H1213.93v-27.87H1474v27.87H1367.21v51.09Zm104,55.12H1255.42V2496h33.44v50.47H1437.5Zm-180.22-160.09V2306.76h173.09v107.76Zm140-79.58H1290.72v51.4h106.52Z" transform="translate(-64.18 -86.28)"/><path class="cls-2" d="M1502.21,2475.52q10.21,0,22.14-.31t24.62-.77l25.85-.93q13.15-.47,25.86-1.09,25.38-1.55,48.61-3.25t38.09-3.87l3.1,27.56q-7.76.93-17.65,2t-21.21,2q-11.31.93-23.69,1.71t-24.77,1.7q-12.71.93-25.7,1.55t-25.71,1.08q-12.69.47-24.77.78t-22.6.31Zm17-102.18a63.12,63.12,0,0,1,5.73-27.1,66.29,66.29,0,0,1,15.64-21.21,70.83,70.83,0,0,1,23.07-14.4,77.68,77.68,0,0,1,28.33-5.11,76.88,76.88,0,0,1,28,5.11,71,71,0,0,1,23.07,14.4,68.25,68.25,0,0,1,15.79,21.21,61.76,61.76,0,0,1,5.89,27.1,62.69,62.69,0,0,1-5.89,27.24A67.66,67.66,0,0,1,1643.1,2422,73.81,73.81,0,0,1,1620,2436a76.67,76.67,0,0,1-28,5.11,77.48,77.48,0,0,1-28.33-5.11,73.58,73.58,0,0,1-23.07-14.09,65.75,65.75,0,0,1-15.64-21.37A64.07,64.07,0,0,1,1519.24,2373.34Zm33.75,0a43,43,0,0,0,2.94,16.25,37,37,0,0,0,20.6,20.75,40.12,40.12,0,0,0,15.48,2.94,38.81,38.81,0,0,0,27.56-11.15Q1631,2391,1631,2373.34q0-17-11.45-28.18A37.58,37.58,0,0,0,1592,2333.7a40.12,40.12,0,0,0-15.48,2.94,36.66,36.66,0,0,0-12.39,8.36,39.07,39.07,0,0,0-8.21,12.7A41.33,41.33,0,0,0,1553,2373.34Zm149.56-78.65H1736v270.94h-33.44Z" transform="translate(-64.18 -86.28)"/></g><g id="Layer_2" data-name="Layer 2"><rect class="cls-3" width="1752.65" height="1752.65" rx="12" ry="12"/><path class="cls-2" d="M214.37,701.18V673.62h161v27.56ZM355,762.49a47,47,0,0,1-4.64,20.74A52.83,52.83,0,0,1,337.61,800a59,59,0,0,1-19,11.14,71.64,71.64,0,0,1-47.38,0,58.81,58.81,0,0,1-19-11.14,52.83,52.83,0,0,1-12.7-16.73,48.69,48.69,0,0,1,0-41.49A53,53,0,0,1,252.15,725a59,59,0,0,1,19-11.15,71.81,71.81,0,0,1,47.38,0,59.22,59.22,0,0,1,19,11.15,53,53,0,0,1,12.7,16.72A47.11,47.11,0,0,1,355,762.49ZM247.19,659.38V631.2h95.07v28.18ZM324.3,762.49A22.51,22.51,0,0,0,322,752.27a27,27,0,0,0-6.34-8.21,30,30,0,0,0-9.45-5.57,32.22,32.22,0,0,0-11.3-2,31.87,31.87,0,0,0-11.46,2,30.29,30.29,0,0,0-9.29,5.57,27,27,0,0,0-6.34,8.21,23.58,23.58,0,0,0,0,20.44,26.93,26.93,0,0,0,6.34,8.2,29.92,29.92,0,0,0,9.29,5.58,31.87,31.87,0,0,0,11.46,2,32.22,32.22,0,0,0,11.3-2,29.69,29.69,0,0,0,9.45-5.58,26.93,26.93,0,0,0,6.34-8.2A22.54,22.54,0,0,0,324.3,762.49Zm118,153.89H271.66V836.8h34.06v51.1H442.27Zm36.54-163.8H435.15v92.27H401.71V629.65h33.44v94.44h43.66Z" transform="translate(-64.18 -86.28)"/><path class="cls-2" d="M694.94,629.65h33.45V830.92H694.94V722.85h-52V787H508.54V641.73H542V689.1h67.81V641.73h33.13v52.64h52ZM609.79,758.77V717.59H542v41.18ZM734.58,907.09H562.72V819.77h34.07v59.15H734.58Z" transform="translate(-64.18 -86.28)"/><path class="cls-2" d="M210,1082.35v-27.86H345v27.86ZM333.59,1152a62.82,62.82,0,0,1-4.34,23.54,57.41,57.41,0,0,1-11.92,18.73,53.15,53.15,0,0,1-17.81,12.23,54.75,54.75,0,0,1-21.67,4.34,55.56,55.56,0,0,1-22-4.34,54.89,54.89,0,0,1-18-12.23,56.64,56.64,0,0,1-12.07-18.58,62.46,62.46,0,0,1-4.34-23.69A59,59,0,0,1,226,1129a56.82,56.82,0,0,1,12.23-18.43,56.18,56.18,0,0,1,18-12.07,55,55,0,0,1,21.68-4.34A55.11,55.11,0,0,1,317,1110.53,58.26,58.26,0,0,1,329.1,1129,59,59,0,0,1,333.59,1152Zm-94.14-117v-28.49h77.41V1035Zm64.41,117q0-14.24-7.74-22.6t-18.27-8.36q-10.53,0-18.73,8.36t-8.21,22.6q0,14.57,8.21,23.23t18.73,8.67q10.51,0,18.27-8.67T303.86,1152Zm54.81-146.15h32.2v99.4h27.25v-104h32.2v270.94h-32.2V1133.45H390.87v128.81h-32.2Z" transform="translate(-64.18 -86.28)"/><path class="cls-2" d="M750.68,1126v27.56H491.2V1126H604.53v-22.6H534.86V1003.7H568.3v24.47H674.51V1003.7h33.13v99.71H638.28V1126Zm-215.82,160.4v-71.84H674.2v-16.41H534.55V1170.6H707.64v70.6H568v17.34H714.45v27.87Zm139.65-211.18v-18.89H568.3v18.89Z" transform="translate(-64.18 -86.28)"/><path class="cls-2" d="M793.1,1094.74h61.31v-47.38H793.1v-28.48h93.82v104.35H826.54v49.23a395.55,395.55,0,0,0,41.5-2.32,403.47,403.47,0,0,0,43.35-7l4.33,28.49q-13.32,2.79-27.09,4.8t-28.33,3.25q-28.8,2.18-67.2,1.86Zm133.77-88.87h32.2v80.82h28.8v-85.46h32.2v270.94h-32.2v-157.3h-28.8v147.39h-32.2Z" transform="translate(-64.18 -86.28)"/><path class="cls-2" d="M1078.91,1028.48q26.92-8.06,48.92-8.06,26.94,0,44,13.32,19.5,15.48,19.51,45.83t-27.56,61.62q-6.2,7.13-10.68,12.85a85.43,85.43,0,0,0-7,10.06,55,55,0,0,0-6.19,26v10.53h-30v-10.53q0-29.1,21.37-55.74,8.35-10.51,13.16-16.87t6.34-8.52q8.67-14.24,8.67-29.41,0-13.32-9.29-20.75-8.67-6.81-23.53-6.81-18,0-46.14,9.29ZM1143,1256.69h-35.92v-34.07H1143Z" transform="translate(-64.18 -86.28)"/><path class="cls-2" d="M234.42,514H211.63v18.7h21.51V542H211.63v29.86h-9.89V504.7h32.68Z" transform="translate(-64.18 -86.28)"/><path class="cls-2" d="M255.56,571.87h-10V504.7h10Z" transform="translate(-64.18 -86.28)"/><path class="cls-2" d="M314.92,571.87H304.48l-9.8-22.69q-2-4.63-3.63-5.81-2-1.54-6.35-1.55h-3.54v30h-9.72V504.7h17.79q20,0,20,18.15a14.08,14.08,0,0,1-3.72,10,17.46,17.46,0,0,1-9.71,5.17q5.09,1,7.53,6.72Zm-33.76-39.39h4.62c4,0,7.14-.73,9.44-2.18a8.07,8.07,0,0,0,4.18-7.45q0-5.9-3.54-7.71-2.44-1.18-10-1.18h-4.72Z" transform="translate(-64.18 -86.28)"/><path class="cls-2" d="M356.76,515q-4.54-2.26-12.16-2.27-11.81,0-11.8,8.71,0,4.19,7.35,8.81,6.08,3.9,9.53,6.17a35.69,35.69,0,0,1,4.17,3q7.36,6.45,7.36,14.89A17.36,17.36,0,0,1,354,569.05a24.28,24.28,0,0,1-14.8,4.54,38.5,38.5,0,0,1-15.79-3.18l1.18-10.07a30.14,30.14,0,0,0,15,3.81q12.08,0,12.08-10.62,0-4.17-7.36-9.07c-4.41-3-7.76-5.24-10-6.81l-3.68-2.54q-7.26-6.27-7.26-13.71a16.29,16.29,0,0,1,6.53-13.52q5.91-4.54,14.89-4.54a38.6,38.6,0,0,1,13.7,2.36Z" transform="translate(-64.18 -86.28)"/><path class="cls-2" d="M415,513.69H396.6v58.18h-9.89V513.69H368.38v-9H415Z" transform="translate(-64.18 -86.28)"/><path class="cls-2" d="M435.81,578H424.56v-10.8h11.25Z" transform="translate(-64.18 -86.28)"/><g id="_Group_" data-name="&lt;Group&gt;" class="cls-4"><g id="_Group_2" data-name="&lt;Group&gt;"><path id="_Path_" data-name="&lt;Path&gt;" class="cls-2" d="M940.92,703.11c-34,0-51.51-22.53-65.54-40.64-14.59-18.8-24.54-30.33-44.51-30.33s-29.92,11.53-44.5,30.33c-14,18.11-31.51,40.64-65.55,40.64s-51.47-22.54-65.5-40.64c-14.57-18.81-24.51-30.33-44.47-30.33s-29.91,11.53-44.48,30.33c-14,18.11-31.5,40.64-65.52,40.64s-51.48-22.53-65.51-40.64c-14.56-18.81-24.5-30.33-44.46-30.33a13.31,13.31,0,1,1,0-26.61c34,0,51.47,22.53,65.5,40.64C471,665,480.89,676.5,500.85,676.5s29.91-11.53,44.48-30.33c14-18.11,31.5-40.64,65.52-40.64s51.48,22.53,65.5,40.64c14.58,18.8,24.52,30.33,44.47,30.33s29.93-11.53,44.51-30.33c14-18.11,31.51-40.64,65.54-40.64s51.5,22.53,65.54,40.64C911,665,920.94,676.5,940.92,676.5a13.31,13.31,0,0,1,0,26.61Z" transform="translate(-64.18 -86.28)"/></g><g id="_Group_3" data-name="&lt;Group&gt;"><path id="_Path_2" data-name="&lt;Path&gt;" class="cls-2" d="M1580.29,1162.24c-19.89,0-30.1-13.17-38.31-23.76-8.53-11-14.34-17.73-26-17.73s-17.49,6.74-26,17.73c-8.21,10.59-18.42,23.76-38.31,23.76s-30.1-13.18-38.3-23.76c-8.52-11-14.33-17.73-26-17.73s-17.49,6.74-26,17.73c-8.21,10.59-18.42,23.76-38.31,23.76s-30.09-13.17-38.29-23.76c-8.52-11-14.33-17.73-26-17.73a7.78,7.78,0,0,1,0-15.56c19.88,0,30.09,13.17,38.29,23.76,8.52,11,14.33,17.73,26,17.73s17.49-6.74,26-17.73c8.2-10.59,18.41-23.76,38.31-23.76s30.09,13.17,38.29,23.76c8.52,11,14.33,17.73,26,17.73s17.49-6.74,26-17.73c8.21-10.59,18.43-23.76,38.32-23.76s30.11,13.17,38.32,23.76c8.52,11,14.34,17.73,26,17.73a7.78,7.78,0,0,1,0,15.56Z" transform="translate(-64.18 -86.28)"/></g><g id="_Group_4" data-name="&lt;Group&gt;"><path id="_Path_3" data-name="&lt;Path&gt;" class="cls-2" d="M1595.21,425.23c-19.9,0-30.11-13.18-38.32-23.76-8.52-11-14.34-17.73-26-17.73s-17.49,6.74-26,17.73c-8.21,10.58-18.43,23.76-38.32,23.76s-30.1-13.18-38.3-23.76c-8.52-11-14.33-17.73-26-17.73s-17.49,6.74-26,17.73c-8.2,10.58-18.41,23.76-38.3,23.76s-30.1-13.18-38.3-23.76c-8.51-11-14.32-17.73-26-17.73a7.78,7.78,0,0,1,0-15.56c19.89,0,30.09,13.17,38.29,23.76,8.52,11,14.33,17.73,26,17.73s17.48-6.74,26-17.73c8.21-10.59,18.42-23.76,38.31-23.76s30.09,13.17,38.29,23.76c8.52,11,14.33,17.73,26,17.73s17.49-6.74,26-17.73c8.21-10.59,18.42-23.76,38.31-23.76s30.11,13.17,38.32,23.76c8.52,11,14.34,17.73,26,17.73a7.78,7.78,0,0,1,0,15.56Z" transform="translate(-64.18 -86.28)"/></g><g id="_Group_5" data-name="&lt;Group&gt;"><path id="_Path_4" data-name="&lt;Path&gt;" class="cls-2" d="M1117.79,1574c-27.23,0-41.21-18-52.44-32.52-11.66-15-19.62-24.26-35.6-24.26s-23.94,9.22-35.6,24.26C982.91,1556,968.94,1574,941.71,1574s-41.18-18-52.4-32.52c-11.66-15-19.61-24.26-35.57-24.26s-23.93,9.22-35.6,24.26C806.92,1556,793,1574,765.73,1574s-41.18-18-52.4-32.52c-11.66-15-19.61-24.26-35.57-24.26a10.65,10.65,0,1,1,0-21.29c27.21,0,41.18,18,52.4,32.51,11.65,15,19.6,24.27,35.57,24.27s23.93-9.23,35.59-24.27c11.22-14.48,25.19-32.51,52.42-32.51s41.18,18,52.4,32.51c11.65,15,19.61,24.27,35.57,24.27s23.94-9.23,35.61-24.27c11.23-14.48,25.2-32.51,52.43-32.51s41.2,18,52.43,32.51c11.67,15,19.63,24.27,35.61,24.27a10.65,10.65,0,0,1,0,21.29Z" transform="translate(-64.18 -86.28)"/></g><circle id="_Path_5" data-name="&lt;Path&gt;" class="cls-2" cx="1516.97" cy="786.88" r="23.66"/><path id="_Path_6" data-name="&lt;Path&gt;" class="cls-2" d="M711.73,374.86a23.66,23.66,0,1,1-23.65-23.65A23.65,23.65,0,0,1,711.73,374.86Z" transform="translate(-64.18 -86.28)"/><circle id="_Path_7" data-name="&lt;Path&gt;" class="cls-2" cx="514.48" cy="1251.15" r="23.66"/></g></g></svg>