<svg xmlns="http://www.w3.org/2000/svg" xmlns:xlink="http://www.w3.org/1999/xlink" viewBox="0 0 1500 346.38"><defs><style>.cls-1{fill:url(#linear-gradient);}.cls-2{fill:#fff;}</style><linearGradient id="linear-gradient" x1="750" y1="27.76" x2="750" y2="466.09" gradientUnits="userSpaceOnUse"><stop offset="0" stop-color="#59bbc7"/><stop offset="0.24" stop-color="#58bac7" stop-opacity="0.99"/><stop offset="0.35" stop-color="#57b8c7" stop-opacity="0.95"/><stop offset="0.43" stop-color="#53b5c7" stop-opacity="0.89"/><stop offset="0.5" stop-color="#4eb0c7" stop-opacity="0.8"/><stop offset="0.55" stop-color="#48aac7" stop-opacity="0.68"/><stop offset="0.61" stop-color="#40a2c7" stop-opacity="0.54"/><stop offset="0.66" stop-color="#3798c6" stop-opacity="0.36"/><stop offset="0.7" stop-color="#2d8dc6" stop-opacity="0.17"/><stop offset="0.73" stop-color="#2484c6" stop-opacity="0"/></linearGradient></defs><title>background</title><g id="Layer_2" data-name="Layer 2"><rect class="cls-1" width="1500" height="346.38"/></g><g id="Layer_1" data-name="Layer 1"><path class="cls-2" d="M126,73.89v61.8H68.65V73.89h19.2V91.44H108.1V73.89Zm-17.85,45.9v-12.3H87.85v12.3Zm73.5,28.65v17.85a69.87,69.87,0,0,1-1,10.65q-.9,5-2,8.85a72.65,72.65,0,0,1-2.7,8.25H157.6a52.38,52.38,0,0,0,3.6-10.13,73.87,73.87,0,0,0,1.65-9.22,59.08,59.08,0,0,0,.45-9.3H88.15V148.44Zm0-80.55v71.85H164.65v-24.9h-11v24.9h-18V67.89h18v32.7h11V67.89Z" transform="translate(0 0.83)"/><path class="cls-2" d="M300.4,180.39H190.6V162.24H300.4ZM288.7,76.74v16.8a163.69,163.69,0,0,1-1.8,26,174.57,174.57,0,0,1-3.9,18.53,95.31,95.31,0,0,1-5.55,14.85H255.7a69.58,69.58,0,0,0,7.43-17.1,116,116,0,0,0,3.45-17,105.6,105.6,0,0,0,.82-14.7q-.15-6.6-.45-10.5H201v-17Z" transform="translate(0 0.83)"/><path class="cls-2" d="M374.65,80.79v50.85H330.4v21.3h47.25v15.6h-66.6v-54.3H357.1V98.34H309.4V80.79ZM424.3,110v19.35H406.9v65H387.7V69.39h19.2V110Z" transform="translate(0 0.83)"/><path class="cls-2" d="M544.6,142.59H499.3v22.95H480.1V142.59H433.3v-16.2H544.6ZM443.2,194V150.09h17.85v26.7H535V194Zm66.6-126.3a32.9,32.9,0,0,1,8.55,1.12,22.51,22.51,0,0,1,7.42,3.45A18.2,18.2,0,0,1,531,78.24a17.17,17.17,0,0,1,2,8.55v8.7a17.58,17.58,0,0,1-7.13,14.7,22.56,22.56,0,0,1-7.65,3.6,35.64,35.64,0,0,1-9.37,1.2H468.25a31.51,31.51,0,0,1-8.7-1.2A20.47,20.47,0,0,1,452.2,110a18.65,18.65,0,0,1-5-6.38,20.39,20.39,0,0,1-1.87-9.07v-7.5a17.65,17.65,0,0,1,6.3-13.8q6.3-5.55,18.45-5.55Zm-3.3,33.45a10.64,10.64,0,0,0,6.82-2.33q2.92-2.33,2.93-7.12t-3.08-7a11.76,11.76,0,0,0-7-2.17H471.25a10.28,10.28,0,0,0-6.68,2.25q-2.77,2.25-2.77,7t2.55,7a10.06,10.06,0,0,0,6.9,2.25Z" transform="translate(0 0.83)"/><path class="cls-2" d="M667.3,177.39H553.6V159.54H667.3ZM584.35,98v26.4H654v18.3H564.4V79.59H654V98Z" transform="translate(0 0.83)"/><path class="cls-2" d="M186.16,248.92H64.21c-1.83,0-1.51.21-.11.8a20.36,20.36,0,0,0,7,1H193c1.83,0,1.52-.21.12-.79a20.4,20.4,0,0,0-7-1Z" transform="translate(0 0.83)"/><path class="cls-2" d="M204.47,218.33h23.76a29.38,29.38,0,0,1,9.28,1.24,15.16,15.16,0,0,1,5.84,3.36,11.44,11.44,0,0,1,3,4.8,18.5,18.5,0,0,1,.84,5.56,15,15,0,0,1-.8,5.24,12.25,12.25,0,0,1-2,3.52,9.68,9.68,0,0,1-2.44,2.16c-.85.51-1.6.92-2.24,1.24q5.35,2.09,7.28,5.52a15.52,15.52,0,0,1,1.76,8.24,17.89,17.89,0,0,1-1.84,7.64,15,15,0,0,1-4.72,5.4,21.72,21.72,0,0,1-7.32,3.24,39.09,39.09,0,0,1-9.56,1.08H204.47Zm13.2,23.76h11a17.43,17.43,0,0,0,4.36-.52,10.79,10.79,0,0,0,3.52-1.56,7.25,7.25,0,0,0,2.32-2.68,8.21,8.21,0,0,0,.84-3.8,6.56,6.56,0,0,0-3-5.88q-3-2-8.44-2H217.67Zm.32,24.8h11.6a13.2,13.2,0,0,0,4.72-.76,9.72,9.72,0,0,0,3.32-2,8.25,8.25,0,0,0,2-2.88,8.71,8.71,0,0,0,.64-3.28,9.08,9.08,0,0,0-.8-3.92,7.49,7.49,0,0,0-2.2-2.76,10,10,0,0,0-3.2-1.64,12.84,12.84,0,0,0-3.8-.56H218Z" transform="translate(0 0.83)"/><path class="cls-2" d="M265.19,276.57H252.31l20.8-58.32h11.28L305,276.57H294.39l-3.6-12.08h-21.6Zm7.2-19h15l-7.28-24.72h-.16Z" transform="translate(0 0.83)"/><path class="cls-2" d="M344.71,258.73h11.52a19.23,19.23,0,0,1-1.36,7.44,16.14,16.14,0,0,1-9.44,9.16,19.91,19.91,0,0,1-7.12,1.24h-10.8a21.61,21.61,0,0,1-5.6-.8,16.17,16.17,0,0,1-5.48-2.68,14.8,14.8,0,0,1-4.2-5,16.65,16.65,0,0,1-1.68-7.88V236.49a19,19,0,0,1,1.32-7.08,16.68,16.68,0,0,1,3.8-5.76,18.2,18.2,0,0,1,6-3.88,21.06,21.06,0,0,1,8-1.44h8.8a17.52,17.52,0,0,1,6,1,16.94,16.94,0,0,1,8.64,6.84,23.39,23.39,0,0,1,2.52,5.2l-11,3.44a9,9,0,0,0-3-3.64,7.23,7.23,0,0,0-4.28-1.4h-6.08a7.68,7.68,0,0,0-7.6,5.44,10.27,10.27,0,0,0-.48,3.12v19.12a21.37,21.37,0,0,0,.28,3.64,7.38,7.38,0,0,0,1.08,2.84,5.4,5.4,0,0,0,2.2,1.88,8.41,8.41,0,0,0,3.64.68h6.8a6.44,6.44,0,0,0,5.44-2.28A10,10,0,0,0,344.71,258.73Z" transform="translate(0 0.83)"/><path class="cls-2" d="M403.43,262.73v13.76L374,255v21.52H362.15V218.33H374v16.16l28.4-16v13.12l-22,13Z" transform="translate(0 0.83)"/><path class="cls-2" d="M453.27,245.61v13q0,8.64-3.68,13.08t-11.2,5.08a43.15,43.15,0,0,1-5.8.24q-2.93-.08-6.6-.24a21.68,21.68,0,0,1-6.48-1.16,17,17,0,0,1-5.72-3.24,16.52,16.52,0,0,1-4.12-5.48,18.32,18.32,0,0,1-1.6-8V236.65a18.94,18.94,0,0,1,1.36-7.2,16,16,0,0,1,4-5.8,19.21,19.21,0,0,1,6.28-3.88,22.9,22.9,0,0,1,8.4-1.44h5.68a23.56,23.56,0,0,1,7,1,17.57,17.57,0,0,1,5.4,2.72,16.85,16.85,0,0,1,3.88,4.12,22.09,22.09,0,0,1,2.52,5.24l-11.36,3.44c-.32-.69-.67-1.36-1-2a6,6,0,0,0-1.4-1.64,6.71,6.71,0,0,0-2-1.08,9,9,0,0,0-2.92-.4H429c-2.88,0-5.06.77-6.52,2.32a7.74,7.74,0,0,0-2.2,5.52v20.08q0,4.56,2.08,6.84a7.6,7.6,0,0,0,5.92,2.28h5.44a10.34,10.34,0,0,0,4.44-.8,5.64,5.64,0,0,0,2.48-2.24,8.78,8.78,0,0,0,1.08-3.4,35.34,35.34,0,0,0,.24-4.28l-.08-3.6h-9.44v-6.8Z" transform="translate(0 0.83)"/><path class="cls-2" d="M503.67,276.57H490a14.52,14.52,0,0,0,.92-2.08,9.78,9.78,0,0,0,.48-2.28c.08-.83.13-1.77.16-2.84s0-2.35,0-3.84a32.42,32.42,0,0,0-.36-5.16,8.46,8.46,0,0,0-1.44-3.68,6.34,6.34,0,0,0-3.08-2.2,16.27,16.27,0,0,0-5.36-.72h-9v22.8H458.47V218.33h27.76a19.76,19.76,0,0,1,9.28,1.88,16,16,0,0,1,5.44,4.48,14,14,0,0,1,2.52,5.4,23.23,23.23,0,0,1,.6,4.72,17.17,17.17,0,0,1-2.12,8.56,11.15,11.15,0,0,1-6.44,5.2c1.17.53,2.26,1.09,3.28,1.68a8.14,8.14,0,0,1,2.6,2.44,12.05,12.05,0,0,1,1.68,4.08,29.44,29.44,0,0,1,.6,6.6ZM483,243.93q4.71,0,7-1.8c1.54-1.2,2.32-3.24,2.32-6.12a10.56,10.56,0,0,0-.32-2.44,6.51,6.51,0,0,0-1.24-2.48,7,7,0,0,0-2.6-1.92,10.49,10.49,0,0,0-4.32-.76h-11.6v15.52Z" transform="translate(0 0.83)"/><path class="cls-2" d="M539.27,276.57H527.43a23,23,0,0,1-5.72-.8,17.21,17.21,0,0,1-5.72-2.68,14.86,14.86,0,0,1-4.36-4.92,15,15,0,0,1-1.72-7.52v-25a16.29,16.29,0,0,1,1.52-7.12,16.67,16.67,0,0,1,4.12-5.48,18.61,18.61,0,0,1,6-3.52,21.21,21.21,0,0,1,7.28-1.24H537a20.8,20.8,0,0,1,7.28,1.24,17.09,17.09,0,0,1,5.8,3.52,16.13,16.13,0,0,1,3.8,5.44,17.88,17.88,0,0,1,1.36,7.08v25.36a14.12,14.12,0,0,1-1.48,6.44,16.15,16.15,0,0,1-3.84,5,18.22,18.22,0,0,1-5.2,3.16A14.87,14.87,0,0,1,539.27,276.57ZM535,267a9,9,0,0,0,6.16-2,7.43,7.43,0,0,0,2.32-5.88V236.41a8.17,8.17,0,0,0-.52-2.88,6.82,6.82,0,0,0-1.56-2.4,7.45,7.45,0,0,0-2.6-1.64,10.36,10.36,0,0,0-3.72-.6h-4.48a10.33,10.33,0,0,0-3.8.64,8.57,8.57,0,0,0-2.76,1.68,6.62,6.62,0,0,0-1.68,2.4,7.39,7.39,0,0,0-.56,2.88v22.56a8.71,8.71,0,0,0,1.84,5.6q1.83,2.33,6.32,2.32Z" transform="translate(0 0.83)"/><path class="cls-2" d="M574.55,218.65V257a10,10,0,0,0,.28,2.32,6.34,6.34,0,0,0,1,2.28,5.58,5.58,0,0,0,2,1.76,7.18,7.18,0,0,0,3.36.68h8a7.53,7.53,0,0,0,3.36-.68,6.33,6.33,0,0,0,2.2-1.76,6.78,6.78,0,0,0,1.2-2.4,10.12,10.12,0,0,0,.36-2.68V218.65h12.88v40.64a19.07,19.07,0,0,1-1.48,7.84,14.89,14.89,0,0,1-4,5.36,16.32,16.32,0,0,1-5.76,3.08,23.66,23.66,0,0,1-7,1H580.47a21.75,21.75,0,0,1-7.92-1.4,17.45,17.45,0,0,1-6.12-3.92,16.4,16.4,0,0,1-3.8-6,18.42,18.42,0,0,1-1-7.6v-39Z" transform="translate(0 0.83)"/><path class="cls-2" d="M629.51,276.57H615.35V218.25h14.16l21.2,40.4v-40.4h11.68v58.32H650.07l-20.56-36.48Z" transform="translate(0 0.83)"/><path class="cls-2" d="M668.46,218.33h24.16a32.27,32.27,0,0,1,7,.8,18.14,18.14,0,0,1,6.6,2.92,16,16,0,0,1,4.92,5.8,19.66,19.66,0,0,1,1.84,9.44l-.08,19.28a18.54,18.54,0,0,1-7.2,15.28,21.46,21.46,0,0,1-6.92,3.56,25.59,25.59,0,0,1-7.48,1.16h-22.8Zm34.32,21.92q0-5.44-2.68-8t-9.32-2.52h-9.44v34.16H691.5a20.09,20.09,0,0,0,4.2-.44,10.36,10.36,0,0,0,3.6-1.48,7.76,7.76,0,0,0,2.52-2.8,9.29,9.29,0,0,0,1-4.48Z" transform="translate(0 0.83)"/></g></svg>
