<svg xmlns="http://www.w3.org/2000/svg" xmlns:xlink="http://www.w3.org/1999/xlink" viewBox="0 0 1500 346.38"><defs><style>.cls-1{fill:url(#linear-gradient);}.cls-2{fill:#fff;}</style><linearGradient id="linear-gradient" x1="750" y1="27.76" x2="750" y2="466.09" gradientUnits="userSpaceOnUse"><stop offset="0" stop-color="#59bbc7"/><stop offset="0.24" stop-color="#58bac7" stop-opacity="0.99"/><stop offset="0.35" stop-color="#57b8c7" stop-opacity="0.95"/><stop offset="0.43" stop-color="#53b5c7" stop-opacity="0.89"/><stop offset="0.5" stop-color="#4eb0c7" stop-opacity="0.8"/><stop offset="0.55" stop-color="#48aac7" stop-opacity="0.68"/><stop offset="0.61" stop-color="#40a2c7" stop-opacity="0.54"/><stop offset="0.66" stop-color="#3798c6" stop-opacity="0.36"/><stop offset="0.7" stop-color="#2d8dc6" stop-opacity="0.17"/><stop offset="0.73" stop-color="#2484c6" stop-opacity="0"/></linearGradient></defs><title>culture</title><g id="Layer_2" data-name="Layer 2"><rect class="cls-1" width="1500" height="346.38"/></g><g id="Layer_1" data-name="Layer 1"><path class="cls-2" d="M138.53,172.43h-40v18.41H82.1V172.43h-44V157.62H138.53ZM48.22,217V181h16.4v20.27h66.3V217Zm78.3-110.58v42.28H50.35V106.4Zm-14.67,13.87H65.29v14.67h46.56Z" transform="translate(0 0.83)"/><path class="cls-2" d="M185.61,109.46H203v56.43H146.53V109.46h17.21v14.41h21.87Zm-21.87,42h21.87V138.81H163.74Zm83,67.23H170.14V175.5H189v8.8h40.29v-8.8h17.47ZM189,205.65h40.29v-8.28H189Zm39.62-99.25h18v62.16h-18V145.48H209.09V130h19.48Z" transform="translate(0 0.83)"/><path class="cls-2" d="M313.94,150.28l-16.67,38.16H280.19L299,146.82a13.09,13.09,0,0,0,1.07-4,19.07,19.07,0,0,0,0-4.53,17.27,17.27,0,0,0-1.13-4.4A12.17,12.17,0,0,0,286.46,126a10.35,10.35,0,0,0-5,1,15.15,15.15,0,0,0-3.67,3,14.6,14.6,0,0,0-3.6,10.14H258.45a26.45,26.45,0,0,1,7.87-19.48,28.7,28.7,0,0,1,20.14-7.74,37.67,37.67,0,0,1,11.81,1.87,27,27,0,0,1,9.8,5.6,22.22,22.22,0,0,1,4.74,6.21,27.93,27.93,0,0,1,2.73,7.73,29.76,29.76,0,0,1,.47,8.21A21.56,21.56,0,0,1,313.94,150.28Zm-17.21,48.83v15.34H279.26V199.11Z" transform="translate(0 0.83)"/><path class="cls-2" d="M460.28,172.43h-40v18.41H403.85V172.43h-44V157.62H460.28ZM370,217V181h16.41v20.27h66.3V217Zm78.3-110.58v42.28H372.1V106.4ZM433.6,120.27H387v14.67H433.6Z" transform="translate(0 0.83)"/><path class="cls-2" d="M546.85,106.13h18.68v31.08H579.4v17.61H565.53v63.63H546.85V198.31H468.28V182.7h27V171.36h-.8a17,17,0,0,1-6.94-1.47,19.75,19.75,0,0,1-5.93-4,19.29,19.29,0,0,1-4.14-5.87,17,17,0,0,1-1.53-7.2V137.08a18.34,18.34,0,0,1,1-6,16.48,16.48,0,0,1,2.86-5.21h-9.87V113.2h23.75v-8.8h19.21v8.8h24.68v12.67H526.18a16.92,16.92,0,0,1,2.87,5.14,18.44,18.44,0,0,1,1,6.07v15.74a17.32,17.32,0,0,1-1.47,7.07,20.51,20.51,0,0,1-3.87,5.87,17.72,17.72,0,0,1-5.67,4,18.26,18.26,0,0,1-6.87,1.6V182.7h34.68Zm-33.08,43v-8.27a8,8,0,0,0-2.13-5.73,7.36,7.36,0,0,0-5.61-2.27h-5.86a8.46,8.46,0,0,0-5.94,2.27,7.43,7.43,0,0,0-2.47,5.73v8.27a7.66,7.66,0,0,0,2.47,5.81,8.34,8.34,0,0,0,5.94,2.33H506a7.27,7.27,0,0,0,5.61-2.33A8.3,8.3,0,0,0,513.77,149.08Z" transform="translate(0 0.83)"/><path class="cls-2" d="M674.78,125.74a66.07,66.07,0,0,1-1.13,12.07,93.76,93.76,0,0,1-2.87,11.47,90.68,90.68,0,0,1-3.8,9.94q-2.07,4.54-3.8,7.74H644.37a77.25,77.25,0,0,0,6.33-11.14,71.84,71.84,0,0,0,3.87-10.34,55,55,0,0,0,1.87-9.4,81,81,0,0,0,.47-8.34H621.29V113.33h53.49ZM696.53,178q7.2,0,11.4,3.74a12.71,12.71,0,0,1,4.2,10v13.74a12.23,12.23,0,0,1-4,9.34,14.62,14.62,0,0,1-10.4,3.73l-52.43-.13a14.53,14.53,0,0,1-5.27-1,18.46,18.46,0,0,1-4.73-2.67,12.42,12.42,0,0,1-3.41-4.07,11,11,0,0,1-1.26-5.2V191.77a12.77,12.77,0,0,1,1.46-6.33,13,13,0,0,1,3.81-4.27,15.36,15.36,0,0,1,5.13-2.4,21.53,21.53,0,0,1,5.47-.74Zm-41.89,15.21q-3.87,0-5.4,1.27a3.13,3.13,0,0,0-1.4,2.73l.13,3.47c.09,1.87.78,2.91,2.07,3.13a26.61,26.61,0,0,0,4.6.34h36a10.51,10.51,0,0,0,4.13-.74,2.9,2.9,0,0,0,1.74-3v-3.2a3.33,3.33,0,0,0-1.47-3.13,8.18,8.18,0,0,0-4.14-.87Zm70-43.22H709.6v22H693.73v-65.9H709.6v28.15h15.07Z" transform="translate(0 0.83)"/><path class="cls-2" d="M834.33,206.45H732.68V191h43V167.09h16.94V191h41.76ZM741,115.33h87v15.08H795.37a53.66,53.66,0,0,0,13.48,16.87,54.59,54.59,0,0,0,18.41,10.21v12.94a62.57,62.57,0,0,1-12.34-3.6,75.33,75.33,0,0,1-12.08-6.14,66,66,0,0,1-10.53-8.2,42.28,42.28,0,0,1-7.74-9.81A35.29,35.29,0,0,1,776,153a88.41,88.41,0,0,1-12.34,8.81,99.2,99.2,0,0,1-12.67,6.4,45.73,45.73,0,0,1-9.6,3.07v-14a81.32,81.32,0,0,0,19.87-12.14,51.35,51.35,0,0,0,12-14.67H741Z" transform="translate(0 0.83)"/><path class="cls-2" d="M851.4,112.93h19.88v74.44H851.4Zm19.08,86.44v16.15h-18V199.37Z" transform="translate(0 0.83)"/></g></svg>